<?xml version="1.0" standalone="no"?>
<!DOCTYPE svg PUBLIC "-//W3C//DTD SVG 20010904//EN"
 "http://www.w3.org/TR/2001/REC-SVG-20010904/DTD/svg10.dtd">
<svg version="1.0" xmlns="http://www.w3.org/2000/svg"
 width="300.000000pt" height="300.000000pt" viewBox="0 0 300.000000 300.000000"
 preserveAspectRatio="xMidYMid meet">

<g transform="translate(0.000000,300.000000) scale(0.100000,-0.100000)"
fill="#000000" stroke="none">
<path d="M0 1500 l0 -1500 1500 0 1500 0 0 1500 0 1500 -1500 0 -1500 0 0
-1500z m1538 247 c1 6 7 24 13 40 11 27 12 26 36 -47 14 -41 29 -102 33 -135
l7 -60 1 53 c2 58 16 69 26 21 14 -74 -9 -179 -37 -162 -7 4 -6 -1 3 -11 14
-17 15 -17 24 3 5 11 17 23 26 26 10 3 25 14 35 25 16 18 16 18 -4 13 -12 -3
-21 -9 -21 -14 0 -5 -3 -9 -7 -9 -5 0 -6 29 -5 65 2 38 8 63 13 59 6 -3 24
-37 41 -75 32 -72 49 -89 40 -41 -4 23 1 20 32 -23 20 -27 36 -53 36 -57 0 -5
4 -8 10 -8 5 0 7 8 3 18 -3 10 9 3 31 -18 l37 -35 -43 -3 c-60 -5 -188 8 -188
19 0 4 -6 6 -14 3 -25 -9 -143 54 -175 94 -36 43 -40 83 -12 128 15 24 19 57
23 170 7 184 21 216 29 64 3 -63 6 -110 7 -103z m-51 -24 c-3 -2 -18 3 -34 12
l-28 17 25 -21 c14 -11 28 -21 33 -21 4 0 7 -4 7 -9 0 -5 -25 2 -56 17 -53 26
-54 27 -27 33 27 5 91 -17 80 -28z m-248 -371 c3 -1 -4 -17 -14 -35 -11 -19
-19 -50 -19 -78 l0 -47 -30 9 c-16 5 -34 14 -40 20 -8 9 -7 10 3 4 9 -5 12 -4
7 3 -4 7 -13 12 -21 12 -8 0 -17 5 -21 12 -5 8 -1 9 12 5 18 -7 18 -6 2 7 -23
17 -23 26 2 26 23 0 27 15 5 24 -29 11 -17 34 16 31 27 -2 30 0 25 20 -8 33 3
36 38 12 17 -12 33 -23 35 -25z m721 23 c0 -12 -29 -3 -34 10 -4 13 -2 14 14
5 11 -6 20 -13 20 -15z m-680 11 c0 -2 -8 -10 -17 -17 -16 -13 -17 -12 -4 4
13 16 21 21 21 13z m367 -28 c-3 -8 -6 -5 -6 6 -1 11 2 17 5 13 3 -3 4 -12 1
-19z m33 2 c0 -5 -4 -10 -10 -10 -5 0 -10 5 -10 10 0 6 5 10 10 10 6 0 10 -4
10 -10z m201 -16 c5 -3 9 -1 9 4 0 16 96 12 116 -3 17 -13 16 -14 -20 -15 -65
0 -35 -10 38 -12 41 -1 71 -7 77 -15 9 -10 6 -13 -12 -13 -38 0 -197 29 -279
50 l-75 19 69 -5 c38 -2 73 -7 77 -10z m20 -1130 c32 -39 108 -56 150 -34 27
15 25 -5 -3 -24 -12 -9 -34 -16 -48 -16 -43 0 -128 54 -130 83 0 12 17 8 31
-9z m-341 -4 c0 -29 103 -64 151 -50 37 11 46 -3 19 -30 -27 -27 -57 -25 -136
7 -70 29 -84 44 -64 68 14 17 30 20 30 5z"/>
<path d="M1621 1524 c0 -11 3 -14 6 -6 3 7 2 16 -1 19 -3 4 -6 -2 -5 -13z"/>
<path d="M1611 1484 c0 -11 3 -14 6 -6 3 7 2 16 -1 19 -3 4 -6 -2 -5 -13z"/>
<path d="M1900 1339 c0 -5 9 -9 20 -9 11 0 20 2 20 4 0 2 -9 6 -20 9 -11 3
-20 1 -20 -4z"/>
</g>
</svg>
