<?xml version="1.0" standalone="no"?>
<!DOCTYPE svg PUBLIC "-//W3C//DTD SVG 20010904//EN"
 "http://www.w3.org/TR/2001/REC-SVG-20010904/DTD/svg10.dtd">
<svg version="1.0" xmlns="http://www.w3.org/2000/svg"
 width="607.000000pt" height="607.000000pt" viewBox="0 0 607.000000 607.000000"
 preserveAspectRatio="xMidYMid meet">

<g transform="translate(0.000000,607.000000) scale(0.100000,-0.100000)"
fill="#000000" stroke="none">
<path d="M0 5680 l0 -390 3035 0 3035 0 0 390 0 390 -3035 0 -3035 0 0 -390z"/>
<path d="M0 2640 l0 -2640 3035 0 3035 0 0 2640 0 2640 -3035 0 -3035 0 0
-2640z m5300 -340 c-12 -8 -11 -10 8 -10 12 0 22 -4 22 -10 0 -5 -11 -10 -25
-10 -18 0 -25 5 -25 20 0 12 7 20 18 20 14 0 15 -2 2 -10z m-955 -180 c-27
-12 -35 -12 -35 0 0 6 12 10 28 9 24 0 25 -1 7 -9z m1120 -80 c3 -6 -1 -7 -9
-4 -18 7 -21 14 -7 14 6 0 13 -4 16 -10z m-1417 -155 c-2 -1 -14 -8 -28 -15
-25 -13 -25 -13 -6 8 10 12 23 19 28 16 5 -3 8 -7 6 -9z m352 -30 c16 5 21 4
18 -6 -7 -22 -52 -17 -56 6 -2 15 -1 17 6 6 6 -8 17 -11 32 -6z m-2848 -1185
l-4 -50 61 0 c43 0 61 -4 61 -13 0 -9 -17 -12 -57 -12 l-58 0 3 -35 c4 -62 11
-68 34 -30 12 19 22 36 23 38 1 1 9 0 18 -4 14 -5 11 -13 -18 -46 -37 -44 -36
-66 6 -89 17 -9 21 -7 26 10 4 17 9 19 19 10 10 -8 10 -16 2 -35 -14 -29 -39
-25 -81 14 -27 25 -28 26 -56 9 -31 -18 -61 -22 -61 -8 0 5 13 14 30 21 44 18
49 29 37 93 l-11 57 -38 0 c-36 0 -38 -2 -38 -31 0 -29 2 -30 30 -24 25 5 29
4 24 -9 -3 -9 -17 -16 -30 -16 -21 0 -23 -5 -26 -57 -3 -55 -4 -58 -30 -61
-20 -2 -28 1 -28 12 0 9 9 16 20 16 17 0 20 7 20 41 0 37 -2 40 -22 33 -35
-11 -50 -10 -55 3 -2 6 12 14 36 18 39 6 41 9 41 42 0 34 -1 34 -37 31 -22 -2
-38 2 -41 10 -2 8 9 12 37 12 37 0 41 2 41 26 0 23 -3 25 -29 19 -16 -3 -32
-2 -35 4 -4 5 19 15 51 22 73 17 75 17 81 2 2 -8 -6 -13 -22 -13 -22 0 -26 -4
-26 -30 0 -28 2 -30 41 -30 l42 0 -7 50 c-6 44 -4 50 11 50 15 0 17 -7 15 -50z
m733 30 c5 -17 15 -20 71 -20 l64 0 0 -30 c0 -20 -5 -30 -15 -30 -8 0 -15 9
-15 20 0 19 -7 20 -120 20 -113 0 -120 -1 -120 -20 0 -11 -7 -20 -15 -20 -10
0 -15 10 -15 30 l0 30 71 0 c66 0 70 1 64 20 -4 14 -2 20 9 20 8 0 18 -9 21
-20z m285 17 c0 -1 -4 -17 -9 -35 -10 -32 -9 -32 25 -32 l34 0 0 -125 c0 -84
-4 -125 -11 -125 -6 0 -13 9 -16 20 -4 15 -14 20 -39 20 -27 0 -34 -4 -34 -20
0 -11 -7 -20 -15 -20 -13 0 -15 20 -15 124 0 122 1 125 23 128 17 2 23 11 25
36 2 20 9 32 18 32 8 0 14 -1 14 -3z m145 -14 c-22 -53 -21 -55 31 -52 l49 3
-3 -79 c-5 -133 -11 -161 -38 -174 -34 -15 -54 -14 -54 4 0 9 9 15 25 15 27 0
30 11 39 138 l5 72 -44 0 c-40 0 -46 -3 -61 -31 -9 -18 -19 -28 -25 -22 -5 5
1 28 15 55 13 25 26 55 29 67 3 11 13 21 22 21 12 0 15 -5 10 -17z m355 -2
c-18 -35 -12 -40 45 -35 l55 5 0 -131 c0 -126 -1 -131 -22 -139 -15 -5 -26 -4
-30 3 -4 6 1 14 11 18 17 6 19 19 20 112 l2 106 -73 0 -73 0 0 -122 c0 -88 -3
-122 -12 -125 -10 -4 -13 28 -13 136 l0 140 28 -2 c23 -2 28 2 30 26 2 19 9
27 23 27 16 0 18 -3 9 -19z m712 -46 l-5 -65 59 0 59 0 -3 -100 c-2 -55 -8
-100 -13 -100 -5 0 -9 7 -9 15 0 13 -20 15 -120 15 -73 0 -120 4 -120 10 0 6
47 10 120 10 l120 0 0 25 0 25 -115 0 c-85 0 -115 3 -115 13 0 9 29 12 112 12
l113 0 3 28 3 27 -120 0 c-74 0 -121 4 -121 10 0 6 28 10 65 10 l65 0 0 65 c0
49 3 65 14 65 11 0 13 -14 8 -65z m-1739 39 c-4 -10 -17 -15 -37 -14 -59 4
-76 0 -76 -15 0 -8 10 -16 23 -17 12 0 29 -1 37 -2 10 -1 16 -14 18 -42 l3
-41 -120 0 -121 1 0 42 0 42 35 -3 c29 -2 35 0 35 16 0 13 -7 19 -22 20 -69 3
-82 5 -85 17 -4 9 32 12 156 12 141 0 160 -2 154 -16z m-409 -18 c11 -18 13
-27 5 -32 -13 -8 -50 36 -43 48 9 14 21 9 38 -16z m1716 -96 c0 -100 -2 -120
-15 -120 -8 0 -15 9 -15 21 0 16 -5 20 -27 17 -23 -2 -28 -8 -28 -30 1 -16 -5
-28 -12 -28 -10 0 -13 31 -13 130 l0 130 55 0 55 0 0 -120z m210 105 c0 -11
-9 -14 -32 -13 l-33 3 -3 -131 c-2 -127 -3 -132 -25 -138 -33 -9 -37 -8 -37 9
0 8 7 15 15 15 12 0 15 19 15 115 0 63 -1 118 -2 123 -2 4 -20 6 -40 6 -27 -2
-38 2 -38 12 0 11 20 14 90 14 73 0 90 -3 90 -15z m324 -32 c-22 -29 -44 -41
-44 -23 0 22 43 71 54 60 7 -7 3 -19 -10 -37z m406 32 c0 -8 -16 -21 -36 -30
-19 -8 -48 -24 -64 -35 -28 -20 -29 -24 -32 -113 l-3 -92 -27 -3 c-16 -2 -28
1 -28 7 0 6 7 11 15 11 12 0 15 16 15 88 l0 87 45 29 c25 15 44 31 41 33 -2 3
-50 5 -107 6 -72 2 -104 6 -106 15 -4 9 29 12 141 12 123 0 146 -2 146 -15z
m-601 -21 c23 -29 27 -44 11 -44 -12 0 -59 50 -60 63 0 17 30 5 49 -19z m-739
-99 c0 -70 -4 -115 -10 -115 -5 0 -10 7 -10 15 0 8 -9 15 -20 15 -15 0 -20 -7
-20 -25 0 -14 -6 -25 -13 -25 -11 0 -14 27 -13 125 l1 125 43 0 42 0 0 -115z
m-712 66 c10 -6 0 -17 -36 -40 -27 -17 -54 -31 -60 -31 -22 0 -12 19 16 34 16
8 34 22 41 30 15 18 21 19 39 7z m129 -23 c50 -28 48 -27 35 -40 -8 -8 -23 -3
-56 18 -71 45 -52 64 21 22z m743 -73 l0 -65 -38 0 -37 0 -1 65 0 65 38 0 38
0 0 -65z m-832 28 c-3 -28 -3 -28 53 -26 l56 3 -4 -53 c-5 -54 -31 -91 -61
-85 -27 5 -25 28 2 28 14 0 26 4 26 9 0 5 3 23 6 40 l7 31 -47 0 c-39 0 -48
-4 -55 -22 -16 -42 -99 -95 -129 -83 -13 5 -4 13 35 30 44 20 73 47 73 69 0 3
-23 6 -51 6 -36 0 -49 4 -46 13 2 7 22 12 53 12 41 0 49 3 52 20 4 17 19 34
30 35 2 0 2 -12 0 -27z m427 -29 c11 -18 14 -29 7 -36 -7 -7 -15 0 -26 20 -18
36 -19 42 -7 42 5 0 16 -12 26 -26z m-821 1 c-5 -13 8 -15 80 -15 51 0 86 -4
86 -10 0 -5 -17 -10 -39 -10 -30 0 -42 -5 -54 -24 -16 -24 -13 -36 9 -36 28 0
67 -21 58 -30 -7 -7 -25 -4 -51 6 -37 15 -46 15 -111 0 -80 -18 -112 -20 -112
-7 0 5 27 12 60 16 73 8 85 21 29 30 -39 7 -40 8 -23 26 17 18 16 19 -34 19
-29 0 -52 5 -52 10 0 6 26 10 59 10 43 0 60 4 65 15 3 8 12 15 20 15 10 0 13
-6 10 -15z m-994 -290 c0 -33 1 -34 31 -28 21 4 34 1 40 -8 12 -19 11 -109 -1
-109 -5 0 -10 22 -10 49 0 54 -9 66 -40 56 -16 -5 -20 -15 -20 -56 0 -27 -4
-49 -10 -49 -6 0 -10 37 -10 90 0 53 4 90 10 90 6 0 10 -16 10 -35z m1154 14
c-3 -5 -10 -7 -15 -3 -5 3 -7 10 -3 15 3 5 10 7 15 3 5 -3 7 -10 3 -15z m696
-14 c0 -33 1 -34 30 -29 39 8 60 -10 60 -51 0 -42 -25 -64 -72 -62 l-38 1 0
88 c0 52 4 88 10 88 6 0 10 -16 10 -35z m668 -57 l-2 -93 -5 85 c-3 47 -5 88
-3 93 9 21 12 -2 10 -85z m62 0 c0 -50 -2 -89 -5 -86 -7 7 -15 160 -9 170 12
18 14 3 14 -84z m639 1 c-3 -111 -19 -110 -19 1 0 61 3 89 10 85 7 -4 10 -39
9 -86z m52 3 c1 -45 -1 -85 -5 -89 -3 -3 -6 36 -6 87 0 114 8 116 11 2z
m-3321 67 c0 -5 -10 -9 -22 -7 -22 3 -23 0 -24 -70 -1 -40 -4 -76 -8 -79 -3
-4 -6 28 -6 70 0 75 -1 77 -25 77 -14 0 -25 5 -25 10 0 6 25 10 55 10 32 0 55
-4 55 -11z m532 -1 c-15 -15 -16 -138 -2 -138 6 0 10 -4 10 -10 0 -5 -10 -10
-22 -10 -22 0 -23 4 -23 85 0 84 0 85 25 85 19 0 21 -3 12 -12z m45 -25 c-3
-10 -5 -4 -5 12 0 17 2 24 5 18 2 -7 2 -21 0 -30z m1037 2 c-4 -10 0 -15 12
-15 17 0 17 -1 1 -12 -20 -15 -17 -75 4 -89 17 -10 5 -23 -16 -16 -10 5 -15
20 -15 50 0 24 -5 48 -12 55 -9 9 -9 12 0 12 7 0 12 7 12 15 0 8 4 15 10 15 5
0 7 -7 4 -15z m-1366 -27 c7 -7 12 -20 12 -30 0 -14 -8 -18 -41 -18 -33 0 -40
-3 -37 -17 2 -12 14 -19 36 -21 35 -4 35 -22 0 -22 -50 0 -76 64 -41 102 18
21 53 24 71 6z m138 -53 c1 -60 1 -60 -5 -11 -11 89 -59 88 -72 -2 l-6 -47 -2
60 -1 61 43 -1 42 0 1 -60z m319 54 c5 -7 11 -6 20 1 8 6 24 10 37 8 21 -3 23
-8 24 -63 1 -33 0 -49 -2 -35 -3 14 -7 40 -10 58 -4 27 -9 33 -27 30 -19 -3
-22 -10 -25 -55 -4 -68 -22 -69 -22 -3 0 36 -4 52 -15 56 -26 10 -45 -16 -45
-62 0 -24 -4 -44 -10 -44 -5 0 -9 26 -9 58 l1 59 39 1 c21 1 41 -3 44 -9z
m295 -53 c0 -78 -18 -106 -66 -106 -19 0 -34 5 -34 10 0 6 11 8 25 4 30 -7 55
10 55 39 0 16 -3 18 -12 9 -28 -28 -78 2 -78 46 0 39 27 62 71 60 l39 -1 0
-61z m132 47 c24 -21 23 -58 -2 -83 -22 -22 -42 -25 -71 -10 -22 12 -27 78 -7
98 17 17 58 15 80 -5z m68 -44 c0 -34 -4 -58 -9 -54 -5 3 -10 30 -10 60 0 30
5 55 10 55 5 0 9 -27 9 -61z m127 50 c7 -7 13 -32 13 -61 0 -59 -16 -56 -18 4
-2 50 -15 67 -40 52 -11 -7 -18 -27 -20 -58 -2 -26 -7 -44 -13 -41 -9 6 -13
97 -5 106 10 9 71 8 83 -2z m153 -61 c0 -47 -5 -71 -16 -82 -17 -17 -84 -22
-84 -6 0 5 12 7 28 4 32 -5 47 3 56 34 8 25 4 27 -24 10 -30 -19 -54 1 -58 46
-4 50 11 67 59 64 l39 -3 0 -67z m288 60 c17 -17 15 -68 -5 -90 -35 -38 -93
-9 -93 47 0 39 16 55 55 55 17 0 36 -5 43 -12z m342 -7 c17 -33 11 -41 -31
-41 -33 0 -40 -3 -37 -17 2 -12 14 -19 36 -21 36 -4 34 -22 -3 -22 -32 0 -55
25 -55 60 0 16 7 36 16 44 21 22 61 20 74 -3z m153 7 c-15 -7 -25 -23 -28 -47
-11 -66 -13 -66 -14 -6 l-1 60 33 2 c29 1 30 1 10 -9z m127 -7 c18 -34 11 -41
-35 -41 -42 0 -45 -2 -35 -19 6 -12 23 -21 43 -23 27 -3 29 -5 13 -13 -10 -4
-30 -4 -45 1 -21 8 -27 17 -29 47 -2 21 2 45 9 53 17 21 66 18 79 -5z m117 2
c5 -10 8 -25 7 -33 -1 -8 -2 -28 -3 -45 -1 -21 -4 -26 -10 -16 -6 9 -11 10
-15 2 -10 -16 -42 -13 -57 5 -18 22 0 48 37 54 42 7 39 35 -3 34 -18 -1 -30 2
-27 7 10 16 63 10 71 -8z m184 -28 c7 -25 17 -45 20 -45 4 0 13 17 19 38 15
46 36 69 26 29 -13 -57 -61 -142 -81 -146 -18 -3 -17 -1 5 17 l24 20 -18 53
c-9 30 -20 60 -23 67 -2 6 0 12 5 12 5 0 16 -20 23 -45z m259 28 c-15 -11 -20
-26 -20 -59 0 -24 -4 -44 -10 -44 -6 0 -10 26 -10 58 0 58 0 59 30 59 28 0 29
-1 10 -14z m128 5 c7 -7 12 -20 12 -30 0 -14 -8 -18 -40 -18 -28 0 -40 -4 -40
-15 0 -19 34 -37 56 -28 12 4 15 3 10 -5 -22 -36 -86 5 -86 55 0 43 58 71 88
41z m120 0 c14 -14 16 -108 2 -108 -5 0 -10 5 -10 10 0 6 -7 6 -19 -1 -28 -18
-53 -4 -49 28 2 22 9 29 33 33 39 7 41 35 3 35 -16 -1 -28 3 -28 7 0 13 55 9
68 -4z m190 -40 l19 -52 17 52 c10 29 22 52 27 52 12 0 13 6 -24 -85 -23 -57
-39 -81 -52 -83 -19 -4 -19 -3 -2 10 24 18 24 43 -1 106 -12 28 -18 52 -13 52
5 0 18 -23 29 -52z m262 32 c27 -50 -6 -108 -55 -96 -23 6 -25 4 -25 -24 0
-16 -4 -30 -10 -30 -6 0 -10 34 -10 83 l0 83 45 2 c35 1 47 -3 55 -18z m138 8
c31 -31 2 -108 -41 -108 -49 0 -76 70 -41 104 18 19 65 21 82 4z m150 -20 c30
-63 -53 -122 -92 -66 -9 12 -16 31 -16 42 0 57 83 76 108 24z m83 16 c-16 -12
-21 -26 -21 -60 0 -24 -4 -44 -10 -44 -6 0 -10 26 -10 58 l0 59 31 1 c31 1 31
0 10 -14z m-1226 -114 c-4 -12 -9 -19 -12 -17 -3 3 -2 15 2 27 4 12 9 19 12
17 3 -3 2 -15 -2 -27z m1285 20 c0 -5 -4 -10 -10 -10 -5 0 -10 5 -10 10 0 6 5
10 10 10 6 0 10 -4 10 -10z"/>
<path d="M2520 590 l0 -41 38 3 c35 3 37 5 37 38 0 33 -2 35 -37 38 l-38 3 0
-41z"/>
<path d="M2520 495 c0 -34 1 -35 39 -35 38 0 39 1 39 35 0 34 -1 35 -39 35
-38 0 -39 -1 -39 -35z"/>
<path d="M1863 672 c-7 -16 2 -25 27 -29 15 -2 20 3 20 20 0 16 -6 23 -21 23
-12 0 -24 -6 -26 -14z"/>
<path d="M1790 605 c0 -20 5 -25 25 -25 20 0 25 5 25 25 0 20 -5 25 -25 25
-20 0 -25 -5 -25 -25z"/>
<path d="M1860 605 c0 -20 5 -25 25 -25 20 0 25 5 25 25 0 20 -5 25 -25 25
-20 0 -25 -5 -25 -25z"/>
<path d="M1937 623 c-4 -3 -7 -15 -7 -25 0 -13 8 -18 30 -18 25 0 30 4 30 25
0 20 -5 25 -23 25 -13 0 -27 -3 -30 -7z"/>
<path d="M3267 673 c-4 -3 -7 -39 -7 -80 l0 -73 30 0 30 0 0 80 c0 77 -1 80
-23 80 -13 0 -27 -3 -30 -7z"/>
<path d="M2890 580 c0 -73 2 -80 20 -80 18 0 20 7 20 80 0 73 -2 80 -20 80
-18 0 -20 -7 -20 -80z"/>
<path d="M3058 573 c-2 -5 -4 -24 -4 -43 1 -25 6 -36 19 -38 14 -3 17 4 17 42
0 33 -4 46 -14 46 -8 0 -16 -3 -18 -7z"/>
<path d="M1890 500 c-51 -6 -56 -21 -10 -34 24 -7 35 -6 47 6 24 25 12 33 -37
28z"/>
<path d="M2751 196 c-7 -8 -11 -27 -9 -43 3 -24 8 -28 33 -28 27 0 30 4 33 34
5 46 -31 69 -57 37z"/>
<path d="M1032 198 c-19 -19 -14 -28 16 -28 35 0 45 9 31 27 -14 16 -31 17
-47 1z"/>
<path d="M1762 198 c-18 -18 -15 -66 6 -77 28 -15 52 5 52 43 0 42 -32 60 -58
34z"/>
<path d="M1902 198 c-14 -14 -15 -47 -3 -66 5 -8 21 -12 37 -10 25 3 29 8 32
37 5 46 -36 69 -66 39z"/>
<path d="M2240 189 c-7 -11 -9 -32 -6 -45 9 -33 52 -33 67 0 23 49 -36 93 -61
45z"/>
<path d="M2529 189 c-18 -34 4 -71 39 -67 23 3 28 8 30 37 5 51 -46 73 -69 30z"/>
<path d="M2887 204 c-17 -17 -5 -34 24 -34 24 0 30 4 27 18 -3 17 -38 29 -51
16z"/>
<path d="M3167 204 c-17 -17 -5 -34 24 -34 24 0 30 4 27 18 -3 17 -38 29 -51
16z"/>
<path d="M3287 153 c-17 -17 -6 -34 20 -31 36 4 45 38 10 38 -13 0 -27 -3 -30
-7z"/>
<path d="M3862 198 c-20 -20 -14 -28 19 -28 24 0 30 4 27 17 -4 22 -29 28 -46
11z"/>
<path d="M3976 143 c-4 -9 -1 -20 6 -24 16 -10 48 8 48 26 0 21 -46 19 -54 -2z"/>
<path d="M4421 196 c-7 -8 -11 -27 -9 -43 3 -24 8 -28 33 -28 27 0 30 4 33 34
5 46 -31 69 -57 37z"/>
<path d="M4564 202 c-6 -4 -13 -15 -17 -25 -18 -49 53 -81 74 -33 20 42 -20
83 -57 58z"/>
<path d="M4701 196 c-7 -8 -11 -27 -9 -43 2 -23 8 -29 35 -31 27 -3 33 1 39
21 12 50 -36 89 -65 53z"/>
</g>
</svg>
