<?xml version="1.0" standalone="no"?>
<!DOCTYPE svg PUBLIC "-//W3C//DTD SVG 20010904//EN"
 "http://www.w3.org/TR/2001/REC-SVG-20010904/DTD/svg10.dtd">
<svg version="1.0" xmlns="http://www.w3.org/2000/svg"
 width="607.000000pt" height="607.000000pt" viewBox="0 0 607.000000 607.000000"
 preserveAspectRatio="xMidYMid meet">

<g transform="translate(0.000000,607.000000) scale(0.100000,-0.100000)"
fill="#000000" stroke="none">
<path d="M3556 5063 c-3 -3 -88 -7 -188 -9 -107 -2 -182 -7 -181 -12 2 -10
-120 -24 -191 -23 -22 0 -62 -6 -89 -14 -28 -8 -65 -15 -82 -15 -36 0 -115
-61 -115 -89 0 -9 -8 -24 -18 -32 -14 -12 -21 -38 -27 -95 -4 -43 -7 -87 -7
-96 1 -10 2 -36 3 -57 1 -29 -7 -54 -34 -97 -59 -99 -77 -158 -98 -327 -15
-119 -17 -162 -8 -178 6 -11 12 -58 15 -104 4 -94 3 -96 -104 -270 -34 -54
-62 -110 -62 -123 0 -29 23 -74 54 -105 19 -19 25 -39 31 -98 4 -41 12 -80 17
-86 6 -7 8 -27 5 -45 -3 -21 2 -49 14 -75 11 -23 25 -71 33 -107 19 -90 41
-124 106 -157 47 -24 67 -29 134 -29 43 0 106 7 140 16 68 18 129 14 155 -10
10 -9 35 -49 55 -90 21 -41 46 -83 56 -93 9 -11 39 -51 65 -89 62 -88 120
-165 212 -281 64 -80 73 -97 73 -133 0 -22 7 -72 16 -109 15 -69 25 -331 12
-331 -4 0 -8 10 -11 23 -3 20 -4 20 -15 -8 -7 -16 -19 -42 -27 -57 -62 -110
-85 -242 -50 -293 16 -24 20 -27 23 -12 5 26 22 20 22 -8 0 -55 -32 -220 -43
-224 -7 -2 -29 -21 -49 -41 -30 -30 -38 -45 -38 -74 0 -40 -4 -44 -108 -132
-50 -42 -57 -45 -95 -39 -36 5 -49 1 -95 -28 -49 -33 -132 -115 -132 -134 0
-11 -149 -117 -156 -111 -2 3 29 31 70 63 42 31 78 65 81 75 3 9 25 38 50 64
25 25 45 49 45 51 0 3 -75 5 -167 6 -93 1 -193 4 -223 7 l-54 7 -13 85 c-7 47
-12 100 -13 117 0 50 -32 61 -160 57 -171 -5 -280 -21 -295 -41 -8 -10 -17
-18 -22 -18 -13 0 -73 -38 -73 -46 0 -4 -14 -10 -30 -14 -25 -6 -30 -10 -24
-27 4 -13 2 -18 -5 -14 -6 4 -18 -3 -28 -15 -10 -11 -27 -24 -38 -29 -31 -12
39 -28 180 -41 66 -6 121 -12 123 -13 1 -2 -62 -6 -141 -10 -270 -12 -416 -41
-409 -79 2 -11 -12 -16 -54 -19 -37 -3 -61 -11 -69 -21 -6 -9 -34 -21 -61 -28
-27 -6 -62 -17 -79 -24 -82 -34 -115 -51 -115 -57 0 -5 -16 -8 -35 -8 -19 0
-35 -4 -35 -8 0 -4 -10 -9 -22 -10 -75 -5 -134 -12 -147 -18 -9 -4 -41 -7 -71
-6 -30 0 -59 -3 -65 -6 -19 -12 -48 -12 -61 -1 -7 6 -53 11 -103 12 -72 2 -93
6 -111 22 -14 12 -33 18 -56 17 -18 -2 -34 2 -34 8 0 5 -15 10 -32 10 -18 0
-42 7 -52 15 -11 8 -28 15 -37 15 -10 0 -19 6 -22 13 -3 9 -9 9 -25 0 -22 -13
-78 -2 -75 15 1 5 -13 13 -32 16 -18 4 -36 12 -39 19 -3 9 -7 8 -15 -3 -9 -13
-11 -13 -11 1 0 9 -6 16 -12 17 -45 4 -114 24 -128 37 -9 8 -20 15 -23 15 -4
0 -7 -173 -7 -385 l0 -385 3035 0 3035 0 0 734 c0 507 -3 737 -11 741 -5 4
-25 26 -42 49 -172 228 -207 275 -214 278 -5 1 -26 25 -48 52 -22 28 -52 63
-67 80 -20 22 -26 36 -21 51 3 11 6 58 5 106 l-3 85 36 -4 c45 -5 45 8 -1 45
-37 29 -37 30 -24 69 7 21 20 45 29 51 14 11 12 15 -16 38 -18 15 -33 32 -33
38 0 7 -15 22 -33 34 -60 41 -115 106 -122 144 -6 34 -5 36 17 35 14 -1 23 5
23 14 0 9 10 15 25 16 14 0 36 2 50 4 21 2 20 4 -10 10 -37 7 -36 8 45 34 28
8 77 25 110 36 33 12 84 24 114 28 90 12 72 42 -26 42 -60 0 -61 16 -3 35 27
9 50 21 50 26 0 6 -9 8 -20 5 -11 -3 -29 -8 -39 -11 -23 -7 -168 27 -208 49
-50 26 -120 119 -77 102 8 -3 22 -6 31 -6 9 0 13 -6 10 -14 -4 -10 -1 -13 9
-9 7 3 14 7 14 10 0 10 -59 63 -71 63 -9 0 -10 3 -3 10 7 7 24 4 55 -9 24 -12
50 -21 58 -21 25 0 -28 48 -78 71 -25 12 -79 44 -120 72 -40 27 -97 58 -125
70 -67 27 -121 66 -108 79 25 25 128 37 267 32 82 -4 150 -2 165 4 23 8 20 10
-27 17 -29 4 -66 4 -82 0 -17 -4 -40 -3 -52 0 l-21 7 21 15 c28 19 18 33 -23
33 -19 0 -53 9 -77 20 -27 12 -66 20 -101 20 -31 0 -59 4 -62 9 -9 13 61 21
154 15 112 -6 95 14 -27 32 -109 17 -144 18 -123 4 11 -7 3 -10 -29 -10 -36 0
-41 2 -32 14 9 11 8 15 -4 20 -11 4 -14 13 -9 31 4 18 2 27 -10 31 -11 4 -14
13 -9 32 5 20 3 24 -9 19 -9 -3 -35 -8 -59 -12 -37 -5 -48 -3 -62 13 -17 18
-17 21 -2 36 20 20 11 36 -19 36 -37 0 -85 71 -77 116 2 16 -45 61 -107 104
-29 19 -57 47 -63 62 -6 15 -19 34 -30 44 -25 23 -24 34 4 34 21 1 22 1 3 15
-11 8 -26 15 -33 15 -14 0 -70 47 -130 108 -37 37 -69 103 -102 207 -43 135
-63 165 -206 313 -102 106 -198 177 -335 247 l-95 49 -132 2 c-72 2 -134 0
-137 -3z m2003 -2210 c13 -13 18 -23 12 -23 -23 0 -71 31 -71 45 0 19 28 9 59
-22z m231 -3 c-20 -13 -57 -13 -65 0 -4 6 11 10 37 10 31 0 39 -3 28 -10z
m-168 -59 c4 0 5 -8 2 -16 -8 -20 13 -19 24 1 7 12 17 13 58 6 34 -7 40 -10
20 -11 -23 -1 -26 -4 -17 -14 9 -11 3 -17 -28 -27 -21 -7 -45 -10 -52 -8 -8 3
-22 1 -33 -4 -12 -7 -33 -6 -62 2 -35 10 -44 17 -43 34 0 11 3 15 6 9 8 -21
23 -15 23 10 0 20 4 22 48 21 26 -1 50 -2 54 -3z m58 -431 c0 -5 -5 -10 -11
-10 -5 0 -7 5 -4 10 3 6 8 10 11 10 2 0 4 -4 4 -10z m-58 -282 c-8 -8 -9 -4
-5 13 4 13 8 18 11 10 2 -7 -1 -18 -6 -23z"/>
<path d="M5278 3733 c6 -2 18 -2 25 0 6 3 1 5 -13 5 -14 0 -19 -2 -12 -5z"/>
<path d="M5896 3573 c-16 -36 -37 -65 -47 -68 -11 -4 -29 -24 -40 -46 l-20
-40 29 21 c51 38 117 145 110 178 -2 10 -15 -8 -32 -45z"/>
<path d="M5520 3400 c0 -6 7 -10 15 -10 8 0 15 2 15 4 0 2 -7 6 -15 10 -8 3
-15 1 -15 -4z"/>
</g>
</svg>
