<svg height="607pt" preserveAspectRatio="xMidYMid meet" viewBox="0 0 607 607" width="607pt" xmlns="http://www.w3.org/2000/svg"><g transform="matrix(.1 0 0 -.1 0 607)"><path d="m0 3750v-2320h374 374l-6-47c-3-27-10-51-16-55s-8-10-4-13c10-10 161-18 201-11 34 6 35 8 39 57 1 28-1 54-7 57-5 4 168 9 385 12l395 5 15 43c16 47 30 55 30 18 0-14 5-28 11-31 6-4 8-13 5-21-4-12 26-14 184-14 105 0 190 2 190 4s12 82 26 177c14 96 27 182 27 193 2 14-10 23-48 36-91 31-135 58-135 83 0 40 14 49 38 27 11-11 26-20 32-20 12 0 13 17 1 24-12 8-25 158-16 185 5 15 14 20 34 18 22-1 39-16 74-63 61-80 192-205 253-239 27-16 56-34 65-42 27-23 192-90 253-103 53-11 63-10 117 11 50 18 71 21 131 15 102-9 296 22 502 80 59 17 69 17 61 4-9-15 0-12 46 12 60 31 172 37 219 11 57-32 52-59-20-126-33-31-70-57-81-57-21 0-60 17-69 30-3 4-16 11-30 15-24 7-24 7-8-11 17-20 30-108 30-204 0-33 7-72 19-99 25-57 24-61-12-61-20 0-29-4-27-12 6-16 98-63 162-83 27-8 54-19 60-24s20-11 30-13c11-1 30-13 44-25 25-23 115-60 217-88 33-9 87-25 120-35s92-26 130-34c117-27 160-39 170-46 15-10 211-58 285-70 36-5 86-10 111-10 26 0 62-6 80-14 19-7 72-19 117-26l84-13 23 26c17 17 39 27 72 31 86 12 324 26 521 33l192 6v168 169h-28c-36 0-45 9-27 26 16 16 29 19 20 4-3-5 3-10 14-10 14 0 21 6 21 20 0 13-7 20-20 20-11 0-20 5-20 10 0 6-14 10-31 10-24 0-30-4-25-15 4-10-1-15-14-15-11 0-20 5-20 10 0 6-11 10-25 10-38 0-30-27 12-42l36-13-64-6c-35-4-114-7-175-8-61 0-124-5-140-10s-64-15-106-22c-43-7-78-16-78-20 0-3-21-14-47-24-27-10-53-23-60-29-31-27-41-34-59-40-10-3-26-1-34 5-12 8-11 9 6 4 18-4 24 0 32 25 6 16 13 30 16 30s2-8-1-18c-6-15-5-15 10-4 13 12 14 42 0 42-16 0-43-24-43-38 0-13-2-14-9-4-10 17-45-52-37-73 3-8-8-23-25-36-26-18-33-19-41-8s-9 10-4-4c12-37-97-44-137-9-10 9-17 11-17 4 0-18-18-14-40 8-28 28-25 40 11 40 27 0 30-3 23-22-3-13-3-20 1-16 5 4 13 3 20-2 6-5 22-12 36-14 13-3 24-5 24-6 0-7 42-7 59 0 20 8 20 9-4 11-14 1-30 2-37 2s-1 15 14 33c27 36 43 43 43 20 0-7 8-20 17-27 10-8 14-9 10-2-4 6-3 14 2 18 6 3 8 12 5 19-3 8 4 31 15 52 12 21 21 35 21 31s8 1 18 11c9 9 29 25 42 34 25 16 24 17-14 5-21-6-40-17-43-24s-11-13-19-13-14-10-15-22c0-13-3-17-6-11-8 21-34-12-26-34 7-17 6-17-12 0-15 16-16 20-4 27 7 5 10 12 7 16-4 3 3 15 15 25 28 23 10 24-24 1-14-9-24-23-22-29 3-7 0-13-6-13s-11-7-11-15c0-21-20-19-21 3 0 10-3 12-6 5-6-15-33-17-33-3 0 5-7 7-16 3-12-4-13-8-3-14s6-11-14-18c-29-11-70-10-99 3-20 9-24 26-7 26 7 0 51 18 98 41 140 66 376 103 376 59 0-8-6-14-13-12-6 1-12-3-12-9 0-5-4-8-9-4-14 8-21-9-10-25 6-10 12-11 17-5 23 33 72 55 124 55 42 0 59 5 73 20 13 14 34 20 79 23 59 3 58 3-16 5-43 1-78 6-78 11 0 6-15 4-32-3-42-17-177-30-228-21-41 7-55 30-25 41 8 4 12 10 9 15-7 13-58 11-71-2-8-8-13-5-18 10-3 12-13 21-21 21s-14 4-14 9 18 9 41 9c23 1 43 3 46 6s-32 5-78 5-97 4-114 9c-22 8-25 11-10 11 11 1 28 10 38 21 9 11 25 20 35 20 25 0 55 34 50 57-2 13-13 18-38 18-19 1-40 4-45 7-15 9-78-20-70-32 4-6 2-17-5-25-9-11-7-16 8-24 11-6 23-7 27-3s6 0 3-8c-8-27-102-34-200-16-80 16-93 16-164 1-42-9-89-22-105-31-29-14-30-14-79 32-28 26-50 49-50 53 0 5 30 22 68 38 12 5 12 2 1-16-8-12-20-19-27-16-9 3-12-1-10-12 4-23 28-29 28-6 0 11 3 14 8 6s12-7 27 4c20 15 20 15-2 8-27-8-30 3-6 20 15 11 15 13-6 24-17 10-28 9-51-1-17-7-30-17-30-21 0-5-12-7-27-5-16 2-28 9-28 17 0 18-21 26-30 12-3-6-22-11-42-11s-33 3-30 7c4 3-1 15-10 25-21 23-3 49 21 29 18-15 68-9 74 9 4 10-5 12-37 7-32-4-40-2-32 7 7 8 4 16-11 25-17 11-22 11-29 0-6-11-11-11-20-2-15 15 49 28 89 18 34-9 57-9 160-1 50 3 91 2 103-4 13-7 19-7 19 0 0 5 5 9 11 7 6-1 13 3 16 10 2 6-12 14-36 18-29 5-41 12-41 23 0 15-2 15-11 2-9-12-10-12-5 4 4 10 2 24-4 31-8 9-4 17 14 29 14 9 28 16 32 16 7 0 1-34-11-62-11-27 10-22 22 5 10 22-1 77-16 77-7 0-52-29-61-40-3-3-18-14-33-24-47-30-42-10 7 24 25 18 43 37 40 41-6 10-34 0-34-11s-90-63-97-56c-11 10-16 96-6 96 6 0 8-12 5-26-3-18-1-25 6-20 6 3 13 2 17-4 3-5 12-10 18-10 7 0 4 7-5 14-26 19-22 31 17 52 19 10 35 21 35 25 0 3 18 14 40 24s40 22 40 27c0 4 11 6 25 2 16-4 25-2 25 6 0 6-5 8-12 4-13-8 4 17 29 44 40 42 419 123 437 94 3-5 17-7 30-5 37 7 215-15 304-38 82-21 202-60 202-65 0-1-16 0-37 3-23 4-34 3-30-4 4-6 23-10 44-9 26 1 65-12 123-40 47-22 103-46 125-53 22-6 92-27 155-45s123-36 133-41c16-7 17 99 17 2144v2151h-3035-3035zm1468 144c15-4 22-14 22-30 0-13 4-24 10-24 5 0 7-7 4-15-9-21-154-22-154 0 0 57 50 87 118 69zm1560-51c-10-2-26-2-35 0-10 3-2 5 17 5s27-2 18-5zm82-32c0-4-6-8-13-8-8 0-14 6-14 13s6 10 14 7c7-3 13-8 13-12zm-470-11c0-5-5-10-11-10-5 0-7 5-4 10 3 6 8 10 11 10 2 0 4-4 4-10zm500 0c0-5-5-10-11-10-5 0-7 5-4 10 3 6 8 10 11 10 2 0 4-4 4-10zm-143-16c-3-3-12-4-19-1-8 3-5 6 6 6 11 1 17-2 13-5zm28-23c-3-6-14-11-23-11-15 1-15 2 2 15 21 16 32 13 21-4zm55-1c8-5 12-12 9-15-8-8-39 5-39 16s11 11 30-1zm47-22c-3-8-6-5-6 6-1 11 2 17 5 13 3-3 4-12 1-19zm-1616-8c10-6 19-21 19-33 0-13-3-17-8-10-8 13-62 6-62-8 0-5 10-7 23-4 18 5 25 0 35-25 8-17 11-38 6-48-5-13-9-8-14 21-7 40-16 54-26 44-4-3 6-34 20-69 15-35 24-50 21-33-8 38 5 26 20-20 9-25 9-37 1-45s-7-11 4-8c10 2 14-3 12-14-2-10 2-18 9-18 6 0 8-7 5-17-4-10-4-14 0-10 5 4 15-7 24-25s33-63 53-100c44-83 59-132 47-161-5-12-9-16-9-9-1 7-5 11-10 7-6-3-9 3-8 14 1 15 4 17 14 9 16-13 17 4 2 19-12 12-49 6-49-8 0-5-6-9-14-9-16 0-31-34-21-50 4-7-40-10-127-10-73 0-176-3-228-6l-96-7-12 27c-17 38-10 60 89 257 88 176 101 216 103 299 1 41 3 45 31 51 49 11 125 10 146-1zm1336-106c-3-3-12-4-19-1-8 3-5 6 6 6 11 1 17-2 13-5zm332-33c26-26 71-251 71-359v-37l-51 53c-27 28-56 52-63 52-8 0-20-29-31-72-22-94-64-198-79-198-24 0-91 127-131 247-31 94-35 166-16 266l13 67h134c118 0 136-2 153-19zm-320-28c-5-21-9-76-9-123 0-71 6-101 34-182 44-129 112-248 141-248 28 0 66 80 92 190 9 41 18 77 20 79 5 7 71-59 99-101 26-37 47-50 42-26-2 6 29 22 67 36 65 23 128 31 273 35 47 1 41 6 125-110 29-40 65-88 80-107 44-54 79-238 81-421l1-140-40-49c-72-89-241-185-440-252-90-30-124-37-188-36-59 0-80-3-84-14-3-8-9-14-14-14-4 0-6 7-3 15 5 13-8 15-82 16-49 0-101 2-116 3s-30-4-32-11c-3-7-2-13 2-13s18-9 32-20c20-16 21-19 5-13-30 10-62 37-58 48 2 6-14 10-34 10-75 1-210 27-298 57-170 58-211 81-302 173-46 46-88 95-94 107-5 13-17 35-25 50-42 76-46 250-8 353 15 39 35 97 47 130 11 33 29 74 41 90 33 49 169 182 162 160-6-20-2-21 91-19 102 3 237-23 258-49 12-15 55-20 55-6 0 5-5 15-10 22-6 7-16 20-23 31-18 24-162 62-252 65-38 1-72 4-74 7-2 2 14 24 35 50 64 77 93 117 110 157 9 20 20 37 24 37 9 0-11-62-23-71-4-3-7-10-5-15 2-8-13-81-29-136-6-26 18-22 42 6 38 44 92 101 118 125 22 20 29 22 42 11 8-7 19-10 23-6s-1 13-10 20c-16 12-15 15 15 42 39 36 63 52 53 36-10-17 3-15 20 3 14 13 14 15 0 15s-14 3 1 20c26 30 32 25 22-17zm-50 23c-50-52-249-254-249-253 1 9 34 114 51 159 20 53 24 58 68 72 69 22 142 34 130 22zm464-14c10-10 14-22 10-26-5-4-2-6 6-4 12 3 99-105 100-125 1-4 16-31 34-60 53-83 53-81-19-100-35-10-76-15-91-11-22 4-25 3-13-6 13-9 12-11-5-8-13 2-21 12-23 28-8 77-46 298-54 313-7 14-4 17 15 17 13 0 31-8 40-18zm67 3c41-3 114-32 126-50s34-162 34-222c0-29-17-30-26-1-7 24-53 98-125 205-50 73-58 90-37 77 7-5 19-9 28-9zm186-72c3-10 28-64 55-121 27-56 49-103 49-105 0-1-24 0-54 1l-54 4-7 88c-4 48-4 98 0 110 5 15 4 20-4 16-6-4-11 0-11 8 0 22 19 20 26-1zm-976 2c0-24-98-148-205-261-72-76-147-160-168-188-22-28-41-53-44-56-9-8 8 101 24 165 9 33 25 77 35 98 11 22 16 42 13 45-12 12-34-30-60-111-36-116-33-284 4-220 18 30 12 9-9-35-11-22-20-45-20-50s-8-24-17-43c-28-53-25-265 5-338l21-54-25-126c-19-89-27-159-27-239l-1-113-26 28c-63 68-140 204-140 248 0 14-4 25-10 25-10 0-16-18-28-90l-8-45-17 91c-10 55-17 142-17 218 0 243 61 433 214 668 31 47 56 89 56 94 0 4 16 26 35 50 41 49 194 149 318 205 83 39 97 43 97 34zm-618-37c-28-28-38-18-11 11 12 12 24 20 27 16 3-3-4-15-16-27zm1723-11c81-42 188-123 267-202 56-56 73-81 116-178 62-140 115-290 137-387 9-41 18-84 21-95 2-11 9-80 14-153 10-142 1-270-24-338l-15-39-1 65c-2 81-15 160-23 140-3-8-11-40-17-70-17-78-65-163-130-231-45-48-127-105-138-95-1 2 5 25 13 52 31 99 48 300 48 541-1 127-6 255-12 285-38 189-50 257-50 287 0 69-31 202-52 226-12 13-12 7 11-87 11-46 20-101 20-122v-40l-22 24c-13 13-27 32-33 41-5 9-31 45-56 80-57 79-100 156-145 260-39 93-39 93 71 36zm10 33c3-6-1-7-9-4-18 7-21 14-7 14 6 0 13-4 16-10zm545-30c8-5 11-10 5-10-5 0-17 5-25 10s-10 10-5 10c6 0 17-5 25-10zm-73-26c-3-3-12-4-19-1-8 3-5 6 6 6 11 1 17-2 13-5zm-2477-279c0-9-6-12-15-9-8 4-12 10-9 15 8 14 24 10 24-6zm-320-160c35-18 36-22 11-54l-18-24-24 21c-26 25-48 28-71 10-23-19-31-70-15-92 14-19 15-19 55 2 41 21 42 21 52 2 5-10 10-21 10-24 0-8-77-46-93-46-22 0-55 43-58 75-9 106 69 172 151 130zm350-6c0-4-5-11-11-15-10-6-59-106-59-120 0-6 34 0 64 12 12 5 16 0 16-19 0-29-16-37-75-37-52 0-57 9-45 87 13 93 14 94 98 99 6 0 12-3 12-7zm-187-89c42-59-49-135-97-81-33 36 6 101 61 101 12 0 28-9 36-20zm-293-212c0-42-13-63-34-55-25 10-29 33-11 61 24 37 45 33 45-6zm73-623c16-15 27-34 27-50 0-21-5-25-29-25-16 0-42-5-57-10-38-15-57 4-51 49 3 33 31 145 60 246 11 37 12 33 17-73 5-109 6-115 33-137zm484 212c50-21 52-24 68-82 10-33 24-72 31-87 13-25 3-41-11-19-3 6-38 31-77 58-39 26-75 50-79 53-3 3-10 29-14 59-8 61-15 60 82 18zm143-92c0-7 27-55 61-105s59-94 56-97c-6-6-62 26-112 63-29 22-30 25-27 93 2 40 8 69 13 65 5-3 9-11 9-19zm3098-75c20-1 23-3 12-9-20-11-97-2-79 10 8 5 20 7 27 4 8-3 26-5 40-5zm-2053-20c3-6-1-7-9-4-18 7-21 14-7 14 6 0 13-4 16-10zm1934 6c-2-2-26-6-54-10-34-4-43-3-30 3 19 9 93 15 84 7zm-2011-26c46-28 40-34-10-8-53 26-55 28-37 28 8 0 29-9 47-20zm2382 4c0-2-9-4-20-4s-20 4-20 9 9 7 20 4 20-7 20-9zm-2145-14c-27-12-35-12-35 0 0 6 12 10 28 9 24 0 25-1 7-9zm-100-10c-3-5-11-10-16-10-6 0-7 5-4 10 3 6 11 10 16 10 6 0 7-4 4-10zm-10-24c11-3 2-3-19-1-22 2-44 9-50 15-7 7-2 8 19 1 17-5 39-12 50-15zm-125-100c0-2-8-10-17-17-16-13-17-12-4 4s21 21 21 13zm1460-51c-26-27-42-33-34-11 4 11 37 33 53 35 3 1-6-10-19-24zm-3026-57c9-35 7-118-3-118-14 0-21 28-21 86 0 55 13 72 24 32zm2655-109 53-51-36-34c-19-19-44-34-55-34-26 0-110 60-111 80 0 13 76 89 91 90 3 0 29-23 58-51zm461 11c0-5-4-10-10-10-5 0-10 5-10 10 0 6 5 10 10 10 6 0 10-4 10-10zm-355-79c-28-25-121-82-143-88-14-3-37-12-51-19-14-8-34-14-43-14s-20-5-23-10c-4-6-10-8-15-5s-27-3-49-15c-48-24-58-25-41-6 6 8 28 20 47 27 19 6 44 20 54 30 12 12 32 19 52 18 18 0 45 2 61 6 33 7 86 41 86 55 0 5 7 6 17 3 10-4 14-2 10 4-7 12 7 21 33 22 8 1 10-2 5-8zm75-1c0-5 12-13 26-16 30-8 19-25-18-29-13-1-26-3-30-4-5 0-8-9-8-20 0-10-9-21-20-24-13-3-20 0-20 9 0 8-6 11-16 7-15-5-15-7-1-15 9-5 14-15 10-24-4-11 3-10 30 6 39 23 54 20 67-14 7-19 14-22 47-18l38 4-27-29c-16-16-28-32-28-36 0-16 28-5 50 18 23 25 40 32 40 17 0-4-17-19-38-32-34-22-37-27-28-47 6-13 17-23 25-23 7 0 11-6 8-13-3-8 1-14 9-14 9 0 10 5 5 15-5 8-7 24-5 36 3 12 2 15-2 8-3-6-10-9-15-6-9 5 57 63 74 64 4 0 7-11 7-24s6-27 13-29c7-3 4-6-6-6-10-1-16-5-12-11 3-5 12-7 19-4 14 6 33-32 22-43-3-4-6-1-6 5 0 7-9 3-20-8-13-13-33-20-57-20-35 0-40 4-66 50-16 28-32 50-37 50s-7 7-4 15c4 8 1 15-6 15-6 0-9-4-6-9 3-4-12-26-34-48-34-36-46-41-100-47-34-4-101-16-148-26-48-10-88-14-90-9s-10 9-18 9-24 10-36 22c-21 21-21 22-2 29 18 7 18 8-2 8-17 1-52 47-42 56 14 11 64 31 137 55 106 34 193 78 246 124 39 34 75 47 75 26zm-443-122c-3-8-6-5-6 6-1 11 2 17 5 13 3-3 4-12 1-19zm1283 3c0-5 18-7 40-4 41 6 48-1 27-28-14-18-107-27-107-10 0 6 5 11 11 11s8 9 4 20c-5 14-2 20 9 20 9 0 16-4 16-9zm-576-110c24-25 26-32 15-43-26-25-45-19-63 19-14 29-15 38-4 44 19 13 22 12 52-20zm371-1c17-5 76-13 133-19 150-14 203-52 151-108-27-28-189-110-237-119-25-5-32-3-32 10 0 9-4 16-9 16s-12 11-15 25c-4 14-11 25-16 25-6 0-10 6-10 13 0 12-18 37-75 102-24 27-26 28-22 7 3-12 1-20-3-17-5 3-11 1-15-5s6-10 22-11c23-1 20-3-12-9-45-9-86 5-78 26 3 10 0 12-10 8-9-3-25 0-37 6-32 17-10 35 70 54 65 15 137 14 195-4zm-240-91c33-21 73-41 89-45 26-6 146-109 146-126 0-13-112-30-155-23-24 3-63 19-86 34-24 16-63 35-86 42-23 6-51 22-63 34-17 18-19 26-10 51 12 31 79 86 95 76 5-3 37-22 70-43zm-175-14c-7-8-16-30-19-48-9-41-41-51-41-12 0 36 17 64 43 74 28 11 33 6 17-14zm-640-8c0-7-4-6-10 3-8 12-10 12-10 1 0-8-3-12-6-8-9 9 6 28 17 22 5-4 9-12 9-18zm550-7c0-5-4-10-10-10-5 0-10 5-10 10 0 6 5 10 10 10 6 0 10-4 10-10zm441-37c13-16 12-17-3-4-17 13-22 21-14 21 2 0 10-8 17-17zm389 13c0-2-7-7-16-10-8-3-12-2-9 4 6 10 25 14 25 6zm-906-40c-3-15-8-25-11-23-2 3-1 17 3 31 3 15 8 25 11 23 2-3 1-17-3-31zm1798 24c83 0 30-8-92-15-161-8-273-22-385-47-136-31-187-57-333-165-42-32-82-43-82-24 0 5 15 18 34 29 18 11 45 30 60 43s39 24 53 24c15 0 27 6 29 13 1 7 0 8-3 2-2-5-12-10-21-10-15 1-15 2 1 15 11 7 25 11 33 8 9-3 14 0 12 7s3 15 11 18c9 3 11 0 6-8s-3-11 6-8c8 3 13 12 13 21-2 21 126 63 138 44 5-8 8-7 8 6 0 9 7 17 16 17 8 0 12-4 9-10-3-5-1-10 4-10 6 0 11 7 11 15 0 10 11 16 33 17 17 1 48 3 67 5 84 8 306 19 318 16 8-2 32-3 54-3zm-2088-19c4-5-3-7-14-4-23 6-26 13-6 13 8 0 17-4 20-9zm501-40c43-15 50-22 53-47 2-20 0-25-6-16-5 8-13 13-18 13-20-2-48 13-77 40-34 33-24 35 48 10zm1468 12c-7-2-21-2-30 0-10 3-4 5 12 5 17 0 24-2 18-5zm-138-13c-11-5-47-8-80-8l-60 1 50 7c28 4 64 7 80 8 25 0 27-1 10-8zm-199-35c-28-26-42-33-31-15 3 6-2 10-12 11-14 0 26 17 66 28 2 1-8-10-23-24zm-1005-25c5 0 9-4 9-10 0-5-11-10-25-10-20 0-25 5-25 26 0 23 1 24 16 10 8-9 20-16 25-16zm920-2c-41-7-140-51-151-68-8-11-51-32-56-27-7 7 84 63 145 90 33 14 64 22 80 18 22-4 20-6-18-13zm-1266-8c3-6-1-7-9-4-18 7-21 14-7 14 6 0 13-4 16-10zm623-17c-4-34-37-43-62-17-16 16-16 17 6 29 41 23 60 18 56-12zm392 2c0-2-7-5-15-9-9-3-15 0-15 9s6 12 15 9c8-4 15-7 15-9zm-570-5c20-6 21-8 5-8-11 0-33 4-50 8-27 7-27 8-5 8 14 0 36-4 50-8zm90 5c0-2-9-9-20-15-12-6-20-7-20-1 0 5 8 12 18 14 9 3 18 5 20 6 1 0 2-1 2-4zm867-51c-3-3-12-4-19-1-8 3-5 6 6 6 11 1 17-2 13-5zm340-30c-3-3-12-4-19-1-8 3-5 6 6 6 11 1 17-2 13-5zm-120-11c-20-2-52-2-70 0-17 2 0 4 38 4 39 0 53-2 32-4zm-1210-9c-3-3-12-4-19-1-8 3-5 6 6 6 11 1 17-2 13-5zm608-13c-3-6-16-11-28-11-21 0-21 1 3 13 27 15 36 14 25-2zm72-1c4-13 3-13-5-1-9 12-13 12-26 2-9-8-16-9-16-4 0 27 40 29 47 3zm320 14c-3-3-12-4-19-1-8 3-5 6 6 6 11 1 17-2 13-5zm-230-10c-3-3-12-4-19-1-8 3-5 6 6 6 11 1 17-2 13-5zm676-1c-7-2-19-2-25 0-7 3-2 5 12 5s19-2 13-5zm-716-9c-3-3-12-4-19-1-8 3-5 6 6 6 11 1 17-2 13-5z"/><path d="m1401 3861c-11-7-9-10 8-16 24-7 44 2 36 16-8 11-26 11-44 0z"/><path d="m2742 3249c2-7 10-15 17-17 8-3 12 1 9 9-2 7-10 15-17 17-8 3-12-1-9-9z"/><path d="m2520 3169c0-11-5-29-11-40-9-17-17-19-52-14-39 6-43 4-59-23-10-17-18-49-18-72 0-102 58-145 195-144 69 0 87 4 127 28 57 33 73 67 65 143-10 93-75 143-188 143-53 0-59-2-59-21zm101-85c10-37 18-48 40-56 41-14 38-43-6-59-19-7-35-16-35-19s-6-14-13-24c-11-15-17-17-35-7-12 6-22 20-22 31 0 15-10 20-45 26-25 3-45 10-45 14 0 10 31 36 53 43 9 4 20 15 23 24 20 63 27 73 50 73 20 0 26-8 35-46zm67-145c-2-6-8-10-13-10s-11 4-13 10 4 11 13 11 15-5 13-11z"/><path d="m3420 3152c0-36-25-55-68-54-34 2-44-3-61-26-30-43-34-75-17-135 14-48 20-56 57-72 111-51 300 20 325 120 11 43-5 90-40 124-54 53-196 84-196 43zm68-44c5-7 12-24 14-37 2-18 12-27 36-33 39-10 41-32 5-50-16-8-31-27-38-48-9-27-18-36-38-38-21-3-29 2-36 21-6 16-21 28-40 32-45 10-39 36 14 69 35 23 45 35 45 56 0 39 18 52 38 28zm99-164c8-21-13-42-28-27-13 13-5 43 11 43 6 0 13-7 17-16z"/><path d="m2391 2874c0-11 3-14 6-6 3 7 2 16-1 19-3 4-6-2-5-13z"/><path d="m2311 2862c-7-7-10-16-7-19 7-8 56 17 56 28 0 12-35 6-49-9z"/><path d="m2980 2864c0-9 5-14 12-12 18 6 21 28 4 28-9 0-16-7-16-16z"/><path d="m2359 2839c-8-5-30-8-49-7s-43-3-52-8c-11-6 11-10 71-12 67-2 91 1 100 12 7 8 8 16 4 19-13 8-60 5-74-4z"/><path d="m3497 2833c-10-10-8-51 3-58 5-3 20 0 32 6 13 7 35 12 51 11 17-2 27 3 27 11 0 23-12 28-34 14-12-8-34-17-51-21-28-6-29-5-11 8 10 8 15 19 11 25-7 12-19 14-28 4z"/><path d="m3407 2823c-15-15-6-31 14-26 14 4 17 8 9 13-9 6-9 9 1 13 11 4 10 6-2 6-9 1-19-2-22-6z"/><path d="m3645 2817c-4-10-3-23 3-29 14-14 21 3 12 27-7 19-8 19-15 2z"/><path d="m2491 2801c-12-22-5-27 19-11 11 7 12 12 3 21-8 8-14 6-22-10z"/><path d="m2391 2784c0-11 3-14 6-6 3 7 2 16-1 19-3 4-6-2-5-13z"/><path d="m2526 2775c-7-19 3-19 28 0 19 15 19 15-1 15-11 0-23-7-27-15z"/><path d="m2587 2706c-32-24-67-130-67-199 0-74 8-85 87-116 47-18 99-29 308-60 65-10 146-15 210-13 22 1 99 2 170 4 116 3 134 6 168 26 57 36 72 72 71 172-1 68-6 96-25 138-21 47-27 53-49 48-14-3-56-12-95-20-91-20-105-20-173 4-52 19-65 20-148 9-68-8-100-8-130 1-62 18-305 23-327 6zm573-86c0-5-24-10-53-10s-58-5-65-12-12-8-12-4c0 5-11 1-24-7-23-16-106-13-106 3 0 4-11 8-25 8-23 0-24-2-8-14 10-7 33-14 51-14s41-7 49-16c15-15 12-16-33-13l-49 4-3-72-3-73h40c28 0 40 5 43 16 2 13 8 11 33-10 17-14 33-26 38-26 4 0 7-4 7-9 0-4-11-6-25-3-14 2-22 8-20 12 3 5-7 7-22 5-16-2-37-4-48-5-36-1 5-17 63-23 41-5 54-3 59 8 3 8 14 15 25 15 14 0 18 5 14 16-3 9-6 29-6 45 0 22-5 29-19 29-13 0-21-8-23-22-3-22-3-22-22-2-20 19-20 19 2 22 18 3 22 10 22 43v39l56-1c31-1 59 3 63 9 3 6 15 9 26 7s29-4 40-5c17-2 16-3-5-10-19-6-9-8 38-9 35-1 73 4 85 10 12 7 19 8 15 4-12-13 10-43 34-47 20-3 36-38 17-38-17 0-9-18 11-23s28-27 10-27c-5 0-10 5-10 11 0 5-4 7-10 4-5-3-10-1-10 4 0 6-9 11-20 11-15 0-20-7-20-25 0-16 6-25 16-25 8 0 13-4 10-9s12-8 33-7c22 0 37 4 35 7-2 4 2 10 8 12 10 4 10 8-1 15-12 8-11 13 2 32 9 13 17 17 22 11 3-6 1-11-4-11-6 0-11-7-11-16 0-13 3-14 14-5 15 13 18 54 4 45-4-3-8 2-8 10 0 9 5 16 10 16 6 0 11 8 11 18 1 9 4 4 8-13 8-36-2-79-23-101-9-8-16-19-16-24 0-18-54-27-76-13-15 10-28 11-45 4-22-9-22-10 10-10 19-1 32-4 29-7-11-10-68-15-68-6 0 5-11 7-25 4-40-7-29 14 13 24 35 8 33 9-28 10-40 0-55-2-40-6 24-7 24-8-12-24-55-24-179-22-338 4-30 5-83 12-117 15-35 4-63 12-63 17 0 6-9 8-20 5s-38 2-60 11l-40 17 3 62c2 50 0 63-12 66-22 4 113 36 174 41 28 2 57 7 65 10 57 22 340 36 340 16zm150-26c37-13 36-14-19-19-21-2-29 0-20 6 26 16 2 19-34 4-21-8-37-11-37-6s6 12 13 15c6 3 0 3-15 0-16-4-28-2-28 4 0 24 71 22 140-4zm100-24c0-12-8-12-35 0-18 8-17 9 8 9 15 1 27-3 27-9zm-848-62c3-24 8-52 13-63 7-19 7-19-10-3-20 19-33 108-17 108 6 0 12-19 14-42zm908 31c0-5 5-7 10-4 6 3 10-2 10-11 0-16-2-15-22 2-13 10-25 20-27 21-2 2 3 3 12 3 10 0 17-5 17-11zm0-45c0-8-4-12-10-9-5 3-10 10-10 16 0 5 5 9 10 9 6 0 10-7 10-16zm-17-39c-7-21-13-19-13 6 0 11 4 18 10 14 5-3 7-12 3-20z"/><path d="m2935 2600c3-5 10-10 16-10 5 0 9 5 9 10 0 6-7 10-16 10-8 0-12-4-9-10z"/><path d="m2751 2581c-11-7-6-11 20-14 19-2-1-4-44-3-56 1-80-3-86-13-7-11-9-11-13 0-3 9-6 8-11-4-4-11-1-17 8-17 19 0 19-14 0-30s-19-26-1-33c24-10 56 4 56 24 0 11 7 19 15 19 20 0 19 17-1 28-14 8-14 10 2 16 11 4 20 2 22-3 5-14 69-14 78 0 3 6 17 8 31 4 16-4 22-2 18 5-3 5-15 10-26 10-10 0-19 5-19 10 0 12-30 13-49 1z"/><path d="m2700 2471c12-9 10-11-12-11-14 0-28-6-31-12-4-10-7-10-18 0-24 22-29 13-7-13 13-15 32-25 49-25 15 0 31-4 34-10 3-5 23-9 43-9 20 1 29 3 20 6-13 3-18 15-18 39 0 27-4 34-19 34-11 0-28 3-38 6-15 5-15 4-3-5zm-10-41c0-5-7-10-15-10s-15 5-15 10c0 6 7 10 15 10s15-4 15-10z"/><path d="m2800 2389c0-5 23-9 52-9 28 0 49 3 45 6-9 10-97 12-97 3z"/><path d="m3111 2383c12-14 7-16-28-13-13 1-23-3-23-9 0-7 21-11 53-10 38 1 45 3 27 8l-25 7 25 7c14 4 36 7 49 7s21 3 17 8c-10 10-66 10-66 0 0-4-5-8-11-8-5 0-8 4-5 8 3 5-1 9-9 9-11 0-12-4-4-14z"/><path d="m3418 2373c7-3 16-2 19 1 4 3-2 6-13 5-11 0-14-3-6-6z"/><path d="m3183 2363c9-2 23-2 30 0 6 3-1 5-18 5-16 0-22-2-12-5z"/><path d="m2400 2559c0-5 5-7 10-4 6 3 10 8 10 11 0 2-4 4-10 4-5 0-10-5-10-11z"/><path d="m3265 2270c-4-6-2-17 4-23 15-15 25-2 13 19-7 12-11 13-17 4z"/><path d="m3242 3559c2-7 10-15 17-17 8-3 12 1 9 9-2 7-10 15-17 17-8 3-12-1-9-9z"/><path d="m3274 3434c-18-14-18-15 6-8 14 3 32 10 40 15 12 7 11 8-6 9-11 0-29-7-40-16z"/><path d="m1437 2883c-15-14-7-43 12-43 24 0 33 13 25 34-6 16-25 21-37 9z"/><path d="m3814 1527c-11-12-12-17-4-11s22 13 30 16c9 3 10 7 3 11-6 4-19-3-29-16z"/><path d="m4000 1540c-8-5-10-10-5-10 6 0 17 5 25 10s11 10 5 10c-5 0-17-5-25-10z"/><path d="m4098 1514c-10-9 4-45 16-41 17 5 20 47 3 47-7 0-16-3-19-6z"/><path d="m3878 1483c7-3 16-2 19 1 4 3-2 6-13 5-11 0-14-3-6-6z"/><path d="m4069 1483c0-5-2-18-5-30-2-13 1-23 6-23 6 0 10 14 10 30 0 26-9 44-11 23z"/><path d="m4157 1484c-13-13-7-20 18-22 14-1 25 3 25 9s-6 9-14 6-16-1-18 4c-2 6-7 7-11 3z"/><path d="m3858 1463c7-3 16-2 19 1 4 3-2 6-13 5-11 0-14-3-6-6z"/><path d="m4133 1459c3-9 0-22-6-28-8-8-8-11 0-11 16 0 23 25 11 41-8 11-9 11-5-2z"/><path d="m3775 1450c-3-5-1-10 4-10 6 0 11 5 11 10 0 6-2 10-4 10-3 0-8-4-11-10z"/><path d="m3735 1440c-3-6 1-7 9-4 18 7 21 14 7 14-6 0-13-4-16-10z"/><path d="m3721 1404c0-11 3-14 6-6 3 7 2 16-1 19-3 4-6-2-5-13z"/><path d="m4290 1355c0-8 4-15 10-15 5 0 7 7 4 15-4 8-8 15-10 15s-4-7-4-15z"/><path d="m3808 1323c7-3 16-2 19 1 4 3-2 6-13 5-11 0-14-3-6-6z"/><path d="m4490 1310c0-5 5-10 10-10 6 0 10 5 10 10 0 6-4 10-10 10-5 0-10-4-10-10z"/><path d="m4541 1284c0-11 3-14 6-6 3 7 2 16-1 19-3 4-6-2-5-13z"/><path d="m5598 1223c6-2 18-2 25 0 6 3 1 5-13 5s-19-2-12-5z"/><path d="m5448 1183c7-3 16-2 19 1 4 3-2 6-13 5-11 0-14-3-6-6z"/><path d="m5378 1163c7-3 16-2 19 1 4 3-2 6-13 5-11 0-14-3-6-6z"/><path d="m5195 1050c-3-5-1-10 4-10 6 0 11 5 11 10 0 6-2 10-4 10-3 0-8-4-11-10z"/><path d="m4940 2053c0-17 117-66 137-58 16 6 14 9-12 21l-30 13 28 1c16 0 38-5 50-12 21-11 21-10 7 7s-13 18 7 13c13-4 26-2 29 4 4 6-23 9-72 8-44-1-94 1-111 5-19 4-33 3-33-2z"/><path d="m4875 2029c-13-5-15-8-5-8 13-1 13-2 0-11-9-6-10-10-3-10 6 0 15 5 18 10 3 6 16 10 28 10 20 0 20 0 2-14-18-13-18-14 8-9 15 3 27 9 27 13 0 14-54 27-75 19z"/><path d="m5208 2033c7-3 16-2 19 1 4 3-2 6-13 5-11 0-14-3-6-6z"/><path d="m5270 2020c-9-6-10-10-3-10 6 0 15 5 18 10 8 12 4 12-15 0z"/><path d="m4965 2000c3-5 8-10 11-10 2 0 4 5 4 10 0 6-5 10-11 10-5 0-7-4-4-10z"/><path d="m5338 2003c6-2 18-2 25 0 6 3 1 5-13 5s-19-2-12-5z"/><path d="m4645 1988c11-6 21-12 23-14 2-1-4-15-13-31l-17-28 21 24c12 13 20 30 17 37s0 15 7 17-4 4-23 5c-31 1-32-1-15-10z"/><path d="m5072 1982c-12-2-20-8-17-13 6-9 54-2 67 10 8 7-12 8-50 3z"/><path d="m5158 1983c7-3 16-2 19 1 4 3-2 6-13 5-11 0-14-3-6-6z"/><path d="m5200 1975c-36-7-78-17-95-23-49-16-4-27 53-12 83 21 92 22 92 5 0-8-11-25-25-37-32-28-32-38 3-38 18 0 38 11 57 30 21 22 38 30 62 30 20 0 32 4 28 10-3 6-16 10-28 10s-28 9-35 20c-14 23-22 23-112 5z"/><path d="m5340 1985c0-10 29-24 34-17 3 6-3 12-14 15s-20 4-20 2z"/><path d="m5400 1978c0-12 7-18 23-17 15 0 17 2 7 6-8 3-18 11-22 17-5 7-8 4-8-6z"/><path d="m4668 1920c-35-37-52-60-44-63 7-3 25 6 40 19 24 23 29 24 61 13 26-10 38-10 47-1 8 8 5 14-15 23-22 10-25 16-20 40 3 16 2 29-3 29-5-1-34-27-66-60z"/><path d="m4767 1956c-3-8-2-18 4-22 16-9 22 2 11 21-8 15-10 16-15 1z"/><path d="m5190 1930c-8-5-10-10-5-10 6 0 3-5-5-10s-10-10-4-10 19 9 29 20c19 21 11 27-15 10z"/><path d="m5455 1930c28-12 55-12 55 0 0 6-17 10-37 9-31 0-34-2-18-9z"/><path d="m5550 1920c-11-7-9-11 13-19 34-13 57-14 57-2 0 5-7 12-16 15-8 3-12 2-9-4 7-12 3-12-19-4-9 3-13 10-10 15 7 11 3 11-16-1z"/><path d="m4610 1900c0-5 7-7 15-4 8 4 15 8 15 10s-7 4-15 4-15-4-15-10z"/><path d="m4908 1887c-15-19-19-20-29-7-9 13-10 13-6-1 4-12-7-24-39-40-67-36-57-55 12-22 34 17 37 17 49 0 7-9 10-29 7-43-4-23-2-25 24-22s29 7 32 41c2 21-2 45-9 53-13 16-6 25 26 37 15 6 1 17-26 22-16 3-30-3-41-18z"/><path d="m4455 1878c-11-7-26-18-33-25s-19-13-27-13c-18 0-24-22-11-36 8-8 17-9 29-2 15 8 16 12 6 24-11 13-8 14 17 9 16-4 35-8 42-11 7-2 10 1 7 6-3 6-18 10-33 11-27 0-27 0-4 10 31 12 59 39 40 39-7 0-22-6-33-12zm-50-58c3-5 1-10-4-10-6 0-11 5-11 10 0 6 2 10 4 10 3 0 8-4 11-10z"/><path d="m4798 1883c7-3 16-2 19 1 4 3-2 6-13 5-11 0-14-3-6-6z"/><path d="m5000 1880c-8-5-11-12-7-16s13-2 19 4c15 15 7 24-12 12z"/><path d="m5305 1880c-3-5 1-10 9-10 9 0 16 5 16 10 0 6-4 10-9 10-6 0-13-4-16-10z"/><path d="m4679 1864c-12-16-12-17 3-11 9 3 19 1 21-6s8-9 13-4c4 4 1 14-7 23-14 13-17 13-30-2z"/><path d="m5633 1873c9-2 25-2 35 0 9 3 1 5-18 5s-27-2-17-5z"/><path d="m4788 1858c10-13 10-17 0-21-9-4-9-6-1-6 20-2 24 16 5 30-15 13-16 12-4-3z"/><path d="m5698 1863c7-3 16-2 19 1 4 3-2 6-13 5-11 0-14-3-6-6z"/><path d="m5615 1850c-25-11 1-11 35 0 20 6 21 8 5 8-11 0-29-3-40-8z"/><path d="m5200 1846c0-9 37-12 55-5 15 6 11 8-17 8-21 1-38-1-38-3z"/><path d="m5738 1843c6-2 18-2 25 0 6 3 1 5-13 5s-19-2-12-5z"/><path d="m4598 1833c7-3 16-2 19 1 4 3-2 6-13 5-11 0-14-3-6-6z"/><path d="m4990 1810c0-11 4-20 9-20s7 9 4 20-7 20-9 20-4-9-4-20z"/><path d="m5475 1820-20-9 20 1c11 0 34 4 50 8l30 8h-30c-16 0-39-3-50-8z"/><path d="m4848 1803c-19-5-24-28-9-37 5-3 11 4 14 15 3 12 10 18 16 14 6-3 11-1 11 4 0 11-3 12-32 4z"/><path d="m5410 1799c0-6-9-8-22-4-19 5-20 4-6-5 9-5 23-7 32-4 18 7 22 24 6 24-5 0-10-5-10-11z"/><path d="m5885 1800c-3-5 3-10 14-10 12 0 21-4 21-9s10-7 21-4c21 6 21 6-2 19-29 16-46 17-54 4z"/><path d="m4743 1790c-27-11-28-16-6-38 16-16 16-16 10 0-4 12 1 23 16 33 24 17 15 19-20 5z"/><path d="m5308 1793c6-2 18-2 25 0 6 3 1 5-13 5s-19-2-12-5z"/><path d="m4545 1780c-3-5-1-10 4-10 6 0 11 5 11 10 0 6-2 10-4 10-3 0-8-4-11-10z"/><path d="m4490 1754c0-8 5-12 10-9 6 3 10 10 10 16 0 5-4 9-10 9-5 0-10-7-10-16z"/><path d="m5308 1763c6-2 18-2 25 0 6 3 1 5-13 5s-19-2-12-5z"/><path d="m5860 1760c-8-5-10-10-5-10 6 0 17 5 25 10s11 10 5 10c-5 0-17-5-25-10z"/><path d="m5710 1752c0-5 9-12 21-15 13-3 19-1 16 6-5 15-37 22-37 9z"/><path d="m4705 1740c3-5 8-10 11-10 2 0 4 5 4 10 0 6-5 10-11 10-5 0-7-4-4-10z"/><path d="m5258 1743c7-3 16-2 19 1 4 3-2 6-13 5-11 0-14-3-6-6z"/><path d="m4935 1730c-3-5-1-10 4-10 6 0 11 5 11 10 0 6-2 10-4 10-3 0-8-4-11-10z"/><path d="m5190 1731c0-5 9-7 20-4s20 7 20 9-9 4-20 4-20-4-20-9z"/><path d="m4895 1720c-3-5-1-10 4-10 6 0 11 5 11 10 0 6-2 10-4 10-3 0-8-4-11-10z"/><path d="m5138 1713c-10-2-18-8-18-13 0-10 38-1 46 11 5 9 1 10-28 2z"/><path d="m5666 1711c-19-7-19-8 2-13 12-4 20-2 17 2-3 5 7 11 22 13 26 4 26 4 3 5-14 0-34-3-44-7z"/><path d="m2384 1674c6-62 49-244 59-244s3 36-23 130c-10 36-23 85-29 110l-10 45z"/><path d="m4706 1691c-4-6-1-11 6-11 10 0 10-2-1-9-8-5-9-11-3-15 13-8 22 17 12 33-5 9-10 10-14 2z"/><path d="m4625 1680c-4-6-2-17 4-24 13-16-16-46-46-49-11 0-20-7-20-15 0-26 44-6 127 56 6 5-39 42-51 42-4 0-11-5-14-10z"/><path d="m5467 1669c7-7 15-10 18-7s-2 9-12 12c-14 6-15 5-6-5z"/><path d="m5508 1673c7-3 16-2 19 1 4 3-2 6-13 5-11 0-14-3-6-6z"/><path d="m5032 1660c-12-5-28-7-35-4-8 3-14-2-14-11 0-18 2-18 52 5 41 19 39 26-3 10z"/><path d="m5375 1661c-3-5-1-12 5-16 5-3 10 1 10 9 0 18-6 21-15 7z"/><path d="m5430 1650c14-11 29-20 34-20s-3 9-17 20-29 20-34 20c-4 0 3-9 17-20z"/><path d="m4555 1641c-3-5-1-12 4-15 13-8 42 4 35 15-7 12-31 12-39 0z"/><path d="m4265 1630c3-5 11-10 16-10 6 0 7 5 4 10-3 6-11 10-16 10-6 0-7-4-4-10z"/><path d="m4438 1633c7-3 16-2 19 1 4 3-2 6-13 5-11 0-14-3-6-6z"/><path d="m4480 1630c0-5 7-7 15-4 9 4 15 0 15-10 0-18 25-22 35-6 3 6-1 10-9 10-9 0-16 5-16 10 0 6-9 10-20 10s-20-4-20-10z"/><path d="m4695 1630c-3-5-1-10 4-10 6 0 11 5 11 10 0 6-2 10-4 10-3 0-8-4-11-10z"/><path d="m4916 1615c-11-8-15-15-10-15 6 0 14 4 20 9 5 5 18 11 29 14l20 5-20 1c-11 0-29-6-39-14z"/><path d="m5335 1620c-18-8-17-9 8-9 16-1 26 3 22 9-3 6-7 10-8 9-1 0-11-4-22-9z"/><path d="m5224 1605c-17-13-17-14-1-15 9 0 17 5 17 10 0 16 32 12 52-7 10-9 18-11 18-5 0 13-32 32-52 32-8 0-23-7-34-15z"/><path d="m6038 1613c6-2 18-2 25 0 6 3 1 5-13 5s-19-2-12-5z"/><path d="m4645 1601c-3-6 4-9 15-8s20 5 20 9c0 11-28 10-35-1z"/><path d="m4315 1590c3-5-9-14-27-19l-33-9 33-1c17-1 32 1 32 3s3 11 6 20 1 16-6 16c-6 0-9-4-5-10z"/><path d="m5150 1580c0-5 7-10 16-10 8 0 12 5 9 10-3 6-10 10-16 10-5 0-9-4-9-10z"/><path d="m5823 1583c9-2 23-2 30 0 6 3-1 5-18 5-16 0-22-2-12-5z"/><path d="m5933 1583c26-2 68-2 95 0 26 2 4 3-48 3s-74-1-47-3z"/><path d="m4410 1570c-8-5-10-10-5-10 6 0 17 5 25 10s11 10 5 10c-5 0-17-5-25-10z"/><path d="m4500 1571c0-10 50-25 58-16 3 3-2 5-11 5s-17 5-17 10c0 6-7 10-15 10s-15-4-15-9z"/><path d="m5116 1571c-3-5 1-12 10-15 20-8 29-1 19 13-8 13-22 14-29 2z"/><path d="m4815 1560c-3-6 1-7 9-4 18 7 21 14 7 14-6 0-13-4-16-10z"/><path d="m4235 1550c3-5 8-10 11-10 2 0 4 5 4 10 0 6-5 10-11 10-5 0-7-4-4-10z"/><path d="m5875 1550c-33-6-27-7 35-8 51 0 67 3 50 8-29 9-33 9-85 0z"/><path d="m4745 1530c-13-6-15-9-5-9 8 0 22 4 30 9 18 12 2 12-25 0z"/><path d="m5328 1491c-53-19-70-31-45-31 8 0 37 11 64 25 56 28 48 31-19 6z"/><path d="m5713 1503c9-2 23-2 30 0 6 3-1 5-18 5-16 0-22-2-12-5z"/><path d="m4670 1490c-9-6-10-10-3-10 6 0 15 5 18 10 8 12 4 12-15 0z"/><path d="m5500 1474c-25-13-51-28-57-34-7-6-23-15-35-20-17-6-19-9-6-9 18-1 82 32 109 55 8 8 21 14 27 14s14 5 17 10c9 15-5 11-55-16z"/><path d="m5648 1491c-1-4-25-18-53-31-27-12-45-24-39-27 7-2 32 8 57 22s53 25 61 25c9 0 16 5 16 10 0 12-37 13-42 1z"/><path d="m5837 1488c2-5-7-8-20-8-34 0-139-48-132-60 3-6 16-10 28-9 20 1 20 2-3 9-21 7-19 8 16 9 34 1 174 54 174 66 0 2-15 3-34 2s-32-5-29-9z"/><path d="m4610 1476c0-2 7-7 16-10 8-3 12-2 9 4-6 10-25 14-25 6z"/><path d="m4597 1459c7-7 15-10 18-7s-2 9-12 12c-14 6-15 5-6-5z"/><path d="m5920 1462c0-6 5-12 12-14 28-10-6-27-45-24-48 4-70-4-41-15 17-7 17-8 1-8-10-1-28 4-39 10-16 9-19 8-16-3 4-10 34-13 132-13 103 0 123 2 109 13-9 6-23 12-30 12s-13 5-13 11-7 8-15 5c-11-4-15 0-13 12 2 11-5 18-19 20-13 2-23-1-23-6z"/><path d="m4435 1450c-3-6 1-7 9-4 18 7 21 14 7 14-6 0-13-4-16-10z"/><path d="m5885 1440c28-12 47-12 40 0-3 6-18 10-33 9-24 0-25-1-7-9z"/><path d="m4450 1426c0-2 7-7 16-10 8-3 12-2 9 4-6 10-25 14-25 6z"/><path d="m5155 1370c-39-7-38-7 15-7 30-1 69 3 85 7 27 7 25 8-15 7-25 0-63-3-85-7z"/><path d="m5603 1353c9-2 25-2 35 0 9 3 1 5-18 5s-27-2-17-5z"/><path d="m5488 1343c7-3 16-2 19 1 4 3-2 6-13 5-11 0-14-3-6-6z"/><path d="m5528 1343c6-2 18-2 25 0 6 3 1 5-13 5s-19-2-12-5z"/><path d="m4897 1142c-15-16-15-18 2-19 11-1 21 7 24 18 6 24-5 24-26 1z"/><path d="m5060 1060c0-5 7-10 16-10 8 0 12 5 9 10-3 6-10 10-16 10-5 0-9-4-9-10z"/><path d="m1081 461c-14-14-37-21-78-23-56-3-57-4-58-33 0-25 4-30 28-33 32-4 34-12 6-43-14-17-22-20-25-11-3 6-10 12-15 12-6 0-7-4-4-10 3-5 2-10-4-10-5 0-11 10-13 23-2 14-9 21-21 21-21-2-21 1 0 37 16 28 16 29-2 44-31 23-53 18-72-17l-18-33-3 43c-3 43-3 43-40 40-34-3-37-5-37-35 0-18-2-33-4-33-3 0-16 14-31 31l-26 32-28-24-28-24 21-27c26-33 26-38 0-38-11 0-23-8-25-17-5-17-25-18-262-17-141 1-276-1-299-3l-43-5v-154-154h3035 3035v154 153l-122 4c-68 3-266 5-440 4h-317l-6 23c-5 20-11 22-70 22-50 0-65 3-65 14s15 16 53 18c50 3 52 4 52 33v30h-140-140v-30c0-29 2-30 53-33 36-2 52-7 52-17s-17-15-62-17c-61-3-63-4-69-33l-5-30-8 32c-4 18-6 51-5 72 2 22 0 43-4 48-4 4-42 6-84 5-50-2-79 1-84 9-5 9-23 9-75 0-98-18-95-16-84-47 8-19 7-31 0-38-14-14-13-56 3-56 8 0 8-3-2-9-15-9-41-4-39 7 1 4-2 15-7 25-5 12-2 22 10 31 10 7 16 22 13 37-3 22-7 24-70 27-49 2-68 7-68 16 0 30-66 35-75 6-5-17-15-20-65-20-53 0-59-2-62-22-2-13-1-37 3-53 4-20 1-35-8-43-7-7-13-9-13-3 0 5-9 7-20 4-19-5-20 0-20 66 0 84 5 81-145 78l-100-2-3-72c-3-72-3-73-30-74-15-1-39-2-54-3-25-3-28 0-28 29 0 25 5 34 21 38s20 12 17 34c-3 27-4 28-59 26-43-2-58 1-63 12-7 20-65 20-72 0-5-12-20-15-62-13-53 3-56 2-63-24-8-30-3-38 23-38 14 0 18-8 18-34s-4-33-17-32c-10 0-21 6-25 11-5 6-8 4-8-5-1-12-3-11-11 3-8 13-23 17-69 17-57 0-60 1-60 25 0 21 5 25 31 25 17 0 39 5 50 10 18 10 18 13 3 41-13 26-20 30-42 25-15-3-71-11-124-17l-98-12v-36c0-57-20-86-58-86-30-1-32 2-32 32 0 29 3 33 26 33s25 3 22 33l-3 32h-175-175v-30c0-23 5-31 22-33 17-3 21-9 20-35-2-29-5-32-34-34-18-1-32 2-32 5 1 4 1 28 0 55l-1 47h-75c-43 0-75-4-75-10 0-5-10-10-23-10-18 0-22 5-22 33 0 30-2 32-35 32-32 0-35-3-38-33-3-27-7-33-25-30-19 3-22-2-22-32 0-28 4-35 25-41 29-8 27-10-18-12-30-2-32 0-32 31s-2 32-39 32h-40l-3 48c-3 47-3 47-38 47s-35 0-38-47c-3-45-5-48-32-48s-29 3-32 43c-3 39-5 42-35 45l-32 3-3-78c-2-45-7-77-13-76-5 1-16-3-22-9-9-7-13-7-13 0 0 5-8 8-18 5-15-3-18 3-20 36-3 36 0 41 18 41s21 5 18 33c-3 31-5 32-53 35-27 2-54 7-59 13-13 12-50 11-63-2-8-8-13-8-17 0-9 14-66 15-66 1 0-5-22-10-50-10h-50v-35c0-23 5-35 14-35s15-14 18-41c4-40 3-41-24-35-18 4-28 1-29-7 0-6-5-1-10 12-7 18-6 26 7 35 9 7 14 22 12 37-3 21-8 24-56 27-29 2-50 6-48 11 8 13-8 29-36 36-24 6-29 3-42-27-8-18-15-27-15-20-1 8-22 12-71 12h-70v-58c0-51-2-58-20-59-16-1-20 4-20 27 0 16 7 30 16 34 10 4 14 15 12 33-3 27-5 28-70 31-60 3-68 5-68 22 0 27-43 27-69 1zm49-21c0-18 7-20 70-20 56 0 70-3 70-15s-16-15-77-16c-43 0-72-3-65-6 6-2 12-11 12-19 0-10 14-14 50-14 35 0 50-4 50-14 0-23-22-80-43-110-23-32-16-41 41-52 35-7 34-6 26-28-5-13-13-12-61 6l-55 20-38-21c-34-19-38-19-44-5-4 9-5 18-4 19 2 1 18 7 36 14 17 8 32 14 32 15s-8 18-19 38c-13 27-21 34-29 26-25-25-24 6 1 56 15 29 27 58 27 64 0 8-24 12-70 12-56 0-70 3-70 15s14 15 66 15c53 0 65 3 61 14-5 13 5 23 26 25 4 1 7-8 7-19zm663 6c6-15 57-10 57 5 0 13 28 11 32-2 2-6 26-11 56-11 39 1 52-3 52-14 0-10-14-14-55-14-30 0-55-4-55-9s16-8 35-6c33 3 35 1 35-25 0-17-7-33-17-39-14-8-15-11-3-11 10 0 7-7-10-20l-25-20h48c26 0 47-4 47-10s-32-10-75-10-75-4-75-10c0-5 22-10 49-10h50l-1-48-1-48-84 4c-53 3-88 0-96-7-19-15-27-4-27 35 0 31-2 33-25 24-16-6-26-6-31 1-9 14-5 16 60 33 33 9 61 18 64 21s-25 5-61 5c-38 0-67 4-67 10s28 10 65 10 65 4 65 10-18 10-40 10-40 5-40 10c0 6 16 10 35 10s35 5 35 11-15 10-32 9c-53-3-58-1-58 25 0 21 5 25 29 25 17 0 33 5 36 10 4 6-13 10-44 10-39 0-51 4-51 15s12 15 50 15c28 0 50 5 50 10 0 15 17 12 23-4zm457-30c-3-54-2-56 41-56 26 0 39-4 37-11-3-8-39-11-111-10l-107 2v-30-31h80 80v-70c0-56-3-70-15-70s-15 13-15 60v60h-65c-54 0-67-3-72-17-23-69-43-102-57-97-12 5-11 13 7 52 15 34 22 75 25 150 4 77 8 102 18 102s14-14 14-45v-45h50c52 0 54 1 50 54-2 28 16 50 33 39 4-3 8-19 7-37zm2070 18c0-11 17-14 71-14 50 0 70-3 67-12-3-7-27-11-71-9l-67 2v-58c0-71 8-103 26-103 19 0 29 21 14 30-7 4-9 13-6 19 4 6 0 14-10 18-16 6-16 7 1 19 15 11 16 16 5 29-7 8-11 15-9 16 46 6 89 5 89-1 0-5-6-10-12-13-9-3-7-9 6-19 14-11 16-17 7-23-7-4-18-2-23 3-8 8-17 8-30 1-31-17-3-42 36-33 28 6 29 5 16-10-11-14-11-19-1-26 21-12 3-32-19-20-13 7-21 5-31-6-15-19-2-30 49-40 30-6 43-26 23-38-17-11-99 32-122 63l-23 31-17-27c-20-30-85-73-111-73-35 0-26 19 19 41 68 34 84 62 86 145l2 69h-63c-43 0-62 4-62 13 0 8 20 12 65 12 58 0 65 2 65 20 0 13 5 18 15 14 8-4 15-12 15-20zm-3540-44v-60h60c45 0 60-4 60-14 0-11-13-13-60-9-60 6-60 6-60-21 0-26 1-26 70-26 56 0 70-3 70-15s-14-15-70-15h-70v-45c0-36-3-45-18-45-14 0-17 7-14 45l4 45h-76c-61 0-76 3-76 15s15 15 76 15c72 0 75 1 72 23-3 20-9 22-61 23-78 2-77 18 1 22l64 3-4 60c-3 51-1 59 15 59 14 0 17-10 17-60zm723 31c-3-19 2-21 57-21 47 0 60-3 60-15s-14-15-68-15c-63 0-92-10-92-32 0-4 29-8 65-8 37 0 65-4 65-10 0-5-25-35-55-65-71-72-71-85 1-85 47 0 57 3 61 20 5 20 18 26 26 13 3-5 1-18-4-31-8-21-13-23-86-20-72 3-78 5-81 25-2 15 11 38 42 71 25 27 46 52 46 54 0 3-18 5-40 3-22-1-40 1-40 6s-9 9-20 9c-18 0-20-7-20-60 0-47-3-60-15-60-8 0-15 7-15 15s-9 15-20 15c-15 0-20-7-20-25 0-16-6-25-15-25-12 0-15 19-15 115v115h50 50v-36c0-46 15-36 42 27 22 49 45 61 41 20zm970-6c-6-35-5-35 31-35h36l-1-82c-2-115-9-142-38-146-32-5-48 21-18 28 20 5 22 12 25 93 3 80 1 87-16 87-16 0-21-10-26-57-8-75-49-165-70-157-20 8-20 9 4 42 20 28 39 97 40 145 0 22-4 27-25 27-14 0-25 5-25 10 0 6 11 10 25 10 22 0 25 4 25 35 0 28 4 35 19 35 17 0 19-5 14-35zm887 4c0-3-44-9-97-13s-98-8-99-9c0-1-4-19-7-39l-6-38h45c44 0 44 0 44 35 0 24 5 35 15 35s15-11 15-35v-35h60c47 0 60-3 60-15s-13-15-60-15h-60v-70c0-66-1-70-25-76-28-7-55 0-55 16 0 5 11 10 25 10 24 0 25 3 25 60v60h-66c-64 0-66 1-60 23 4 12 10 41 13 64l5 42 67 7c36 3 84 9 106 13 36 6 54 0 55-20zm254 16c-5-12 5-15 60-15 37 0 66-4 66-10s-30-10-70-10-70-4-70-10c0-5 23-10 50-10h50v-75-75h30c21 0 30-5 30-16 0-14-8-16-50-11-29 4-50 2-50-3 0-6 8-10 18-10 29-1 62-24 53-38-6-10-18-9-54 9-25 12-43 27-41 34 3 7-9 11-36 10-29 0-39-4-35-13 6-17-83-58-96-45-6 6 6 17 31 28 22 10 40 21 40 24s-22 4-50 3c-41-3-50-1-50 12 0 11 9 16 30 16h30v75 75h40c22 0 40 5 40 10 0 6-27 10-60 10s-60 4-60 10 27 10 60 10c47 0 60 3 60 15 0 8 9 15 20 15 13 0 18-5 14-15zm1034-3c2-7-6-12-17-12-22 0-39-25-26-38 4-4 10-1 12 6 8 21 32 14 26-9-5-17-2-19 19-14s26 2 32-17c8-33 7-48-4-48-5 0-12 10-15 23-5 19-11 23-36 19-16-2-32-9-36-15s0-8 10-4c29 11 42-21 38-102-3-83-6-90-23-73-15 15-64 16-73 2-15-25-25-5-25 49 0 46-4 60-17 65-15 6-13 11 15 32 38 31 41 44 7 44-14 0-25 5-25 10 0 6 7 10 16 10 15 0 14 10-3 56-2 6 18 15 49 21 61 12 70 11 76-5zm-592-52v-60h-103-104l2 60 2 60h102 102zm1084 45c0-12-13-15-55-15h-55v-35-35h65c51 0 65-3 65-15s-13-15-60-15c-33 0-60-2-60-5 0-32 69-107 110-120 24-8 26-23 5-31-23-9-88 41-115 88-23 41-23 41-32 17-12-30-53-74-97-101-27-17-35-18-42-7-6 10 4 21 35 41 42 26 76 64 89 101 6 15-1 17-58 17-51 0-65 3-65 15s14 15 65 15h65v35 35h-55c-51 0-65 7-48 23 3 4 60 7 125 7 98 0 118-3 118-15zm-4451-24c17-23 18-31 8-40-10-8-19-3-36 19-21 29-21 50-1 50 5 0 18-13 29-29zm189 21c12-8 10-12-35-71-2-3-8 0-14 6-8 8-6 20 7 42 20 33 22 35 42 23zm2172-7c0-10-10-15-30-15h-29l-3-127-3-127-32-7c-18-3-33-5-33-4 0 2-3 10-6 19-5 12 0 16 20 16h26v115 115h-115c-105 0-127 5-108 23 3 4 75 7 160 7 129 0 153-2 153-15zm1758-127c-3-137-4-143-24-146-12-2-24 4-27 12-5 11 0 16 13 16 16 0 20 7 20 34 0 19-4 38-10 41-5 3-10 1-10-4 0-6-9-11-19-11-14 0-18-5-14-20 10-37-5-70-32-70-16 0-25 6-25 15 0 8 7 15 15 15 10 0 15 10 15 30 0 17-4 30-10 30-5 0-10-4-10-10 0-16-17-12-24 5-4 10 3 20 19 27 23 10 25 16 25 84 0 69-1 74-21 71-12-1-24 4-26 11-4 9 15 12 71 12h77zm-2138-13c0-104-2-125-15-125-8 0-15 7-15 15 0 23-47 19-53-5-3-11-10-20-16-20-7 0-11 43-11 130v130h55 55zm-1613 97c10-6 10-12-2-28-10-13-14-46-15-111 0-76-3-93-15-93s-15 14-15 68v67l-20-25c-17-23-19-23-26-7-4 12 0 24 12 36 11 10 28 36 38 59 20 44 23 47 43 34zm1880-44c-2-13-4-5-4 17-1 22 1 32 4 23 2-10 2-28 0-40zm283 32c0-13-7-20-20-20s-20 7-20 20 7 20 20 20 20-7 20-20zm1035-10c-15-16-14-18 2-24 14-6 15-9 3-16-8-5-21-5-29 0-9 5-24 2-37-7-33-21-50-6-22 18 16 14 19 22 11 25-26 11-13 26 16 19 16-3 32-2 35 4 4 6 13 8 22 4 13-5 13-8-1-23zm-1345-65c0-60-3-75-15-75-8 0-15 7-15 15 0 10-11 15-35 15-28 0-35-4-35-20 0-11-7-20-15-20-12 0-15 16-15 80v80h65 65zm1200 0c0-12-14-15-70-15-54 0-70-3-70-14s15-16 53-18c28-2 51-7 49-13-1-6-25-8-52-7-44 3-50 2-50-16 0-25 37-35 97-26 40 6 45 5 41-12-3-17-12-19-82-17-59 2-88 8-115 24l-35 21-22-27c-15-19-28-26-39-21-15 5-14 10 9 37 14 17 29 42 32 55 7 28 27 27 32-2 4-19 28-44 44-44 4 0 8 18 8 40v40h-70c-51 0-70 4-70 13 0 10 34 14 155 15 132 2 155 0 155-13zm146-8c4-4 2-7-5-7-8 0-10-7-6-20 5-16 2-20-14-20-12 0-30-6-41-12-14-9-22-10-31-1-8 8-5 13 11 18s20 12 16 28c-4 19-1 22 29 22 18 0 37-4 41-8zm-1060-18c10-17-73-96-86-83-8 8-1 23 27 52 41 44 48 48 59 31zm187-80c-8-8-20-1-46 27-50 55-36 77 17 25 30-30 37-44 29-52z"/><path d="m1160 322c-35-4-60-17-60-33 0-5 6-9 14-9s17-13 21-30c10-47 31-36 60 33 17 41 14 44-35 39zm9-36c9-11 9-16 0-21-10-7-28 10-29 28 0 12 17 8 29-7z"/><path d="m1794 401c3-5 17-8 31-8s28 3 31 8-11 9-31 9-34-4-31-9z"/><path d="m1730 360c0-5 11-10 25-10s25 5 25 10c0 6-11 10-25 10s-25-4-25-10z"/><path d="m1805 360c3-5 15-10 26-10 10 0 19 5 19 10 0 6-12 10-26 10s-23-4-19-10z"/><path d="m1875 361c6-11 45-10 45 1 0 4-12 8-26 8s-23-4-19-9z"/><path d="m1824 328c-3-4 9-9 25-9 17-1 36-2 43-3 6-1 13 4 15 9 4 12-76 15-83 3z"/><path d="m1820 290c0-5 9-10 19-10 11 0 23 5 26 10 4 6-5 10-19 10s-26-4-26-10z"/><path d="m1761 216c7-7 139-10 146-3 3 4-29 7-72 7s-76-2-74-4z"/><path d="m1765 180c-4-6 22-10 69-10 44 0 76 4 76 10s-30 10-69 10-73-4-76-10z"/><path d="m1350 325c0-58 2-65 20-65s20 7 20 65-2 65-20 65-20-7-20-65z"/><path d="m3530 350c0-6 30-10 70-10s70 4 70 10-30 10-70 10-70-4-70-10z"/><path d="m3534 313c8-8 125-8 133 1 4 3-27 6-67 6s-70-3-66-7z"/><path d="m3563 273c20-2 54-2 75 0 20 2 3 4-38 4s-58-2-37-4z"/><path d="m3530 240c0-6 30-10 70-10s70 4 70 10-30 10-70 10-70-4-70-10z"/><path d="m4550 402c0-5 7-17 15-28 14-18 14-18 15 9 0 17-5 27-15 27-8 0-15-4-15-8z"/><path d="m4556 295c-3-9 0-15 9-15 8 0 15 7 15 15s-4 15-9 15-11-7-15-15z"/><path d="m4605 300c-9-15-1-23 21-18 15 3 16 4 1 16-11 9-17 10-22 2z"/><path d="m4555 251c-7-12 12-24 25-16 11 7 4 25-10 25-5 0-11-4-15-9z"/><path d="m4610 244c0-8 5-12 10-9 6 4 8 11 5 16-9 14-15 11-15-7z"/><path d="m4557 204c-8-8 1-24 14-24 5 0 9 7 9 15 0 15-12 20-23 9z"/><path d="m4607 204c-8-8 1-24 14-24 5 0 9 7 9 15 0 15-12 20-23 9z"/><path d="m3880 410c0-6 28-10 65-10 36 0 68 0 72-1 4 0 9 4 11 10 2 7-23 11-72 11-44 0-76-4-76-10z"/><path d="m3882 358c3-9 26-13 71-13 92 0 91 19-1 23-57 2-73 0-70-10z"/><path d="m4737 398c-4-13 0-18 14-18 13 0 19-7 19-24 0-14 5-28 10-31 6-4 10 11 10 38 0 39-3 45-24 49-18 4-26 0-29-14z"/><path d="m4737 313c3-27 7-49 9-51 1-2 12 2 24 8 23 12 22 35-1 35-8 0-15 12-17 28-2 15-7 27-12 27-6 0-7-21-3-47z"/><path d="m2590 289v-80l26 3c25 3 26 5 27 81l2 77h-27-28zm27 29c-3-7-5-2-5 12s2 19 5 13c2-7 2-19 0-25z"/><path d="m2810 300c0-39 1-40 35-40s35 1 35 40-1 40-35 40-35-1-35-40z"/></g></svg>