<?xml version="1.0" standalone="no"?>
<!DOCTYPE svg PUBLIC "-//W3C//DTD SVG 20010904//EN"
 "http://www.w3.org/TR/2001/REC-SVG-20010904/DTD/svg10.dtd">
<svg version="1.0" xmlns="http://www.w3.org/2000/svg"
 width="536.000000pt" height="536.000000pt" viewBox="0 0 536.000000 536.000000"
 preserveAspectRatio="xMidYMid meet">

<g transform="translate(0.000000,536.000000) scale(0.100000,-0.100000)"
fill="#000000" stroke="none">
<path d="M3837 3815 c-19 -45 -19 -45 -58 -39 -41 7 -118 -15 -138 -39 -16
-20 4 -87 33 -112 22 -19 32 -21 68 -15 26 5 49 17 60 32 38 48 49 63 61 81 9
13 40 23 100 35 81 15 87 18 87 40 0 23 -3 24 -40 18 -135 -21 -122 -22 -118
10 2 23 -1 30 -17 32 -15 2 -24 -8 -38 -43z m-57 -105 c0 -20 -28 -43 -67 -55
-20 -6 -23 -3 -23 25 0 22 6 33 23 40 40 16 67 12 67 -10z"/>
<path d="M2907 3826 c-3 -8 1 -45 9 -83 18 -87 19 -83 -15 -83 -25 0 -31 6
-41 36 -8 24 -17 34 -28 32 -13 -3 -17 -14 -15 -45 2 -40 1 -41 -38 -47 -30
-5 -39 -11 -39 -26 0 -17 7 -20 45 -20 41 0 45 -2 45 -24 0 -18 -9 -27 -40
-40 -41 -16 -53 -42 -24 -53 8 -3 26 -1 40 5 19 9 24 9 24 -3 0 -8 -16 -21
-35 -29 -46 -19 -47 -46 -2 -46 45 0 75 24 87 71 9 31 18 43 41 51 18 6 29 17
29 29 0 15 -7 19 -36 19 -28 0 -35 4 -32 17 5 25 58 36 74 15 23 -30 26 -63 8
-83 -29 -32 3 -68 34 -37 8 8 21 2 51 -25 41 -37 75 -51 108 -45 13 2 19 14
21 46 4 48 -15 58 -40 21 l-14 -22 -37 33 c-34 30 -36 35 -30 73 6 38 5 40
-16 34 -14 -3 -24 1 -31 13 -9 17 -5 20 32 27 35 7 44 13 46 32 4 23 2 24 -51
17 l-55 -6 -18 80 c-13 63 -21 80 -34 80 -10 0 -20 -6 -23 -14z"/>
<path d="M3355 3818 c-128 -19 -125 -18 -125 -40 0 -19 4 -20 75 -16 52 4 72
2 68 -6 -32 -52 -86 -120 -131 -163 -35 -34 -52 -58 -48 -68 9 -26 35 -17 85
30 26 25 50 45 53 45 2 0 5 -19 7 -42 4 -81 15 -113 39 -116 26 -4 26 -6 11
125 l-11 98 36 59 c20 33 36 66 36 73 0 22 -33 29 -95 21z"/>
<path d="M2792 3785 c-35 -38 -40 -62 -15 -72 20 -8 83 57 83 87 0 31 -33 24
-68 -15z"/>
<path d="M2994 3795 c-8 -20 14 -73 35 -85 10 -5 23 -5 31 0 12 7 12 13 0 37
-29 58 -55 77 -66 48z"/>
<path d="M3917 3695 c-57 -16 -61 -19 -53 -41 5 -13 14 -15 46 -10 22 3 40 3
40 -2 0 -4 -21 -28 -46 -52 -25 -25 -52 -57 -59 -71 -24 -45 -7 -54 107 -57
137 -4 192 6 196 36 l3 22 -123 -7 c-120 -6 -123 -6 -108 13 8 10 17 21 20 24
3 3 25 29 48 59 69 88 44 118 -71 86z"/>
<path d="M1575 3653 c-11 -2 -47 -13 -79 -25 -38 -13 -73 -18 -98 -15 -54 7
-161 -17 -235 -53 -39 -20 -92 -60 -149 -115 -71 -69 -94 -85 -118 -85 -38 0
-124 -40 -150 -69 -28 -31 -17 -33 39 -7 28 13 67 26 87 29 l38 6 -15 -29 c-8
-16 -43 -49 -78 -74 -64 -45 -106 -87 -126 -124 -19 -35 -13 -34 44 13 31 25
58 45 61 45 3 0 -13 -20 -36 -44 -84 -88 -121 -166 -119 -250 l1 -41 9 40 c5
22 14 44 20 50 8 7 9 0 3 -25 -15 -58 -9 -268 9 -350 34 -151 111 -253 241
-321 49 -25 64 -38 59 -49 -17 -40 -14 -86 8 -114 28 -36 92 -65 142 -66 30 0
39 -5 46 -22 13 -32 76 -98 94 -98 12 0 16 -25 22 -132 10 -191 27 -265 83
-372 77 -147 191 -254 335 -313 104 -43 387 -69 475 -44 26 8 34 7 39 -4 15
-42 270 -67 427 -42 77 12 95 12 130 -1 68 -24 525 0 662 34 104 27 211 111
237 187 3 10 181 -56 205 -75 14 -12 109 -6 272 18 87 13 109 20 128 41 28 30
28 57 1 94 -25 35 -78 64 -136 74 -24 4 -43 10 -43 14 0 14 -165 170 -228 216
-35 25 -102 68 -150 96 -80 46 -87 51 -84 78 10 94 -114 201 -269 233 l-59 12
0 46 c0 144 -91 362 -213 515 -90 111 -326 263 -476 304 -64 18 -77 26 -124
77 -73 80 -81 94 -78 130 3 43 -22 99 -55 121 -16 10 -47 18 -71 18 -36 1 -48
7 -81 41 -21 23 -45 45 -54 50 -8 5 -26 29 -38 54 -69 137 -210 266 -338 309
-58 20 -161 26 -217 14z m78 -141 c7 -6 35 -16 62 -23 97 -23 263 -121 346
-201 21 -21 42 -38 46 -38 14 0 235 -223 326 -327 150 -174 195 -293 184 -490
-5 -89 -11 -115 -43 -191 -47 -110 -98 -183 -171 -247 -177 -154 -266 -195
-453 -210 -114 -9 -196 6 -337 61 -118 45 -160 67 -202 104 -13 11 -27 20 -30
20 -3 0 -18 11 -32 24 -14 13 -43 35 -65 48 -68 44 -234 223 -234 254 0 5 -16
47 -35 92 -33 79 -77 152 -110 186 -21 20 -70 121 -84 171 -18 66 -14 209 9
284 25 85 35 97 91 113 54 15 64 29 32 43 -33 14 -28 29 7 22 37 -8 38 5 3 31
-23 17 -25 22 -14 36 12 14 15 14 37 0 13 -9 31 -13 40 -10 13 5 13 10 -6 36
l-22 30 24 21 c43 37 139 100 176 116 20 9 73 27 117 40 69 20 97 22 203 19
67 -2 128 -9 135 -14z m677 -383 c0 -5 7 -9 15 -9 14 0 41 -48 32 -56 -2 -2
-20 17 -40 41 -21 25 -31 42 -22 39 8 -3 15 -10 15 -15z m447 -845 c-3 -3 -12
-4 -19 -1 -8 3 -5 6 6 6 11 1 17 -2 13 -5z m43 -89 c18 -42 30 -78 27 -81 -3
-4 0 -13 8 -21 8 -8 15 -19 15 -24 0 -6 -7 -3 -16 5 -19 20 -25 20 -18 1 4 -9
0 -15 -9 -15 -26 0 -37 -23 -21 -44 8 -11 14 -14 14 -8 0 7 7 12 15 12 8 0 15
6 15 13 0 8 4 7 10 -3 9 -13 10 -13 10 0 0 13 1 13 10 0 17 -26 11 -39 -17
-42 -20 -2 -29 -9 -31 -25 -2 -13 1 -23 7 -23 16 0 13 -19 -6 -38 -16 -16 -16
-16 -11 6 3 12 3 22 -1 22 -12 0 -42 71 -35 82 5 7 2 8 -5 4 -8 -6 -11 -2 -9
10 2 11 -2 18 -9 17 -8 -2 -12 6 -9 20 2 13 10 22 22 23 27 1 64 22 64 35 0 6
-9 13 -20 16 -11 3 -20 10 -20 15 0 5 5 6 11 2 6 -3 1 13 -12 37 -40 77 -40
79 -25 79 7 0 28 -34 46 -75z m-1690 -110 c30 -28 92 -76 137 -105 80 -52 93
-70 51 -70 -31 0 -76 31 -105 72 -14 21 -33 38 -43 38 -29 0 -112 32 -131 51
-22 22 -23 33 -9 59 14 26 34 17 100 -45z m1463 -12 c-5 -12 -7 -12 -14 -1
-13 20 -11 28 5 22 8 -3 12 -12 9 -21z m-33 -17 c0 -13 3 -31 6 -39 7 -18 -14
-27 -49 -20 -33 7 -33 10 0 51 32 38 43 40 43 8z m355 -180 c-7 -74 -38 -217
-46 -205 -4 7 -6 -10 -4 -37 4 -53 -6 -81 -24 -70 -15 10 -14 36 2 36 8 0 12
19 12 63 0 34 3 76 8 92 l7 30 -16 -25 -15 -25 5 25 c3 14 6 33 6 44 0 13 5
17 20 13 27 -7 36 11 14 28 -15 11 -20 11 -29 -2 -9 -12 -11 -11 -12 6 -1 11
1 20 5 20 4 -1 10 0 15 1 4 1 13 3 20 4 6 0 13 14 15 30 3 25 1 28 -17 23 -14
-3 -21 0 -21 10 0 8 4 12 9 8 5 -3 13 5 17 17 6 21 8 20 20 -14 7 -20 11 -53
9 -72z m515 25 c25 -11 57 -25 73 -30 15 -6 27 -15 27 -21 0 -5 6 -10 14 -10
15 0 30 -27 27 -49 -1 -8 2 -10 10 -5 9 5 10 2 6 -9 -3 -9 0 -18 9 -21 23 -9
6 -26 -24 -24 -15 1 -45 1 -67 0 -31 -2 -36 -5 -25 -12 12 -8 9 -10 -10 -6
-70 13 -104 17 -98 11 4 -4 22 -11 40 -16 l33 -9 -37 4 c-27 3 -41 -1 -54 -15
-9 -10 -31 -23 -48 -28 -17 -5 -39 -12 -48 -16 -21 -8 -18 14 10 77 10 24 17
48 15 54 -3 8 18 13 60 16 67 4 89 16 101 56 4 13 13 20 19 16 7 -3 1 4 -13
15 -30 25 -48 27 -46 4 0 -10 -15 -26 -39 -40 -44 -25 -82 -32 -50 -9 14 10
17 21 12 50 -3 20 -2 34 3 31 4 -3 11 2 14 10 4 11 10 13 23 6 10 -5 38 -19
63 -30z m-114 -59 c-11 -10 -15 4 -8 28 l7 25 3 -23 c2 -13 1 -26 -2 -30z
m-1863 -4 c34 -24 65 -47 68 -51 3 -4 10 -7 15 -6 5 1 22 -3 37 -9 16 -7 34
-12 42 -12 7 0 15 -7 19 -15 3 -8 1 -15 -5 -15 -6 0 -4 -7 5 -15 19 -19 50
-20 43 -1 -4 9 5 15 31 20 46 7 56 -2 11 -11 l-34 -7 50 -13 c28 -7 57 -12 65
-12 8 1 -5 6 -30 13 l-45 12 80 0 c70 -1 80 -3 83 -20 2 -10 -2 -22 -10 -27
-7 -5 -8 -9 -2 -9 6 0 22 11 35 23 17 17 41 26 79 30 37 4 50 3 40 -3 -17 -11
-9 -13 14 -4 9 3 13 11 9 17 -3 5 -2 7 4 4 6 -4 33 3 62 15 50 21 52 22 69 4
9 -11 11 -15 3 -11 -10 6 -11 2 -6 -16 4 -13 12 -27 18 -31 12 -8 37 1 37 13
0 5 14 9 30 9 29 0 40 8 74 55 9 11 16 15 16 8 0 -6 -12 -25 -26 -42 -14 -17
-22 -31 -18 -31 5 0 -2 -7 -14 -16 -12 -8 -22 -21 -22 -29 0 -18 43 -32 48
-16 3 9 8 9 19 -1 14 -11 15 -8 8 21 -5 26 -4 32 5 26 10 -6 12 2 7 33 -3 23
-1 45 4 48 5 3 9 0 9 -6 0 -6 5 -8 10 -5 6 3 10 1 10 -4 0 -6 4 -11 9 -11 9 0
101 -42 141 -65 l24 -14 -27 -10 c-15 -6 -27 -18 -28 -28 0 -16 -1 -15 -8 2
-7 17 -9 14 -13 -15 -7 -41 -3 -50 20 -50 21 0 46 28 50 55 2 11 5 27 8 35 4
13 6 13 14 0 5 -8 13 -15 17 -15 23 -2 83 -28 95 -42 11 -15 10 -16 -12 -10
-14 4 -31 7 -37 7 -7 0 -13 7 -13 15 0 20 -10 19 -39 -4 -16 -12 -22 -24 -18
-35 8 -20 36 -21 43 -1 9 22 56 20 52 -2 -4 -21 48 -31 66 -13 8 8 7 9 -6 5
-13 -5 -18 -2 -18 9 0 9 6 15 12 13 15 -3 48 -41 48 -56 0 -6 6 -11 14 -11 8
0 17 -6 20 -12 5 -10 7 -10 12 -1 8 19 48 -34 62 -82 6 -22 10 -52 8 -67 -2
-15 1 -25 6 -22 5 3 7 13 3 22 -5 13 -2 12 15 -3 11 -10 18 -25 15 -32 -2 -8
0 -11 5 -8 5 3 20 0 32 -7 13 -7 27 -11 31 -10 5 1 6 -2 2 -8 -3 -6 -11 -7
-17 -4 -7 5 -8 2 -3 -5 11 -18 -26 -83 -40 -71 -8 7 -20 0 -38 -20 -27 -29
-27 -30 -5 -26 13 1 23 9 24 17 2 30 5 34 13 20 11 -17 -16 -64 -32 -54 -5 3
-7 1 -4 -4 8 -13 -17 -36 -28 -25 -5 4 -5 1 -1 -6 9 -15 -23 -44 -84 -76 -39
-20 -61 -23 -165 -25 -66 0 -129 -4 -140 -7 -16 -4 -17 -3 -5 5 11 8 -8 10
-70 6 -62 -4 -81 -2 -70 6 12 8 10 9 -7 4 -12 -3 -32 -1 -44 5 -21 12 -21 12
11 32 18 10 38 17 46 14 9 -3 11 0 7 11 -4 11 -2 14 5 9 7 -4 20 -2 29 4 17
11 17 11 0 6 -10 -3 -16 -2 -12 3 3 5 20 13 38 16 17 4 42 16 53 27 18 15 24
17 30 6 5 -7 9 -17 9 -22 0 -13 56 -27 80 -19 25 7 60 44 81 85 10 19 19 27
23 20 4 -7 7 5 8 26 0 30 -1 33 -8 17 -8 -16 -8 -15 -4 7 7 35 -20 104 -58
148 -46 53 -94 77 -147 72 -25 -2 -40 0 -33 5 6 5 -18 7 -54 7 -35 -1 -68 -5
-71 -9 -4 -4 5 -6 19 -3 20 4 26 1 24 -11 -1 -12 -18 -18 -61 -23 -32 -4 -76
-9 -96 -12 l-38 -4 0 40 c0 68 -55 167 -93 166 -42 0 -67 -8 -67 -22 0 -17 33
-31 38 -17 2 6 11 11 19 11 9 0 13 -6 10 -14 -3 -8 1 -20 9 -26 8 -7 14 -20
14 -29 0 -9 11 -37 23 -63 l23 -46 -29 -6 c-36 -7 -39 -5 -41 28 0 13 -5 24
-11 23 -5 -1 -10 4 -10 12 0 8 -21 35 -47 59 -44 41 -55 71 -22 58 8 -3 14 -1
14 4 0 6 -7 10 -16 10 -14 0 -15 2 -3 17 13 15 12 15 -10 4 -19 -10 -21 -15
-10 -22 31 -19 -5 -7 -60 20 -48 25 -72 30 -138 32 -44 1 -86 -1 -92 -6 -7 -4
-29 -4 -49 -1 -27 5 -33 4 -22 -3 12 -9 10 -11 -12 -11 -14 0 -34 -3 -44 -7
-11 -4 -15 -3 -10 5 3 6 1 14 -5 18 -8 5 -9 3 -4 -6 5 -9 1 -11 -16 -6 -13 3
-18 3 -11 0 21 -10 13 -22 -20 -29 -18 -4 -47 -16 -64 -26 -17 -10 -34 -19
-37 -19 -2 0 -7 16 -9 35 -2 19 0 35 4 35 4 0 8 -9 8 -20 0 -30 35 -25 49 7 9
19 9 29 2 31 -6 2 -11 12 -11 22 0 18 -23 34 -34 23 -3 -4 -6 -15 -6 -27 0
-20 0 -20 -15 0 -9 12 -13 32 -10 54 4 27 3 30 -4 15 -7 -15 -10 -6 -10 37 -1
48 3 59 21 72 12 9 24 16 26 16 2 0 31 -19 65 -42z m1696 -280 c10 -24 22 -57
26 -75 l6 -32 -50 6 -51 6 0 -33 c0 -27 -3 -31 -17 -25 -10 3 -31 9 -46 12
-23 5 -29 2 -34 -16 -14 -56 -44 9 -51 111 l-5 77 54 4 c153 10 146 12 168
-35z m-635 -138 c37 -14 83 -61 101 -103 13 -30 13 -45 4 -82 -10 -39 -38 -75
-60 -75 -3 0 -5 15 -5 33 1 28 -2 32 -21 29 -20 -3 -23 1 -20 30 5 54 -13 101
-53 141 l-38 37 33 0 c19 0 45 -4 59 -10z"/>
<path d="M1735 3368 c-22 -6 -42 -14 -45 -17 -12 -15 -89 -70 -133 -96 -43
-25 -54 -27 -108 -21 -49 6 -60 4 -65 -9 -4 -9 1 -21 11 -29 25 -18 10 -36
-31 -36 -20 0 -34 -5 -34 -12 0 -18 62 -58 105 -68 39 -9 78 -3 69 11 -3 5 0
9 5 9 6 0 11 6 11 13 0 8 -14 12 -42 10 l-43 -2 40 8 c22 5 44 7 50 5 6 -3 51
36 100 87 95 96 119 114 137 103 6 -4 8 -3 5 3 -4 6 6 16 20 22 22 10 24 14
12 22 -7 5 -16 8 -19 8 -3 -1 -23 -6 -45 -11z"/>
<path d="M1783 3234 c-24 -14 -43 -30 -43 -35 0 -6 -6 -9 -12 -6 -16 5 -76
-30 -100 -58 -41 -47 -60 -106 -53 -159 6 -42 14 -58 50 -92 49 -47 100 -61
260 -71 89 -5 106 -3 152 17 61 26 76 41 91 96 15 50 15 64 2 64 -5 0 -10 -12
-10 -26 0 -38 -50 -84 -93 -84 -18 0 -36 -3 -40 -6 -8 -9 -126 -10 -120 -1 2
4 -5 7 -16 7 -42 0 -23 32 73 130 19 19 49 61 65 94 65 122 22 168 -106 113
-84 -37 -161 -110 -195 -186 -32 -69 -49 -69 -43 -1 1 19 3 47 4 62 1 15 15
43 32 63 38 43 52 39 15 -5 -27 -33 -33 -50 -16 -50 6 0 10 3 10 8 0 8 67 76
120 122 43 36 30 39 -27 4z m187 -48 c0 -24 -47 -120 -68 -139 -14 -13 -20
-14 -19 -5 1 43 -6 60 -33 77 l-31 18 31 13 c16 7 30 16 30 20 0 7 53 27 78
29 6 1 12 -5 12 -13z m-220 -225 l31 -18 -36 -22 c-20 -11 -38 -21 -41 -21 -6
0 -5 46 2 64 8 20 7 20 44 -3z m197 -107 c-3 -3 -12 -4 -19 -1 -8 3 -5 6 6 6
11 1 17 -2 13 -5z m-74 -11 c-7 -2 -21 -2 -30 0 -10 3 -4 5 12 5 17 0 24 -2
18 -5z"/>
<path d="M1220 3053 c0 -19 84 -172 92 -167 28 17 -7 128 -51 161 -18 14 -41
17 -41 6z"/>
<path d="M1113 2995 c-2 -8 2 -24 10 -37 29 -45 30 -83 4 -114 -80 -97 -136
-271 -92 -288 11 -4 19 12 35 62 12 40 34 85 56 112 72 88 88 154 58 229 -11
28 -23 40 -40 44 -16 3 -28 -1 -31 -8z"/>
<path d="M1258 2797 c-16 -6 -28 -17 -28 -25 0 -7 -5 -12 -12 -10 -17 6 -88
-76 -88 -101 0 -12 -4 -20 -9 -16 -9 5 -21 -19 -27 -51 -1 -6 -5 -21 -9 -33
-3 -11 -3 -21 2 -21 11 0 58 69 67 96 9 28 88 96 129 111 51 18 141 16 179 -5
18 -11 41 -18 51 -16 9 1 17 -2 17 -8 0 -5 9 -22 20 -37 23 -34 38 -90 52
-194 9 -74 9 -80 -16 -131 -18 -37 -37 -59 -59 -70 -31 -15 -31 -16 -7 -16 71
0 180 137 180 227 0 87 -142 279 -222 301 -36 10 -50 6 -29 -8 8 -4 21 -6 30
-3 12 4 13 3 3 -5 -11 -7 -11 -10 2 -15 9 -4 16 -11 16 -17 0 -7 -6 -5 -15 4
-23 23 -121 56 -163 55 -20 -1 -49 -6 -64 -12z"/>
<path d="M1735 2790 c-10 -17 -5 -19 112 -60 59 -20 118 -42 130 -48 26 -14
67 -16 58 -2 -13 21 -134 80 -195 95 -36 9 -72 18 -82 21 -9 3 -19 0 -23 -6z"/>
<path d="M1324 2689 c-54 -28 -68 -41 -114 -112 -29 -44 -55 -89 -58 -99 -2
-10 -7 -16 -11 -14 -4 3 -8 -5 -8 -17 -1 -12 -5 -36 -8 -53 -4 -21 -1 -35 10
-44 45 -38 162 36 293 184 43 49 52 51 28 7 -8 -14 -12 -31 -9 -38 3 -7 -3
-16 -13 -20 -22 -9 -30 -33 -11 -33 22 0 55 34 71 71 13 30 13 36 -2 54 -9 11
-10 14 -2 8 21 -19 33 -16 27 7 -3 11 -1 18 4 14 12 -7 12 53 -1 76 -11 21
-60 40 -104 40 -17 0 -59 -14 -92 -31z m146 -39 c0 -20 -66 -110 -80 -110 -4
0 -5 11 -3 24 7 33 -13 66 -40 66 -21 1 -21 1 3 15 29 17 120 20 120 5z m-209
-170 c40 -1 40 -18 -2 -49 -73 -53 -97 -36 -63 44 14 35 16 36 33 21 10 -9 24
-16 32 -16z"/>
<path d="M2082 2673 c2 -5 10 -25 18 -45 18 -49 43 -53 26 -5 -6 17 -15 38
-19 45 -9 13 -31 17 -25 5z"/>
<path d="M2140 2631 c0 -10 76 -31 112 -31 13 0 36 -7 52 -15 33 -18 36 -18
36 -6 0 14 -127 61 -165 61 -19 0 -35 -4 -35 -9z"/>
<path d="M2005 2586 c-10 -52 -3 -71 25 -71 20 0 26 6 28 29 5 45 -6 76 -28
76 -14 0 -21 -9 -25 -34z"/>
<path d="M1806 2447 c-5 -15 -5 -42 -2 -60 4 -17 11 -68 16 -112 11 -93 22
-130 61 -205 47 -92 51 -93 45 -18 -3 38 -10 77 -16 88 -6 11 -7 20 -2 20 5 0
7 21 5 48 -3 26 0 66 5 90 7 30 7 42 -2 43 -6 0 1 5 17 11 15 5 27 14 27 19 0
12 -17 11 -41 -2 -14 -7 -30 -7 -53 1 -30 10 -35 17 -43 58 -9 44 -10 45 -17
19z"/>
<path d="M1900 2459 c-33 -13 -49 -35 -43 -59 6 -24 24 -25 64 -5 16 9 33 14
37 11 4 -2 8 10 7 27 0 36 -21 44 -65 26z"/>
<path d="M2252 2419 c-150 -74 -300 -341 -206 -365 32 -8 65 1 94 26 13 11 28
20 35 20 7 0 24 11 39 25 24 22 25 27 13 40 -13 13 -17 13 -27 -1 -7 -8 -15
-12 -18 -10 -2 3 20 33 49 67 110 128 136 178 107 207 -17 17 -37 15 -86 -9z"/>
<path d="M2016 2422 c-2 -4 10 -25 27 -46 23 -27 37 -35 50 -31 30 12 21 39
-25 68 -30 19 -44 21 -52 9z"/>
<path d="M2292 2185 c-25 -31 -35 -32 -27 -2 6 22 6 22 -10 2 -10 -13 -12 -21
-5 -23 7 -3 2 -14 -11 -28 -26 -28 -19 -43 14 -25 18 10 62 65 75 94 8 18 -18
5 -36 -18z"/>
<path d="M2765 2070 c3 -5 8 -10 11 -10 2 0 4 5 4 10 0 6 -5 10 -11 10 -5 0
-7 -4 -4 -10z"/>
<path d="M2840 1579 c0 -5 5 -7 10 -4 6 3 10 8 10 11 0 2 -4 4 -10 4 -5 0 -10
-5 -10 -11z"/>
<path d="M3555 1799 c-4 -6 -5 -12 -2 -15 2 -3 7 2 10 11 7 17 1 20 -8 4z"/>
<path d="M3335 1760 c-3 -6 1 -7 9 -4 18 7 21 14 7 14 -6 0 -13 -4 -16 -10z"/>
<path d="M3338 1713 c7 -3 16 -2 19 1 4 3 -2 6 -13 5 -11 0 -14 -3 -6 -6z"/>
<path d="M1528 1753 c-8 -34 6 -68 27 -68 17 0 19 6 17 35 -5 46 -35 69 -44
33z"/>
<path d="M1440 1721 c0 -22 5 -43 10 -46 6 -4 8 -11 5 -16 -4 -5 0 -9 7 -10 7
0 4 -5 -7 -10 -18 -8 -18 -8 5 -6 14 1 23 4 21 7 -2 3 0 14 6 25 8 15 7 28 -6
54 -24 50 -41 51 -41 2z"/>
<path d="M2101 1726 l-25 -14 33 -7 c18 -4 35 -4 38 -1 4 3 -4 6 -17 6 -27 0
-17 15 15 23 l20 5 -20 0 c-11 1 -31 -5 -44 -12z"/>
<path d="M2403 1714 c3 -3 -3 -15 -14 -27 -21 -23 -25 -52 -8 -63 15 -9 40 18
42 44 1 12 7 22 15 22 11 0 10 3 -2 15 -8 8 -20 15 -27 15 -7 0 -10 -3 -6 -6z"/>
<path d="M1608 1693 c7 -3 16 -2 19 1 4 3 -2 6 -13 5 -11 0 -14 -3 -6 -6z"/>
<path d="M1948 1670 c-14 -16 -21 -30 -15 -30 18 0 77 38 77 50 0 21 -36 9
-62 -20z"/>
<path d="M2451 1661 c-27 -37 -28 -71 -2 -71 25 0 40 20 43 60 4 43 -15 48
-41 11z"/>
<path d="M2110 1660 c0 -5 5 -10 11 -10 5 0 7 5 4 10 -3 6 -8 10 -11 10 -2 0
-4 -4 -4 -10z"/>
<path d="M2010 1579 c0 -5 5 -7 10 -4 6 3 10 8 10 11 0 2 -4 4 -10 4 -5 0 -10
-5 -10 -11z"/>
<path d="M2036 1541 c10 -10 23 -16 27 -14 5 3 0 11 -10 19 -27 20 -39 17 -17
-5z"/>
<path d="M2248 1503 c7 -3 16 -2 19 1 4 3 -2 6 -13 5 -11 0 -14 -3 -6 -6z"/>
<path d="M2755 1500 c27 -12 43 -12 25 0 -8 5 -22 9 -30 9 -10 0 -8 -3 5 -9z"/>
<path d="M2558 1493 c7 -3 16 -2 19 1 4 3 -2 6 -13 5 -11 0 -14 -3 -6 -6z"/>
<path d="M2253 1483 c9 -2 25 -2 35 0 9 3 1 5 -18 5 -19 0 -27 -2 -17 -5z"/>
<path d="M2830 1486 c0 -2 8 -10 18 -17 15 -13 16 -12 3 4 -13 16 -21 21 -21
13z"/>
<path d="M2593 1466 c14 -14 21 -16 30 -7 8 8 8 11 0 11 -6 0 -20 3 -30 7 -17
7 -17 6 0 -11z"/>
<path d="M2740 1470 c-8 -5 -11 -12 -8 -16 4 -3 14 1 23 10 18 17 9 21 -15 6z"/>
<path d="M2266 1462 c-2 -4 12 -6 32 -4 56 5 62 10 15 11 -23 1 -44 -3 -47 -7z"/>
<path d="M2788 1463 c7 -3 16 -2 19 1 4 3 -2 6 -13 5 -11 0 -14 -3 -6 -6z"/>
<path d="M2685 1390 c3 -5 8 -10 11 -10 2 0 4 5 4 10 0 6 -5 10 -11 10 -5 0
-7 -4 -4 -10z"/>
<path d="M2865 1390 c-3 -5 1 -10 10 -10 9 0 13 5 10 10 -3 6 -8 10 -10 10 -2
0 -7 -4 -10 -10z"/>
<path d="M2690 1360 c-9 -6 -10 -10 -3 -10 6 0 15 5 18 10 8 12 4 12 -15 0z"/>
<path d="M2785 1339 c-27 -10 -58 -22 -67 -25 -10 -4 -18 -13 -18 -21 0 -12 8
-14 36 -9 19 4 41 9 48 12 10 4 9 -7 -2 -45 -9 -27 -20 -47 -25 -44 -6 3 -7 1
-3 -5 4 -7 -4 -23 -17 -36 -26 -26 -25 -36 5 -36 24 0 76 73 90 127 6 24 15
43 20 43 5 0 2 7 -7 16 -9 9 -14 23 -11 30 3 8 4 14 3 13 -1 0 -24 -9 -52 -20z"/>
<path d="M2853 1275 c-3 -9 -3 -18 -1 -21 3 -3 8 4 11 16 6 23 -1 27 -10 5z"/>
<path d="M2677 1184 c-3 -5 1 -15 9 -22 16 -14 18 -5 5 17 -5 7 -11 9 -14 5z"/>
<path d="M2655 1150 c-3 -5 -1 -10 4 -10 6 0 11 5 11 10 0 6 -2 10 -4 10 -3 0
-8 -4 -11 -10z"/>
<path d="M2693 1114 c-5 -13 -7 -13 -15 -2 -5 8 -6 2 -2 -17 4 -16 7 -31 8
-32 1 -1 6 14 12 33 11 34 9 48 -3 18z"/>
<path d="M2493 1093 c9 -2 25 -2 35 0 9 3 1 5 -18 5 -19 0 -27 -2 -17 -5z"/>
<path d="M2485 1075 c23 -8 83 -10 79 -3 -3 4 -24 8 -47 7 -23 0 -37 -2 -32
-4z"/>
<path d="M3433 3645 c-3 -9 -4 -17 -2 -19 35 -27 101 -66 113 -66 21 0 20 33
-1 52 -22 19 -78 48 -93 48 -6 0 -13 -7 -17 -15z"/>
<path d="M4105 3289 c-101 -19 -126 -49 -105 -124 7 -25 16 -45 21 -45 4 0 9
-10 11 -22 3 -25 4 -25 98 -14 93 11 98 13 120 56 34 67 24 119 -27 138 -45
17 -75 20 -118 11z m99 -55 c36 -14 14 -29 -41 -29 -32 0 -73 -3 -90 -7 -39
-9 -46 12 -10 30 24 12 116 16 141 6z m0 -79 c-4 -8 -16 -15 -29 -15 -12 0
-44 -3 -71 -6 -35 -5 -46 -3 -39 4 6 6 39 15 75 20 36 5 66 10 67 11 1 0 0 -6
-3 -14z"/>
<path d="M3031 3266 c-10 -12 -10 -27 -1 -71 6 -31 10 -58 8 -60 -1 -1 -17 -6
-34 -9 -28 -6 -32 -4 -38 18 -3 15 -13 26 -21 26 -19 0 -19 9 0 34 22 29 19
56 -5 56 -24 0 -81 -85 -78 -115 4 -28 33 -30 46 -3 10 22 11 22 11 -9 1 -28
-3 -33 -31 -41 -23 -6 -33 -14 -33 -28 0 -16 7 -19 40 -19 54 0 56 -22 5 -58
-23 -16 -40 -36 -40 -48 0 -25 24 -24 60 1 l28 20 4 -25 c5 -22 2 -25 -24 -25
-36 0 -49 -27 -22 -47 23 -16 73 -8 92 15 8 11 10 32 6 64 -6 41 -4 50 15 65
27 22 19 57 -10 48 -11 -4 -19 -2 -19 4 0 6 15 14 33 19 29 8 33 6 46 -20 13
-26 13 -32 -3 -59 -10 -16 -15 -37 -12 -45 8 -20 34 -17 48 5 11 18 14 17 57
-18 53 -44 99 -64 133 -59 18 2 24 10 26 39 4 48 -13 91 -36 87 -13 -3 -16
-13 -15 -41 l3 -38 -40 22 c-55 31 -75 56 -75 93 0 25 -5 32 -22 34 -38 6 -26
29 23 42 47 14 65 33 46 52 -8 8 -24 7 -57 -2 -25 -7 -48 -10 -51 -7 -3 3 -11
29 -17 58 -13 56 -26 69 -46 45z"/>
<path d="M3114 3266 c-10 -8 -15 -18 -11 -22 16 -17 102 -43 110 -35 14 14 -2
49 -26 56 -12 4 -29 9 -38 11 -8 2 -24 -2 -35 -10z"/>
<path d="M3462 3225 c-68 -15 -92 -29 -92 -52 0 -17 32 -15 133 7 31 7 60 10
64 7 11 -11 -38 -70 -113 -137 -74 -65 -86 -86 -60 -96 18 -7 34 2 80 44 19
17 37 32 40 32 2 0 7 -29 11 -65 7 -69 17 -84 41 -64 15 13 15 65 -2 150 -4
19 2 35 21 57 14 17 29 47 32 65 4 28 1 37 -18 51 -28 19 -52 19 -137 1z"/>
<path d="M3875 3201 c-41 -17 -56 -45 -49 -89 8 -54 23 -65 83 -60 45 3 48 2
39 -16 -22 -41 -27 -77 -12 -83 8 -3 14 -19 14 -38 0 -18 7 -38 15 -45 24 -20
94 -23 167 -8 l67 14 -6 -28 c-5 -23 -2 -28 15 -28 38 0 82 87 82 161 0 63
-24 79 -117 79 -43 -1 -97 -5 -120 -9 -36 -7 -42 -6 -46 10 -3 11 -12 19 -21
19 -13 0 -14 5 -6 26 14 37 12 70 -6 88 -16 17 -66 20 -99 7z m65 -53 c0 -20
-13 -35 -37 -42 -20 -6 -23 -4 -23 17 0 13 3 27 7 30 11 12 53 7 53 -5z m130
-177 c-14 -18 -21 -38 -17 -50 4 -17 0 -21 -19 -21 -14 0 -27 7 -30 15 -9 21
33 83 59 87 31 5 31 3 7 -31z m168 4 c1 -16 -2 -36 -7 -44 -7 -12 -15 -8 -41
17 -17 18 -36 32 -40 32 -5 0 -7 7 -3 16 4 11 17 14 47 12 38 -3 41 -6 44 -33z
m-102 -50 c18 -14 17 -14 -13 -15 -31 0 -41 9 -26 23 10 10 17 9 39 -8z"/>
<path d="M3607 3066 c-6 -15 22 -46 40 -46 6 0 16 -7 23 -15 18 -21 47 -19 53
4 10 41 -101 96 -116 57z"/>
<path d="M4096 2644 c-115 -25 -155 -46 -134 -71 7 -9 21 -12 35 -8 35 8 29
-18 -7 -32 -25 -9 -30 -17 -30 -45 1 -18 11 -53 23 -78 21 -43 24 -45 60 -42
20 2 37 2 37 -1 0 -2 -5 -18 -11 -35 -11 -33 -18 -37 -86 -47 -37 -6 -43 -10
-43 -31 0 -26 4 -27 68 -15 37 7 45 6 57 -12 12 -18 11 -22 -7 -37 -14 -11
-19 -23 -15 -33 8 -21 31 -22 62 -1 19 13 30 13 62 4 55 -17 98 -10 98 15 0
16 -8 21 -37 23 -44 4 -44 4 -21 43 15 25 23 28 72 31 48 3 56 6 56 23 0 19
-6 20 -106 18 l-107 -3 2 33 c1 35 16 44 72 46 20 1 34 -5 38 -14 15 -40 63 5
86 80 17 58 1 91 -55 116 -26 11 -45 27 -45 36 0 9 6 13 14 10 21 -8 50 17 43
37 -8 22 -46 20 -181 -10z m63 -65 c-8 -5 -29 -9 -46 -9 -18 0 -36 0 -40 -1
-4 0 -9 4 -11 9 -4 12 102 30 107 18 2 -4 -3 -12 -10 -17z m11 -94 c0 -39 -3
-45 -25 -51 -34 -8 -55 1 -57 26 -4 52 -3 55 27 61 54 12 55 11 55 -36z m94
29 c19 -18 19 -16 6 -48 -6 -16 -17 -26 -30 -26 -17 0 -20 7 -20 38 0 54 15
66 44 36z m-224 -61 l-1 -38 -14 25 c-19 33 -19 50 0 50 11 0 15 -11 15 -37z
m105 -203 c-3 -5 -10 -10 -16 -10 -5 0 -9 5 -9 10 0 6 7 10 16 10 8 0 12 -4 9
-10z"/>
<path d="M4696 2625 c-3 -9 -6 -33 -6 -53 0 -27 -6 -41 -21 -50 -17 -11 -18
-16 -8 -28 7 -8 18 -13 25 -10 7 3 15 -2 18 -10 3 -9 -6 -20 -25 -30 -37 -19
-33 -38 10 -42 22 -2 35 -11 43 -27 9 -20 7 -29 -16 -55 -30 -36 -33 -58 -9
-67 10 -4 24 3 39 20 l22 26 18 -21 c45 -49 125 -64 144 -27 6 11 10 30 8 42
-4 29 -38 35 -45 8 -7 -28 -24 -26 -59 4 -29 25 -29 25 -11 55 23 38 14 53
-24 45 -40 -9 -39 19 1 34 52 18 33 55 -23 44 -44 -9 -34 23 11 34 28 7 37 14
36 30 0 15 5 19 18 15 29 -7 35 28 9 50 -44 35 -89 18 -53 -20 16 -17 15 -18
-25 -25 -31 -6 -32 -5 -35 31 -3 39 -30 57 -42 27z"/>
<path d="M4450 2571 c0 -5 -16 -44 -35 -86 -28 -60 -33 -80 -24 -91 7 -9 17
-11 28 -5 9 4 27 5 41 1 l25 -6 -22 -12 c-29 -16 -31 -52 -3 -52 12 0 20 -7
20 -17 0 -42 21 -92 41 -98 33 -11 109 23 109 47 0 19 -4 20 -45 15 -42 -6
-45 -5 -51 18 -9 37 0 50 45 64 31 9 41 17 41 33 0 18 -4 20 -45 14 -51 -8
-65 11 -16 20 32 7 48 31 31 48 -7 7 -23 6 -53 -3 -81 -24 -88 -25 -81 -8 3 9
30 20 70 27 46 9 68 18 75 32 12 22 -5 42 -28 33 -6 -2 -27 -7 -46 -10 -33 -6
-34 -6 -30 19 5 23 2 26 -21 26 -14 0 -26 -4 -26 -9z"/>
<path d="M3464 2498 c-67 -85 -65 -80 -49 -124 14 -41 23 -44 78 -31 24 7 27
5 27 -17 0 -20 -9 -28 -44 -41 -47 -18 -60 -33 -46 -56 8 -12 14 -12 42 -1 49
20 63 19 63 -3 0 -17 -6 -20 -43 -17 -40 3 -43 2 -40 -19 4 -27 47 -42 94 -34
37 6 49 35 38 91 -5 30 -4 34 15 34 21 0 41 27 34 46 -2 6 -17 8 -33 6 -36 -5
-43 22 -7 32 46 12 62 6 81 -29 18 -33 18 -36 3 -53 -10 -10 -17 -26 -17 -35
0 -21 33 -23 49 -3 10 12 21 6 63 -35 28 -27 60 -49 70 -49 23 0 40 42 36 89
-2 28 -7 36 -23 36 -15 0 -21 -8 -23 -29 l-4 -29 -38 38 c-37 36 -38 39 -23
61 17 27 11 54 -11 54 -8 0 -19 -7 -24 -17 -9 -14 -11 -14 -21 5 -10 19 -8 22
26 27 94 15 108 20 108 40 0 18 -6 20 -55 16 -121 -9 -112 -12 -130 49 -10 33
-22 56 -32 58 -24 5 -28 -22 -13 -80 7 -29 13 -54 12 -54 -1 -1 -19 -4 -39 -8
-33 -6 -38 -4 -50 21 -8 15 -19 27 -26 26 -6 -2 0 13 13 33 24 35 24 64 1 64
-7 0 -35 -28 -62 -62z m27 -99 c-3 -4 -17 -10 -30 -14 l-24 -7 23 32 c21 30
24 31 31 14 4 -10 4 -22 0 -25z"/>
<path d="M3700 2546 c0 -18 68 -78 81 -71 16 11 10 44 -13 65 -25 23 -68 27
-68 6z"/>
</g>
</svg>
