<?xml version="1.0" standalone="no"?>
<!DOCTYPE svg PUBLIC "-//W3C//DTD SVG 20010904//EN"
 "http://www.w3.org/TR/2001/REC-SVG-20010904/DTD/svg10.dtd">
<svg version="1.0" xmlns="http://www.w3.org/2000/svg"
 width="400.000000pt" height="400.000000pt" viewBox="0 0 400.000000 400.000000"
 preserveAspectRatio="xMidYMid meet">

<g transform="translate(0.000000,400.000000) scale(0.100000,-0.100000)"
fill="#000000" stroke="none">
<path d="M2255 3919 c-71 -38 -134 -99 -141 -136 -7 -37 -23 -39 -40 -4 -17
34 -27 9 -19 -48 6 -47 6 -48 -27 -61 -43 -17 -100 -51 -95 -57 3 -2 20 5 38
16 19 10 44 22 57 26 41 12 22 -11 -34 -40 -79 -43 -90 -49 -121 -73 -51 -39
-68 -54 -54 -46 9 5 12 3 7 -5 -4 -6 -11 -9 -16 -6 -5 3 -13 -2 -18 -10 -5 -9
-15 -17 -23 -18 -8 -2 -20 -6 -26 -10 -7 -5 -13 -4 -13 1 0 11 55 64 61 58 2
-2 13 8 24 22 19 27 19 27 0 12 -11 -8 -49 -41 -84 -72 -35 -32 -68 -58 -72
-58 -4 0 -50 36 -101 81 -93 80 -203 159 -224 159 -5 0 -18 -6 -28 -13 -36
-26 -18 -404 29 -628 8 -39 18 -75 21 -80 3 -5 -11 -23 -31 -40 -20 -18 -47
-54 -61 -80 -28 -57 -29 -59 -9 -59 19 0 19 4 -10 -54 -25 -49 -31 -77 -18
-89 3 -4 12 -2 20 4 9 8 13 8 13 1 0 -6 -4 -14 -10 -17 -20 -12 -9 -25 59 -65
39 -23 75 -48 82 -56 8 -9 16 -75 22 -167 5 -84 15 -169 22 -190 9 -24 10 -35
3 -30 -8 4 -9 0 -3 -13 4 -10 8 -27 9 -36 0 -9 5 -14 10 -11 6 4 6 -1 1 -13
-10 -26 -7 -85 10 -169 8 -38 16 -99 18 -135 3 -36 12 -86 20 -111 9 -25 20
-76 26 -115 6 -38 21 -112 34 -164 28 -117 26 -132 -17 -127 -17 2 -37 7 -44
11 -15 9 -111 10 -120 2 -2 -3 1 -12 8 -21 8 -9 8 -15 2 -15 -6 0 -17 9 -25
21 -15 20 -15 20 -47 -8 l-32 -29 12 -59 c11 -55 33 -98 67 -133 14 -14 96
-11 190 7 23 5 41 5 38 2 -2 -4 5 -59 16 -122 10 -62 19 -136 19 -162 l0 -49
-67 7 c-38 4 -104 17 -148 30 -44 13 -99 28 -123 35 -24 6 -52 20 -63 31 -10
10 -19 17 -19 15 0 -3 -17 13 -39 34 -21 21 -51 45 -67 54 -16 8 -51 42 -79
74 -41 48 -59 61 -99 72 -37 9 -50 10 -56 1 -4 -7 -29 -14 -56 -17 -46 -5 -48
-5 -29 11 11 8 -5 3 -35 -12 -83 -43 -200 -199 -200 -269 0 -20 70 -106 140
-173 69 -66 333 -171 430 -171 24 0 40 -3 36 -7 -4 -4 -48 -6 -99 -4 -51 2
-114 4 -140 5 -27 1 -51 -2 -53 -6 -3 -4 1 -8 8 -8 7 0 0 -9 -17 -20 l-30 -20
33 -6 c21 -4 29 -10 21 -14 -6 -5 32 -11 85 -15 93 -7 98 -6 123 16 22 20 21
17 -6 -19 -42 -54 -37 -60 74 -98 70 -25 98 -29 228 -32 117 -3 163 0 225 14
42 10 104 19 137 20 33 1 125 8 205 17 116 12 682 33 815 30 17 0 123 -4 237
-8 183 -7 217 -6 284 10 45 11 83 26 95 38 24 26 24 30 -1 52 -11 10 -17 22
-14 27 10 16 -85 96 -153 130 -48 23 -81 32 -137 36 l-74 4 47 58 c25 32 49
54 52 48 4 -5 9 -2 13 7 3 9 4 20 1 24 -2 5 9 21 25 36 17 16 30 34 30 41 0 7
12 26 26 43 15 18 24 38 20 47 -3 8 -2 13 2 10 4 -2 7 17 7 42 0 45 4 51 72
122 76 79 121 153 143 233 7 27 19 51 26 54 7 2 20 37 29 76 20 82 22 311 4
440 -5 42 -7 81 -4 87 3 5 -9 32 -27 61 -17 29 -34 47 -36 40 -2 -6 0 -17 6
-24 9 -13 24 -67 41 -152 19 -95 22 -138 15 -212 -6 -66 -9 -73 -27 -71 -15 2
-23 -6 -32 -32 l-13 -35 -4 30 c-3 25 -7 18 -23 -42 -10 -39 -23 -69 -28 -66
-5 3 -6 14 -4 25 7 24 -1 17 -18 -14 -6 -13 -17 -22 -24 -20 -7 1 -10 -2 -7
-7 3 -5 -1 -14 -9 -21 -8 -7 -15 -17 -15 -22 0 -5 -10 -19 -23 -31 -12 -12
-34 -38 -48 -57 -15 -19 -49 -60 -77 -90 -42 -45 -53 -52 -65 -42 -12 11 -18
8 -34 -12 -19 -24 -20 -24 -44 -5 -13 10 -35 19 -49 18 -20 0 -22 -1 -9 -9 30
-17 52 -60 39 -75 -6 -8 -18 -11 -26 -8 -8 3 -25 -2 -39 -11 -23 -15 -25 -15
-25 0 0 12 -13 3 -40 -27 -22 -24 -40 -38 -40 -31 0 17 -20 15 -42 -5 -11 -9
-18 -11 -18 -5 0 7 -4 12 -10 12 -5 0 -10 -7 -10 -15 0 -8 -5 -15 -12 -15 -6
0 -22 -10 -35 -22 -13 -12 -23 -17 -23 -11 0 6 -8 9 -18 6 -11 -3 -25 7 -41
27 -22 30 -22 32 -3 26 12 -4 24 -2 28 5 5 9 2 10 -9 6 -9 -3 -19 -1 -23 5 -4
7 -10 5 -16 -6 -7 -12 -5 -22 5 -34 19 -22 31 -62 19 -62 -12 0 -24 29 -17 40
3 4 -1 10 -9 13 -16 6 -80 -25 -112 -54 -21 -20 -39 -26 -30 -10 9 14 -33 20
-66 9 -23 -8 -32 -8 -38 2 -4 7 -12 10 -18 6 -6 -3 -8 2 -5 13 3 12 -2 20 -16
24 -12 3 -21 1 -21 -5 0 -6 -7 -8 -15 -4 -8 3 -20 -3 -28 -14 -17 -25 -30 -14
-16 14 9 19 9 19 -4 4 -20 -25 -30 -22 -22 5 4 15 4 18 -3 8 -5 -7 -15 -10
-21 -7 -6 4 -11 2 -11 -3 0 -6 -7 -11 -15 -11 -9 0 -12 6 -9 15 4 8 1 15 -5
15 -6 0 -19 8 -28 18 -22 22 -83 143 -83 164 0 9 -7 19 -16 22 -10 4 -13 13
-9 27 10 31 -3 89 -21 89 -10 0 -13 -7 -8 -25 11 -44 -3 -27 -20 24 -9 28 -15
67 -15 88 1 33 3 31 11 -20 10 -56 19 -65 48 -47 13 8 13 11 1 22 -9 8 -11 9
-7 1 3 -6 2 -14 -2 -17 -10 -6 -22 86 -22 159 0 24 7 59 15 79 8 20 18 60 20
88 3 29 7 62 10 73 10 49 20 232 19 355 0 132 -5 159 -53 345 -12 46 -9 52 22
38 12 -5 43 -17 69 -26 40 -13 46 -13 41 -1 -3 8 -12 14 -20 14 -17 0 -203
182 -203 199 0 6 -8 19 -19 30 -18 18 -18 19 15 29 23 7 36 7 40 0 4 -6 10 -5
15 3 6 11 12 9 29 -8 27 -29 26 -31 -15 -39 -34 -6 -53 -20 -42 -30 3 -3 26 2
52 10 45 16 48 16 82 -5 21 -13 32 -27 29 -35 -3 -8 1 -14 9 -14 8 0 15 -8 15
-18 0 -45 75 -65 115 -32 8 7 19 9 24 5 7 -4 8 1 5 12 -6 17 -6 17 7 1 18 -23
95 -36 189 -33 72 3 165 12 203 20 9 2 14 -1 11 -7 -4 -6 20 -8 67 -4 118 8
133 8 157 1 12 -4 22 -11 22 -15 0 -5 7 -10 16 -12 18 -3 -58 -48 -82 -48 -8
0 -14 -4 -14 -9 0 -5 -10 -13 -22 -17 -13 -4 -36 -18 -52 -31 -16 -14 -47 -31
-68 -40 -21 -9 -37 -17 -35 -19 12 -12 246 44 480 116 16 5 27 5 27 -1 0 -6 8
-6 19 1 25 13 68 13 76 0 4 -6 10 -8 15 -5 5 3 23 -1 41 -10 57 -30 40 -9 -22
26 -33 19 -72 43 -85 54 l-24 20 25 42 c18 30 30 40 41 36 13 -5 15 -1 10 15
-6 17 -1 21 23 27 22 5 31 14 36 33 4 17 22 38 51 57 43 29 84 82 84 109 0 31
29 47 130 70 58 14 92 25 75 25 -16 1 -68 -9 -114 -21 -61 -15 -86 -18 -89
-10 -2 7 -8 12 -13 12 -6 0 -7 -5 -3 -12 4 -7 3 -8 -5 -4 -6 4 -8 12 -5 18 13
20 180 92 254 109 l75 17 -51 1 c-55 1 -116 -20 -221 -76 -73 -39 -78 -39
-120 -13 l-32 19 20 46 c25 57 19 133 -15 171 -23 26 -111 48 -241 60 -60 5
-67 8 -52 19 16 12 14 14 -24 20 -25 4 -37 10 -30 15 8 4 1 9 -18 13 -23 5
-31 12 -32 29 -1 13 -4 83 -8 157 -5 120 -8 134 -24 137 -51 7 -57 23 -33 90
12 35 11 49 -10 133 -12 52 -27 98 -32 103 -11 11 -115 -99 -106 -113 3 -5 1
-9 -5 -9 -6 0 -17 -13 -26 -30 -18 -35 -19 -44 -3 -34 7 5 8 3 4 -5 -5 -7 -11
-10 -14 -7 -3 3 -11 -2 -18 -12 -12 -18 -16 -18 -101 4 -48 13 -113 23 -143
24 l-55 1 68 33 c79 38 101 56 71 56 -12 0 -24 3 -28 7 -12 12 -124 4 -161
-11 -19 -8 -35 -11 -35 -7 0 4 18 33 40 64 22 30 40 58 40 61 0 13 -37 5 -75
-15z m-57 -382 c8 -10 6 -13 -8 -13 -10 0 -16 4 -14 8 3 4 -2 5 -11 1 -13 -4
-14 -8 -4 -14 10 -6 10 -11 -2 -25 -8 -10 -9 -15 -2 -11 6 4 14 3 18 -3 3 -5
2 -10 -4 -10 -6 0 -8 -7 -5 -15 4 -10 -9 -21 -43 -36 -74 -34 -140 -94 -168
-152 -13 -28 -21 -54 -18 -57 3 -3 8 1 10 8 3 7 16 26 29 41 13 16 24 33 24
39 0 16 60 63 107 84 29 13 48 16 65 9 17 -7 19 -10 8 -14 -118 -36 -153 -59
-197 -129 -22 -35 -33 -66 -33 -91 0 -43 -16 -81 -31 -72 -5 4 -9 18 -9 32 0
14 -7 31 -15 37 -20 15 -32 165 -15 205 6 16 29 43 51 61 22 17 36 36 33 42
-4 7 -2 8 4 4 6 -4 33 9 60 28 37 25 56 33 78 29 21 -3 25 -2 15 5 -11 8 -10
11 5 15 36 9 62 7 72 -6z m-293 -86 c-3 -6 -11 -11 -17 -11 -6 0 -6 6 2 15 14
17 26 13 15 -4z m-66 -78 c-10 -17 -16 -18 -35 -9 -13 6 -24 15 -24 19 0 4 10
2 22 -4 18 -10 24 -9 32 4 6 9 12 14 14 12 2 -1 -2 -12 -9 -22z m836 -13 c4
-6 10 -8 14 -5 25 15 75 -112 60 -151 -5 -16 -18 -23 -48 -26 -39 -3 -40 -2
-56 39 -17 44 -47 73 -76 73 -12 0 -16 -6 -12 -19 5 -21 -12 -37 -22 -21 -8
13 3 65 12 57 3 -4 24 9 46 28 41 35 70 44 82 25z m-937 -35 c6 -2 12 -9 12
-15 0 -7 -6 -8 -19 0 -11 5 -31 10 -45 10 -14 0 -26 4 -26 9 0 8 52 6 78 -4z
m538 -57 c46 -42 90 -104 47 -66 -10 10 -30 19 -44 20 -19 2 -24 -1 -22 -18 2
-14 -4 -24 -17 -27 -27 -7 -27 -79 -1 -131 l20 -38 -22 5 c-12 3 -69 11 -127
18 -58 6 -109 15 -113 19 -10 9 -12 98 -4 125 9 25 65 59 94 56 12 -1 32 3 45
10 27 14 80 20 72 7 -3 -4 1 -8 8 -8 15 0 48 20 33 20 -5 0 -4 4 3 9 10 6 4
12 -20 24 -20 10 -26 17 -15 17 9 0 38 -19 63 -42z m-571 12 c3 -6 -4 -10 -17
-10 -18 0 -20 2 -8 10 19 12 18 12 25 0z m-101 -11 c-4 -7 -44 0 -44 7 0 2 11
3 24 2 14 -1 23 -5 20 -9z m51 1 c3 -5 -1 -10 -9 -10 -9 0 -16 5 -16 10 0 6 4
10 9 10 6 0 13 -4 16 -10z m68 -37 c15 -3 27 -9 27 -14 0 -4 -15 -3 -32 3 -18
5 -41 10 -51 10 -9 -1 -15 4 -11 9 3 6 13 7 23 4 9 -4 28 -9 44 -12z m52 -23
c3 -5 1 -10 -4 -10 -6 0 -11 5 -11 10 0 6 2 10 4 10 3 0 8 -4 11 -10z m-105
-9 c0 -6 -9 -9 -19 -8 -11 0 -17 5 -15 9 7 11 34 10 34 -1z m85 -21 c17 -7 15
-9 -13 -9 -18 -1 -46 -8 -61 -16 -26 -13 -30 -13 -41 0 -11 13 -8 15 19 15 17
0 31 5 31 10 0 12 37 12 65 0z m-165 -49 c0 -5 -10 -11 -22 -14 -22 -6 -22 -6
-4 8 23 17 26 18 26 6z m1275 -31 c-7 -11 -4 -13 77 -30 33 -8 55 -17 51 -23
-4 -6 2 -8 15 -5 12 3 24 1 27 -6 3 -8 7 -8 11 2 3 6 15 12 25 12 11 0 18 -4
14 -9 -12 -21 18 -21 52 -1 24 14 32 16 24 6 -20 -23 -134 -75 -204 -91 -57
-14 -179 -25 -426 -40 -51 -3 -98 -8 -105 -11 -6 -3 -1 4 12 15 14 12 46 23
75 27 37 5 46 9 32 14 -11 4 -23 6 -27 3 -5 -2 -8 1 -8 6 0 6 7 11 16 11 11 0
14 6 9 20 -5 16 1 23 34 36 23 9 41 20 41 25 0 4 17 11 38 15 20 4 42 11 48
16 8 5 13 2 17 -12 8 -31 90 -29 120 4 22 24 44 35 32 16z m-1218 -6 c-3 -3
-12 -4 -19 -1 -8 3 -5 6 6 6 11 1 17 -2 13 -5z m-82 -14 c-3 -5 -12 -10 -18
-10 -7 0 -6 4 3 10 19 12 23 12 15 0z m200 0 c17 -7 15 -9 -12 -9 -37 -1 -133
-42 -153 -66 -7 -8 -17 -15 -23 -15 -19 0 37 52 83 76 48 25 73 28 105 14z
m795 -14 c0 -5 -69 -46 -78 -46 -3 0 9 11 28 25 33 23 50 30 50 21z m-785 -16
c4 -6 -1 -7 -11 -3 -12 4 -15 3 -10 -5 5 -9 -7 -12 -41 -11 l-48 1 30 13 c36
17 71 19 80 5z m-225 -30 c0 -5 -5 -10 -11 -10 -5 0 -7 5 -4 10 3 6 8 10 11
10 2 0 4 -4 4 -10z m231 -4 c-6 -7 -31 -16 -56 -19 -25 -4 -57 -10 -72 -13
-20 -5 -25 -3 -18 4 6 6 24 13 40 17 17 3 46 9 65 14 50 13 54 13 41 -3z m159
-71 c9 5 25 -13 25 -29 0 -5 6 -11 13 -14 8 -2 10 2 5 14 -3 9 -2 15 3 12 56
-27 94 -41 123 -45 20 -4 39 -11 43 -17 8 -12 79 4 137 33 29 14 42 15 54 7
13 -10 13 -15 0 -40 -8 -15 -12 -30 -9 -33 3 -3 10 7 16 22 6 15 13 26 15 23
3 -2 -1 -18 -7 -35 -14 -38 -1 -74 36 -98 32 -21 125 -56 156 -59 14 -2 36 -8
49 -15 21 -12 23 -11 18 3 -8 21 2 20 20 -1 8 -10 11 -12 7 -4 -5 10 -3 12 5
7 9 -6 9 -11 -1 -24 -12 -14 -9 -15 22 -8 19 5 46 9 60 10 14 1 24 7 22 14 -2
10 3 10 18 2 25 -13 26 -21 3 -14 -14 5 -15 4 -4 -4 7 -5 29 -7 48 -5 18 3 42
1 51 -2 14 -7 13 -9 -8 -15 -25 -8 -25 -8 4 -9 l29 -1 -37 -25 c-80 -54 -173
-83 -304 -94 -171 -15 -321 8 -437 67 -46 23 -48 25 -27 33 34 13 26 22 -13
16 -26 -4 -40 -1 -57 15 -17 14 -18 18 -6 14 10 -3 20 -1 23 4 4 6 -7 10 -24
10 -22 0 -37 9 -55 33 -15 19 -26 37 -26 40 0 10 70 8 108 -2 17 -5 32 -6 32
-1 0 12 -24 19 -95 26 l-64 7 -15 46 c-8 25 -16 59 -19 75 -5 27 -4 28 32 23
l36 -6 -40 35 c-40 35 -40 35 -7 19 18 -9 37 -13 42 -10z m1381 -155 c-7 -3
-9 -14 -5 -23 4 -12 -2 -20 -22 -27 -20 -8 -24 -14 -16 -22 8 -8 16 -7 28 3
11 8 15 9 11 2 -11 -17 -94 -53 -130 -56 -35 -2 -59 25 -39 45 11 11 12 10 7
-4 -5 -12 -2 -18 7 -18 21 0 29 11 18 25 -8 9 -5 14 9 18 11 3 22 -1 25 -9 8
-21 38 -5 31 16 -3 10 -1 21 5 25 5 3 10 1 10 -4 0 -6 12 -11 26 -11 32 0 27
22 -7 31 -24 6 -21 9 21 22 20 6 35 -4 21 -13z m-1461 -80 c4 -14 13 -24 20
-22 18 4 32 -21 17 -30 -7 -4 -30 -8 -52 -8 -26 0 -35 3 -27 9 11 6 11 17 3
45 -9 35 -8 37 12 34 13 -2 24 -13 27 -28z m1000 -175 c0 -7 -58 -35 -72 -34
-7 0 5 9 27 19 48 22 45 21 45 15z m-701 -19 l24 -13 -24 -17 c-35 -24 -49
-20 -49 14 0 33 12 37 49 16z m-649 -440 c0 -3 -4 -8 -10 -11 -5 -3 -10 -1
-10 4 0 6 5 11 10 11 6 0 10 -2 10 -4z m215 -831 c-1 -14 -5 -28 -8 -32 -4 -3
-7 -11 -7 -17 0 -6 11 3 24 19 28 34 39 23 33 -31 -6 -46 -71 -133 -110 -147
-10 -4 -16 -11 -13 -16 10 -16 -59 -33 -185 -47 -52 -6 -57 -5 -77 21 -27 34
-28 51 -4 65 16 10 16 10 -2 8 -10 -2 -21 2 -23 8 -5 15 55 24 120 17 42 -4
62 -1 96 16 24 13 45 20 49 17 3 -3 10 4 17 17 8 15 8 24 1 29 -8 5 -7 8 1 8
6 0 14 14 18 30 8 34 25 41 25 9 0 -33 25 -16 28 19 4 38 18 44 17 7z m-95
-15 c0 -17 -15 -11 -28 11 -12 19 -11 19 8 9 11 -6 20 -15 20 -20z m-195 -78
c-3 -3 -11 0 -18 7 -9 10 -8 11 6 5 10 -3 15 -9 12 -12z m-705 -222 c0 -5 -2
-10 -4 -10 -3 0 -8 5 -11 10 -3 6 -1 10 4 10 6 0 11 -4 11 -10z m737 -286 c-3
-3 -12 -4 -19 -1 -8 3 -5 6 6 6 11 1 17 -2 13 -5z m-736 -121 c13 -16 12 -17
-3 -4 -10 7 -18 15 -18 17 0 8 8 3 21 -13z m1747 11 c31 -9 28 -28 -15 -101
-25 -41 -44 -63 -57 -63 -10 0 -24 -7 -30 -15 -15 -20 -280 -25 -299 -6 -9 10
-8 11 6 6 10 -4 17 -2 17 4 0 6 -8 11 -19 11 -14 0 -17 6 -14 25 4 17 15 27
42 36 20 6 74 25 121 42 68 25 191 62 220 66 3 0 15 -2 28 -5z"/>
<path d="M2647 3063 c-14 -13 -7 -33 11 -33 19 0 42 18 42 32 0 10 -44 11 -53
1z"/>
<path d="M2837 3063 c-14 -13 -6 -24 15 -21 27 4 36 28 11 28 -11 0 -23 -3
-26 -7z"/>
<path d="M2693 3033 c-21 -8 -15 -33 8 -33 25 0 59 17 59 30 0 10 -45 12 -67
3z"/>
<path d="M2586 3008 c-21 -12 -20 -25 3 -31 20 -5 51 9 51 22 0 13 -35 19 -54
9z"/>
<path d="M2712 2969 c2 -6 7 -10 11 -10 4 1 14 1 22 1 8 0 15 5 15 10 0 6 -12
10 -26 10 -14 0 -24 -5 -22 -11z"/>
<path d="M2332 2614 c-29 -20 -20 -34 23 -34 33 0 64 28 48 44 -11 11 -48 6
-71 -10z"/>
<path d="M2670 2607 c-14 -7 -26 -23 -28 -35 -3 -19 1 -22 32 -22 32 0 66 20
66 40 0 8 -32 30 -42 30 -2 0 -14 -6 -28 -13z"/>
<path d="M2785 2600 c-3 -5 -1 -10 4 -10 6 0 11 5 11 10 0 6 -2 10 -4 10 -3 0
-8 -4 -11 -10z"/>
<path d="M2527 2584 c-4 -4 -4 -10 -1 -15 6 -10 34 0 34 12 0 10 -24 12 -33 3z"/>
<path d="M2400 2549 c0 -5 5 -7 10 -4 6 3 10 8 10 11 0 2 -4 4 -10 4 -5 0 -10
-5 -10 -11z"/>
<path d="M2578 2543 c7 -3 16 -2 19 1 4 3 -2 6 -13 5 -11 0 -14 -3 -6 -6z"/>
<path d="M3205 2690 c-3 -5 1 -10 9 -10 9 0 16 5 16 10 0 6 -4 10 -9 10 -6 0
-13 -4 -16 -10z"/>
<path d="M1685 1140 c-3 -5 -1 -10 4 -10 6 0 11 5 11 10 0 6 -2 10 -4 10 -3 0
-8 -4 -11 -10z"/>
<path d="M1873 3579 c-35 -22 -46 -37 -15 -20 22 13 58 40 52 41 -3 0 -20 -10
-37 -21z"/>
<path d="M3683 2883 c9 -2 25 -2 35 0 9 3 1 5 -18 5 -19 0 -27 -2 -17 -5z"/>
<path d="M3450 2773 c0 -5 26 -9 58 -10 39 -1 51 1 37 7 -25 11 -95 13 -95 3z"/>
<path d="M3315 2253 c36 -53 70 -111 77 -130 7 -18 16 -33 21 -33 5 0 7 -7 3
-15 -3 -8 8 -36 24 -62 17 -26 30 -43 30 -39 0 5 7 3 15 -4 12 -10 15 -9 15 4
0 19 -25 73 -45 96 -7 8 -27 42 -45 75 l-32 60 31 -33 c42 -44 39 -24 -5 35
-36 48 -132 142 -147 143 -4 0 22 -43 58 -97z"/>
<path d="M2110 930 c0 -5 7 -10 16 -10 8 0 12 5 9 10 -3 6 -10 10 -16 10 -5 0
-9 -4 -9 -10z"/>
<path d="M2370 860 c0 -5 5 -10 10 -10 6 0 10 5 10 10 0 6 -4 10 -10 10 -5 0
-10 -4 -10 -10z"/>
</g>
</svg>
