<?xml version="1.0" standalone="no"?>
<!DOCTYPE svg PUBLIC "-//W3C//DTD SVG 20010904//EN"
 "http://www.w3.org/TR/2001/REC-SVG-20010904/DTD/svg10.dtd">
<svg version="1.0" xmlns="http://www.w3.org/2000/svg"
 width="828.000000pt" height="828.000000pt" viewBox="0 0 828.000000 828.000000"
 preserveAspectRatio="xMidYMid meet">

<g transform="translate(0.000000,828.000000) scale(0.100000,-0.100000)"
fill="#000000" stroke="none">
<path d="M1869 6484 c-1 -2 -2 -8 -3 -14 -1 -11 -9 -12 -33 -3 -9 4 -19 1 -21
-5 -5 -16 -65 -15 -81 1 -10 10 -16 7 -31 -13 -15 -20 -20 -22 -34 -11 -25 21
-50 -3 -33 -31 9 -16 9 -22 0 -25 -8 -3 -9 -12 -3 -28 5 -12 6 -26 2 -29 -9
-10 -3 -79 8 -90 18 -18 10 -36 -15 -36 -28 0 -75 -20 -75 -32 0 -4 5 -8 11
-8 6 0 3 -7 -5 -16 -20 -20 -21 -78 -1 -98 8 -8 15 -19 15 -24 0 -21 27 -32
57 -23 21 6 35 5 43 -2 8 -9 16 -6 30 13 15 18 22 22 28 13 6 -9 16 -5 39 16
24 22 30 34 26 55 -3 15 -12 30 -19 33 -8 3 -11 9 -8 15 3 5 -3 16 -15 24 -13
9 -21 26 -21 42 0 15 -4 41 -9 59 -10 36 -4 48 16 32 9 -9 17 -8 27 0 9 7 17
8 20 2 8 -12 77 -11 94 2 8 7 12 5 12 -6 0 -9 7 -20 17 -25 21 -12 10 -42 -17
-42 -15 0 -20 -7 -20 -29 0 -17 -4 -33 -10 -36 -17 -11 -11 -35 9 -35 14 0 21
-8 23 -27 2 -22 8 -28 26 -26 14 2 22 -3 22 -12 0 -18 12 -19 27 -4 8 8 19 6
41 -5 27 -14 31 -14 45 2 8 9 20 34 26 54 16 49 -1 86 -49 110 -33 17 -34 20
-35 75 0 32 3 61 9 65 5 3 3 13 -7 22 -9 9 -19 26 -22 37 -6 17 -12 20 -37 15
-25 -5 -28 -3 -24 12 4 11 -2 21 -19 29 -14 6 -26 9 -26 7z"/>
<path d="M4105 6114 c-10 -11 -24 -14 -44 -9 -22 5 -32 2 -39 -12 -9 -16 -13
-16 -37 -3 -25 13 -28 13 -44 -8 -9 -13 -28 -29 -41 -35 -22 -11 -27 -10 -41
7 -14 17 -19 18 -33 7 -9 -7 -16 -20 -16 -27 0 -20 -28 -17 -32 3 -3 15 -4 15
-21 -1 -14 -14 -15 -21 -6 -32 9 -11 6 -14 -17 -12 -16 1 -35 6 -42 11 -10 8
-15 4 -19 -11 -3 -15 -13 -22 -29 -22 -13 0 -29 -9 -36 -20 -7 -11 -22 -20
-34 -20 -12 0 -24 -6 -27 -14 -3 -7 -19 -16 -35 -19 -35 -7 -98 -63 -79 -71 7
-2 0 -5 -14 -5 -21 -1 -28 -7 -32 -29 -4 -18 -22 -38 -52 -60 -26 -18 -45 -38
-42 -45 2 -6 -7 -20 -20 -30 -13 -10 -21 -23 -18 -28 4 -5 -6 -14 -20 -21
l-27 -12 24 -10 c22 -9 22 -9 3 -14 -24 -5 -35 -20 -35 -48 0 -11 -9 -29 -20
-39 -11 -10 -20 -25 -20 -34 0 -9 -9 -22 -20 -29 -12 -7 -20 -8 -20 -2 0 5
-13 10 -30 10 -24 0 -30 -4 -31 -22 l0 -23 -9 21 c-12 30 -26 37 -50 24 -15
-8 -25 -8 -34 -1 -10 8 -17 7 -26 -3 -6 -9 -9 -19 -6 -24 3 -5 -2 -21 -10 -36
-17 -33 -17 -39 -4 -31 9 6 15 -22 11 -53 -1 -8 3 -20 10 -28 6 -8 7 -14 2
-14 -9 0 -26 28 -37 63 -3 9 -10 17 -16 17 -9 0 -13 -36 -14 -101 0 -10 -5
-15 -13 -12 -23 9 -14 -16 13 -33 17 -12 22 -20 15 -27 -16 -16 -13 -24 9 -30
14 -3 20 -14 20 -31 0 -28 9 -33 28 -14 11 11 14 7 27 -39 2 -6 1 -14 -3 -18
-4 -4 -7 -30 -7 -57 0 -34 -5 -53 -13 -56 -8 -2 -12 3 -10 14 2 11 -4 20 -16
22 -14 3 -17 0 -12 -13 5 -14 3 -16 -11 -9 -39 17 -104 3 -73 -16 24 -15 2
-24 -27 -11 -23 11 -29 10 -39 -3 -6 -9 -22 -16 -35 -16 -14 0 -32 -9 -42 -20
-9 -11 -23 -20 -31 -20 -7 0 -16 -9 -19 -21 -3 -12 -10 -18 -17 -14 -6 3 -23
-7 -39 -24 -18 -19 -39 -31 -54 -31 -15 0 -38 -11 -53 -25 -15 -14 -31 -25
-36 -25 -5 0 -6 -9 -3 -20 5 -16 2 -20 -19 -20 -14 0 -26 -4 -26 -9 0 -6 -13
-30 -30 -54 -16 -25 -30 -52 -30 -60 0 -9 -4 -18 -9 -21 -4 -3 -11 -23 -15
-45 -3 -22 -11 -52 -18 -68 -6 -15 -12 -30 -12 -33 -1 -3 -4 -10 -8 -15 -8
-13 -3 -88 6 -104 4 -6 3 -19 -2 -28 -17 -33 -23 -86 -9 -80 8 3 12 -7 12 -32
0 -33 2 -36 25 -32 24 3 25 3 7 -17 -16 -17 -16 -23 -5 -41 7 -12 16 -21 20
-21 5 0 8 -7 8 -15 0 -7 6 -18 13 -22 8 -4 16 -16 20 -25 3 -10 15 -18 26 -18
12 0 21 -9 25 -25 4 -14 11 -25 16 -25 6 0 10 -8 10 -19 0 -26 25 -44 50 -36
24 8 24 10 6 -60 -11 -41 -12 -63 -4 -86 6 -16 8 -43 5 -58 -3 -16 -1 -46 5
-67 6 -22 11 -49 10 -61 -1 -11 5 -24 13 -27 10 -4 13 -14 9 -34 -4 -19 1 -40
15 -63 12 -19 21 -42 21 -51 0 -16 11 -22 32 -19 4 0 5 -5 3 -12 -9 -24 47
-142 73 -152 6 -2 12 2 12 9 0 7 6 19 14 25 12 10 15 7 14 -17 -1 -37 8 -52
34 -52 11 0 22 -8 25 -20 5 -19 19 -24 56 -20 13 1 17 -4 15 -17 -2 -12 2 -17
14 -15 12 2 16 -2 12 -12 -8 -21 17 -32 28 -12 13 23 27 20 21 -5 -8 -30 18
-20 34 12 10 18 13 20 13 7 0 -26 15 -22 45 9 28 31 33 61 10 69 -8 4 -15 12
-15 18 0 16 -51 53 -84 62 -14 3 -26 10 -26 15 0 5 -12 15 -27 22 -28 12 -89
73 -110 111 -7 11 -28 55 -47 96 -31 67 -32 75 -17 86 15 11 14 15 -7 43 -12
17 -22 40 -22 53 -1 13 -7 49 -14 80 -8 31 -11 60 -8 63 4 4 5 34 4 67 -2 41
1 65 11 76 8 10 22 50 32 91 13 54 23 75 36 78 11 3 19 13 19 22 0 9 9 24 20
34 12 10 20 29 20 47 0 20 7 33 23 41 28 16 46 40 40 56 -3 7 14 34 36 61 23
26 41 56 41 65 0 9 6 17 13 17 8 0 31 21 53 48 28 34 47 48 69 50 48 4 59 10
46 25 -8 10 -3 19 21 37 21 15 33 19 36 12 2 -7 7 -12 11 -12 12 0 61 48 61
60 0 5 9 10 19 10 11 0 23 5 26 10 10 16 43 12 53 -6 8 -14 12 -13 35 9 15 13
27 29 27 36 0 6 9 11 20 11 12 0 38 9 60 20 22 11 52 20 67 20 44 0 104 20
110 37 4 11 14 13 35 9 16 -3 39 -1 49 5 15 8 24 7 35 -2 11 -9 18 -9 26 -1 7
7 19 12 27 12 9 1 28 20 43 43 26 41 27 43 9 57 -17 14 -19 29 -16 160 4 148
11 189 55 286 31 70 101 174 117 174 8 0 24 6 36 14 26 16 107 28 107 16 0 -5
14 -17 30 -27 29 -17 30 -20 30 -93 0 -58 -7 -99 -31 -170 -17 -52 -32 -113
-35 -135 -8 -83 -14 -108 -29 -125 -8 -9 -15 -25 -15 -36 0 -11 -5 -25 -11
-31 -17 -17 -6 -66 18 -79 16 -7 19 -14 12 -21 -7 -7 -7 -13 0 -17 5 -4 15 3
21 14 14 27 44 27 37 0 -3 -11 -1 -22 4 -25 4 -3 11 5 15 19 3 14 12 30 20 37
11 9 15 6 20 -20 4 -17 12 -31 19 -31 8 0 11 8 8 20 -4 14 0 20 12 20 12 0 15
-5 10 -19 -8 -27 30 -39 55 -16 17 16 19 15 30 -4 9 -17 15 -19 30 -11 25 14
62 -4 54 -25 -5 -12 2 -14 39 -9 27 4 47 2 51 -4 4 -6 14 -8 23 -5 10 4 14 2
10 -4 -12 -20 17 -21 45 -1 26 18 27 18 30 -4 2 -12 9 -23 16 -26 9 -3 12 18
13 80 2 150 6 182 39 310 25 94 38 128 50 131 13 3 16 12 13 29 -4 19 2 31 21
46 14 11 26 27 26 36 0 9 5 16 12 16 6 0 21 9 33 20 12 12 45 24 72 29 44 7
52 5 62 -11 8 -13 18 -17 31 -13 15 5 20 2 20 -11 0 -10 8 -26 18 -37 13 -15
17 -38 17 -111 0 -50 -3 -94 -8 -97 -4 -3 -10 -30 -14 -60 -3 -30 -10 -59 -15
-65 -4 -6 -6 -19 -2 -27 3 -9 -3 -29 -13 -44 -29 -44 -64 -120 -61 -135 2 -7
-2 -12 -8 -11 -13 3 -28 -43 -19 -57 3 -4 15 -6 27 -2 14 3 19 2 14 -6 -4 -7
-14 -12 -22 -12 -17 0 -17 -1 -4 -34 5 -14 16 -26 23 -26 8 0 18 -10 23 -21 7
-15 21 -23 45 -25 44 -5 77 -22 112 -56 15 -16 33 -28 40 -28 6 0 19 -5 27
-10 11 -7 6 -8 -16 -4 -20 4 -36 1 -46 -9 -8 -8 -22 -16 -32 -18 -22 -5 -16
-25 7 -22 20 3 23 -12 4 -20 -7 -3 -25 -3 -39 0 -26 5 -53 -17 -30 -25 7 -2
12 -13 12 -25 0 -20 -1 -20 -14 -2 -13 18 -13 18 -25 -1 -12 -18 -12 -17 -7 4
3 15 0 22 -7 19 -14 -4 -24 -45 -26 -100 -1 -30 -6 -40 -26 -49 -16 -7 -27
-22 -31 -44 -3 -18 -17 -42 -30 -55 -25 -23 -32 -49 -14 -49 6 0 10 5 10 10 0
6 7 10 16 10 14 0 14 -3 4 -15 -7 -8 -21 -15 -31 -15 -14 0 -18 -7 -17 -27 1
-16 7 -31 13 -35 5 -4 -5 -8 -23 -8 -45 0 -72 -16 -72 -42 0 -12 -8 -30 -17
-40 -14 -16 -15 -23 -5 -38 16 -26 3 -33 -72 -38 -34 -2 -66 -8 -73 -14 -7 -5
-17 -7 -23 -3 -12 7 -17 -5 -23 -62 -4 -37 -2 -42 19 -47 14 -4 34 -2 45 5 18
9 20 8 17 -13 -2 -16 -9 -22 -21 -20 -16 3 -18 -1 -12 -30 4 -18 12 -35 17
-36 5 -2 4 -10 -2 -17 -15 -18 6 -31 25 -15 12 10 18 10 29 1 12 -10 17 -7 28
16 7 15 22 29 33 32 15 2 17 0 9 -10 -15 -20 -11 -44 6 -44 8 0 19 10 25 23
11 26 38 30 33 5 -5 -32 10 -44 38 -31 20 10 27 9 35 -3 12 -19 11 -25 -7 -43
-12 -13 -20 -14 -36 -5 -12 6 -41 9 -64 6 -24 -2 -44 -1 -44 4 0 16 -47 9 -70
-9 -18 -14 -21 -25 -16 -45 6 -24 10 -26 48 -23 l43 5 -25 -20 c-30 -22 -14
-26 18 -3 29 20 62 10 62 -19 0 -17 -6 -23 -27 -25 -34 -3 -46 -14 -41 -38 2
-12 11 -18 21 -16 13 2 17 -2 15 -15 -4 -26 58 -31 78 -6 13 17 13 17 14 -4 0
-33 16 -36 49 -12 28 20 69 21 57 1 -3 -5 1 -18 10 -28 13 -17 16 -17 26 -3 9
13 17 14 45 6 31 -10 32 -12 17 -28 -15 -16 -13 -18 30 -24 40 -6 46 -10 41
-26 -5 -16 -1 -19 27 -20 18 -1 40 -2 49 -3 9 -1 22 -6 31 -13 11 -9 24 -10
53 -2 27 8 40 8 45 0 7 -12 67 -4 75 9 3 4 30 6 61 4 48 -4 55 -2 45 10 -15
18 -2 28 47 33 l35 4 -6 -78 c-4 -48 -14 -93 -27 -118 -11 -21 -20 -47 -20
-56 0 -10 -8 -20 -18 -24 -28 -8 -127 -116 -115 -123 6 -4 10 -18 9 -32 -1
-23 2 -25 38 -22 35 3 38 1 33 -17 -4 -16 0 -21 14 -21 11 0 19 7 19 16 0 10
6 13 18 10 24 -8 42 6 51 40 5 19 15 30 28 32 13 2 24 13 27 28 4 13 14 33 24
43 31 32 45 63 32 71 -8 5 -6 11 5 20 12 10 15 24 10 57 -3 24 -1 52 4 62 7
11 7 29 1 47 -30 96 -40 225 -20 249 5 7 7 15 3 18 -3 4 2 7 13 7 11 0 24 10
29 22 17 39 42 34 66 -14 13 -24 22 -46 21 -50 -1 -5 6 -8 15 -8 14 0 15 -2 5
-9 -10 -6 -10 -10 3 -21 9 -7 15 -23 13 -34 -1 -12 1 -26 4 -31 9 -15 12 -150
4 -163 -4 -7 -4 -12 0 -12 4 0 0 -8 -9 -18 -9 -9 -22 -40 -29 -67 -23 -93 -87
-190 -139 -212 -17 -7 -29 -20 -31 -35 -2 -15 -9 -22 -20 -20 -11 2 -23 -9
-33 -28 -13 -24 -22 -30 -50 -30 -42 0 -83 -18 -89 -39 -3 -9 -3 -38 -2 -66 2
-27 -1 -56 -7 -62 -5 -7 -7 -22 -4 -32 3 -11 -1 -52 -9 -91 -7 -40 -13 -75
-12 -78 1 -4 -3 -16 -9 -28 -7 -12 -8 -26 -3 -34 5 -9 5 -19 -2 -27 -6 -7 -8
-26 -5 -43 4 -19 2 -32 -6 -37 -16 -10 -47 -75 -47 -98 0 -9 -5 -25 -11 -36
-7 -14 -7 -24 0 -33 12 -14 -18 -47 -51 -59 -10 -4 -18 -13 -18 -22 0 -8 -6
-15 -14 -15 -8 0 -18 -9 -21 -20 -3 -11 -14 -20 -23 -20 -26 0 -17 -87 9 -95
14 -5 18 -12 14 -26 -4 -10 -3 -19 2 -19 11 0 33 -49 33 -72 0 -10 6 -21 14
-24 8 -3 12 -12 10 -19 -3 -7 -1 -16 5 -20 6 -3 11 -24 11 -45 0 -21 5 -40 11
-42 9 -3 9 -9 1 -25 -9 -16 -9 -22 0 -25 8 -3 8 -9 -1 -25 -6 -12 -11 -36 -11
-53 0 -30 -33 -90 -49 -90 -4 0 -17 9 -29 21 -13 11 -28 19 -35 16 -7 -2 -18
8 -25 22 -20 41 -37 69 -54 88 -9 10 -19 41 -23 68 -4 28 -18 72 -31 98 -13
27 -24 64 -24 83 0 19 -5 34 -11 34 -6 0 -9 7 -6 15 4 8 2 17 -2 20 -5 2 -12
21 -15 40 -4 21 -13 35 -22 35 -8 0 -23 6 -35 12 -17 11 -22 10 -33 -4 -7 -10
-23 -18 -34 -18 -11 0 -24 -5 -27 -10 -9 -15 -66 -13 -64 3 3 23 -1 40 -8 34
-3 -4 -12 -2 -20 4 -21 18 -134 20 -160 3 -13 -8 -23 -10 -23 -4 0 14 -81 1
-101 -16 -18 -16 -33 -19 -24 -4 3 6 -1 10 -9 10 -8 0 -18 -4 -21 -10 -7 -12
-75 -9 -75 4 0 4 -15 5 -32 2 -18 -4 -60 -8 -93 -10 -34 -1 -67 -6 -73 -10 -7
-4 -18 -3 -25 2 -16 14 -173 8 -191 -7 -8 -7 -17 -8 -20 -3 -6 10 -95 -4 -108
-17 -4 -3 -3 -35 1 -71 7 -54 5 -69 -11 -97 -11 -18 -17 -37 -13 -43 3 -5 1
-10 -5 -10 -6 0 -8 -4 -5 -10 3 -5 7 -41 9 -79 2 -54 0 -71 -12 -76 -9 -3 -12
-13 -8 -30 4 -15 1 -27 -8 -32 -8 -4 -23 -30 -33 -58 -19 -49 -20 -50 -58 -49
-72 3 -89 49 -87 239 3 246 7 304 20 316 16 17 15 34 -4 53 -8 9 -11 16 -5 16
6 0 11 5 11 11 0 6 -10 9 -22 7 -13 -2 -29 4 -36 12 -10 11 -15 12 -18 3 -8
-18 -25 -16 -18 2 5 11 -1 15 -20 15 -34 0 -87 22 -105 43 -7 10 -20 17 -29
17 -8 0 -25 10 -38 22 -13 13 -34 34 -48 48 -15 13 -26 31 -26 40 0 20 -45
129 -59 143 -6 6 -11 17 -11 24 0 7 -7 13 -15 13 -11 0 -14 7 -9 24 3 13 0 29
-8 37 -7 8 -15 36 -17 64 -2 27 -8 61 -14 75 -9 22 -14 48 -19 99 -1 8 -10 16
-20 19 -18 4 -26 22 -9 22 19 0 18 51 -1 76 -20 24 -20 26 -2 38 17 13 17 16
-10 50 -22 30 -30 34 -46 26 -10 -6 -22 -15 -25 -20 -14 -23 -25 -7 -25 35 0
40 -3 47 -27 56 -19 7 -35 6 -55 -2 -15 -6 -28 -12 -29 -13 0 0 -2 -33 -5 -72
l-5 -72 32 -11 c33 -11 47 -4 50 24 0 6 4 1 9 -10 5 -13 3 -26 -6 -36 -16 -18
-8 -53 9 -42 10 6 6 -23 -9 -61 -4 -11 -1 -16 10 -16 18 0 21 -16 5 -26 -8 -5
-8 -8 0 -14 8 -5 9 -14 2 -33 -6 -16 -7 -29 -1 -32 5 -3 6 -13 3 -21 -4 -10 5
-25 23 -40 23 -18 25 -23 12 -24 -25 0 -25 -65 0 -79 13 -8 13 -10 3 -11 -12
0 -12 -3 -3 -12 13 -13 16 -54 5 -61 -5 -2 -2 -2 5 -1 15 4 16 -28 0 -44 -17
-17 4 -15 30 4 13 9 26 13 29 10 8 -8 -27 -35 -44 -36 -19 0 -16 -20 3 -20 8
0 12 -5 9 -10 -3 -6 -3 -19 0 -30 5 -15 12 -19 31 -14 25 6 27 4 38 -49 6 -25
9 -27 40 -21 27 4 36 2 44 -12 6 -11 14 -16 17 -12 4 4 23 -12 43 -35 19 -23
41 -41 49 -41 7 1 24 -11 37 -27 14 -16 31 -29 39 -29 7 0 28 -13 47 -30 23
-21 40 -28 55 -24 30 7 37 -6 24 -47 -15 -47 -17 -109 -5 -109 6 0 5 -4 -3 -9
-18 -12 -33 -98 -21 -121 6 -10 6 -21 2 -24 -4 -2 -7 -32 -6 -65 l1 -60 -71 1
c-82 0 -162 -10 -191 -25 -11 -6 -51 -12 -90 -14 -38 -2 -97 -7 -130 -11 l-60
-7 -9 -48 c-10 -49 -34 -61 -28 -14 5 41 -20 33 -40 -13 -9 -22 -23 -40 -32
-40 -16 0 -13 22 6 47 19 24 -15 24 -40 0 -20 -19 -31 -24 -42 -17 -13 8 -13
11 -1 19 7 5 10 14 7 20 -10 16 -26 14 -26 -4 0 -8 -4 -15 -10 -15 -14 0 -12
-17 3 -32 16 -15 10 -55 -9 -62 -20 -8 -29 21 -14 39 11 13 9 19 -8 35 -25 24
-34 25 -72 5 -17 -9 -30 -11 -30 -5 0 5 -7 10 -15 10 -8 0 -15 -9 -15 -20 0
-28 -66 -55 -98 -41 -33 16 -35 14 -28 -21 3 -18 9 -49 12 -68 6 -39 24 -80
34 -80 4 0 10 14 14 31 5 27 8 30 21 19 8 -7 15 -19 15 -26 0 -15 22 -19 34
-6 4 4 19 7 33 7 21 0 28 7 38 34 15 46 35 52 35 12 0 -23 5 -31 18 -31 10 0
23 5 30 12 8 8 12 8 12 1 0 -6 9 -13 19 -16 23 -6 38 22 19 34 -7 4 -9 11 -6
14 12 12 28 -6 28 -31 0 -20 5 -24 28 -24 34 0 57 14 48 29 -4 6 0 11 9 11 11
0 15 -5 12 -14 -8 -21 22 -29 47 -12 21 13 22 13 23 -45 2 -71 11 -89 29 -65
7 10 10 24 8 30 -3 7 2 19 11 26 13 11 15 9 15 -11 0 -30 35 -55 55 -39 9 8
15 8 20 0 9 -15 35 -12 35 5 0 8 -5 15 -12 15 -9 0 -9 3 1 13 10 10 15 8 26
-7 16 -22 45 -15 45 11 1 17 2 17 15 -1 12 -16 18 -17 44 -6 16 6 38 9 49 6
14 -5 22 0 30 19 12 26 26 32 36 16 3 -5 15 -7 26 -4 13 4 30 -3 45 -17 l23
-22 12 21 c6 12 8 31 5 42 -7 21 -7 21 14 0 12 -12 21 -28 21 -36 0 -8 7 -15
15 -15 8 0 14 -3 14 -8 -4 -22 3 -24 14 -3 17 34 32 36 34 5 0 -15 8 -34 17
-43 15 -15 17 -14 22 7 7 25 22 29 30 7 9 -23 32 -18 47 12 14 26 15 26 21 5
10 -30 23 -28 41 9 11 20 21 29 31 25 9 -3 22 -6 31 -6 9 0 13 -6 9 -15 -3 -9
0 -15 9 -15 8 0 15 -9 15 -20 0 -26 28 -70 45 -70 7 0 18 6 24 14 7 8 20 12
30 9 11 -3 21 2 24 11 8 20 27 21 27 1 0 -24 19 -18 32 10 12 28 28 33 28 10
0 -10 10 -15 29 -15 30 0 46 21 30 37 -7 7 -5 12 6 17 10 4 14 2 9 -5 -8 -14
14 -29 45 -29 16 0 22 4 17 15 -3 10 1 15 14 15 10 0 22 5 25 10 10 17 25 11
25 -10 0 -23 19 -28 21 -5 1 8 2 20 3 27 2 22 26 20 26 -2 0 -18 3 -20 14 -10
12 9 16 5 22 -25 6 -31 8 -34 19 -19 13 19 39 10 31 -11 -8 -22 21 -40 39 -25
12 10 16 8 24 -11 5 -13 10 -18 10 -11 1 7 12 17 26 22 26 10 33 26 14 32 -6
2 -2 12 10 22 19 18 20 18 17 -8 -1 -14 -6 -29 -9 -33 -12 -11 -8 -23 8 -23 8
0 24 14 37 30 13 18 28 28 37 25 7 -3 23 3 34 12 20 18 20 17 13 -9 -8 -35 0
-35 26 -3 11 14 23 25 28 25 5 0 22 -11 38 -25 35 -29 44 -31 35 -9 -4 12 -1
15 13 12 12 -2 18 -11 16 -22 -2 -11 2 -16 10 -14 7 3 13 9 13 14 0 5 4 15 8
22 5 6 6 16 3 21 -5 7 14 21 29 21 5 0 -2 -60 -9 -67 -11 -11 -6 -23 9 -23 17
0 39 46 29 61 -3 5 0 9 5 9 6 0 11 7 11 15 0 8 -4 15 -10 15 -5 0 -10 6 -10
14 0 9 7 12 21 9 19 -5 21 -11 16 -49 -4 -41 -3 -44 19 -44 13 0 24 5 24 11 0
5 5 7 10 4 6 -3 10 -15 10 -26 0 -25 13 -24 25 3 15 33 39 37 31 4 -5 -19 -3
-26 9 -26 8 0 15 -4 15 -10 0 -17 45 -11 66 8 14 13 30 17 62 14 26 -3 42 0
42 7 0 19 17 12 23 -10 3 -12 10 -18 17 -14 6 4 8 15 5 26 -5 14 0 21 20 29
37 14 52 13 37 -2 -24 -24 -12 -34 43 -36 45 -2 55 1 55 14 0 11 5 14 17 10
11 -5 24 2 40 21 18 21 22 23 14 6 -15 -31 -14 -33 19 -33 21 0 35 8 46 25 19
29 31 27 15 -3 -8 -16 -7 -21 5 -26 9 -3 17 -6 19 -6 3 0 7 23 11 50 4 34 11
50 21 50 8 0 12 -4 8 -10 -7 -12 5 -60 15 -60 5 0 7 15 6 33 -2 41 11 62 30
46 11 -9 18 -8 29 1 9 8 28 10 49 6 29 -6 34 -3 39 16 6 21 7 21 27 3 19 -18
20 -18 20 1 0 21 18 44 33 44 5 0 7 -7 3 -15 -8 -21 3 -45 20 -45 17 0 18 26
2 34 -7 3 3 5 22 4 19 -1 41 -6 48 -12 9 -7 16 -6 21 2 4 7 15 10 25 6 10 -4
24 1 35 10 13 12 21 14 26 7 10 -18 43 -12 58 10 l15 20 16 -23 c13 -19 18
-20 25 -9 5 8 7 20 4 27 -3 7 12 31 34 53 55 57 73 80 73 92 0 6 -7 8 -16 5
-9 -4 -23 -1 -30 5 -13 11 -38 3 -30 -10 3 -4 -9 -8 -25 -9 -23 -2 -31 3 -38
20 -8 21 -9 20 -29 -17 -17 -32 -21 -35 -22 -18 0 26 -27 43 -61 39 -37 -4
-51 -15 -44 -37 4 -10 2 -19 -3 -19 -15 0 -37 51 -33 78 4 36 -33 58 -42 24
-4 -16 -5 -16 -6 1 -1 20 -8 21 -41 2 -33 -19 -38 -18 -43 3 -3 15 -5 15 -12
-3 -9 -21 -30 -45 -39 -45 -2 0 -6 10 -8 23 -3 19 -8 22 -40 19 -23 -2 -38 1
-38 7 0 6 -17 10 -41 9 -31 -1 -45 -7 -56 -25 -16 -23 -16 -23 -30 -3 -17 24
-39 26 -51 4 -8 -13 -13 -13 -46 8 l-37 23 4 75 c3 48 0 90 -8 114 -7 20 -12
48 -10 62 1 13 -2 27 -6 30 -5 3 -9 0 -9 -7 0 -7 -3 -9 -7 -5 -4 3 -6 29 -4
56 2 39 -1 50 -12 50 -10 0 -13 7 -10 19 2 10 -5 37 -16 60 -17 32 -20 49 -13
74 4 17 15 32 23 32 8 0 15 10 17 23 2 12 9 22 16 22 7 0 19 12 26 28 l12 27
9 -23 c5 -12 15 -25 24 -28 8 -3 12 -10 10 -15 -6 -8 12 -14 67 -23 15 -3 32
-8 38 -11 6 -4 33 1 60 11 40 14 50 23 52 43 2 21 8 26 28 24 23 -1 28 6 44
50 10 29 28 62 39 75 30 32 27 104 -7 201 -9 24 -13 48 -10 53 4 6 -9 8 -32 6
-32 -2 -39 0 -38 15 1 9 -4 17 -12 17 -8 0 -14 7 -14 16 0 15 -8 16 -60 11
l-60 -7 1 96 c2 87 4 97 23 105 29 13 89 57 102 75 7 8 28 15 48 16 32 1 40 7
59 40 12 21 30 38 39 38 10 0 20 10 24 25 3 13 12 29 19 35 8 6 11 18 9 25 -4
10 0 12 15 8 16 -4 21 -1 21 16 0 11 4 21 10 21 9 0 20 43 22 90 1 14 9 34 17
44 12 14 13 20 4 23 -17 6 -16 28 1 42 8 7 14 24 14 39 -1 15 2 37 6 48 4 13
1 27 -6 35 -9 9 -11 26 -8 44 7 35 2 65 -11 65 -5 0 -9 15 -9 33 0 18 -9 50
-20 72 -11 22 -20 50 -20 64 0 13 -8 33 -17 43 -16 18 -16 19 4 24 13 4 23 17
26 32 13 64 21 87 29 93 16 11 29 86 18 113 -5 14 -6 27 -1 30 4 3 6 24 5 48
-2 24 -6 90 -9 148 -6 110 -19 175 -35 185 -6 3 -10 15 -10 25 0 17 -55 79
-104 118 -16 12 -13 59 4 72 13 10 42 101 36 115 -3 8 -1 17 4 20 6 4 10 17
10 31 0 13 4 24 8 24 5 0 9 8 9 18 -1 9 0 32 1 50 2 30 4 32 23 22 20 -11 20
-12 3 -31 -16 -17 -16 -19 -1 -19 10 0 17 -5 17 -11 0 -8 4 -8 14 0 9 8 13 30
11 74 -2 34 -4 64 -5 67 -6 13 3 66 12 78 6 7 8 15 5 18 -9 9 -27 -5 -27 -22
0 -8 -5 -14 -11 -14 -6 0 -8 7 -5 16 3 9 3 21 -1 27 -4 7 -7 21 -8 32 0 11 -7
20 -15 20 -8 1 -14 6 -12 13 1 7 -9 18 -23 24 -21 9 -25 18 -26 52 -1 106 -12
192 -25 207 -8 8 -14 20 -14 25 0 6 -9 29 -20 52 -11 22 -20 45 -20 50 0 4 -9
27 -20 50 -11 22 -20 46 -20 52 0 12 -48 33 -60 25 -4 -3 -11 10 -14 29 -7 37
-27 51 -45 33 -7 -7 -12 -7 -11 -2 7 33 -2 56 -25 65 -14 5 -25 14 -25 20 0 7
-8 9 -20 5 -15 -5 -20 -2 -20 13 0 26 -64 77 -98 77 -21 0 -28 5 -30 23 -4 27
-28 40 -45 23 -17 -17 -37 -13 -37 8 0 22 -25 45 -39 36 -7 -3 -8 0 -5 9 3 9
1 16 -6 16 -6 0 -18 7 -27 15 -8 8 -19 13 -24 9 -12 -7 -89 27 -89 40 0 6 -4
6 -8 -1 -6 -10 -17 -9 -45 6 -22 11 -54 18 -79 17 -30 -2 -47 3 -61 17 -10 10
-25 16 -32 13 -7 -2 -19 2 -25 10 -7 8 -23 14 -36 14 -12 0 -26 5 -29 10 -3 6
-24 10 -45 10 -21 0 -42 4 -45 10 -4 6 1 7 12 4 16 -5 16 -4 -1 10 -10 8 -22
13 -26 11 -5 -3 -11 2 -14 11 -3 8 -14 14 -23 12 -10 -1 -24 2 -32 7 -10 5
-16 4 -19 -3 -5 -15 -23 -16 -20 -1 2 6 -3 14 -9 16 -7 3 -13 0 -13 -6 0 -14
-21 -14 -57 0 -32 13 -94 16 -111 5 -7 -4 -12 -1 -12 9 0 14 -7 15 -45 9 -32
-4 -50 -2 -61 7 -21 17 -130 17 -146 1 -14 -14 -52 -16 -44 -3 3 5 -4 11 -17
15 -34 9 -37 8 -38 -16 -1 -16 -3 -18 -6 -6 -6 24 -30 30 -48 12z m225 -4 c0
-5 -2 -10 -4 -10 -3 0 -8 5 -11 10 -3 6 -1 10 4 10 6 0 11 -4 11 -10z m-67
-120 c-6 -23 18 -28 35 -7 12 15 59 14 88 0 16 -8 129 -10 129 -3 0 10 64 4
80 -7 11 -7 30 -13 43 -13 13 0 46 -7 73 -16 27 -9 52 -14 55 -11 10 9 47 -31
39 -42 -8 -14 11 -14 37 0 14 8 23 8 31 0 6 -6 23 -11 38 -11 23 0 30 -6 39
-36 7 -22 17 -33 25 -30 7 2 17 0 23 -6 8 -8 16 -7 27 2 14 11 17 10 22 -9 4
-18 11 -21 29 -17 16 4 24 2 24 -7 0 -16 44 -42 57 -34 5 3 17 -7 27 -24 23
-38 43 -37 38 3 -1 3 5 9 13 12 14 5 20 -5 16 -27 -3 -19 67 -61 103 -62 10 0
20 -8 22 -18 1 -10 15 -28 31 -40 61 -48 103 -90 103 -104 0 -8 10 -28 23 -43
12 -15 30 -40 39 -56 10 -16 22 -36 27 -44 22 -36 60 -150 65 -195 2 -16 2
-48 -1 -70 -5 -38 -7 -40 -42 -41 -20 -1 -39 4 -43 10 -5 7 -8 4 -8 -6 0 -10
-4 -18 -10 -18 -5 0 -10 -13 -10 -30 0 -21 -4 -28 -14 -24 -8 3 -17 1 -21 -5
-3 -6 0 -11 7 -11 8 -1 6 -6 -6 -15 -24 -18 -33 -95 -11 -95 11 0 14 -7 10
-23 -4 -15 1 -32 13 -47 19 -23 19 -24 1 -44 -11 -11 -19 -24 -19 -28 0 -15
30 -21 45 -8 12 10 15 9 15 -5 0 -14 -6 -16 -30 -13 -29 4 -30 3 -30 -31 -1
-27 -7 -41 -26 -54 -24 -18 -25 -18 -55 7 -33 28 -59 34 -60 14 0 -7 -4 -3
-10 10 -7 19 -15 23 -41 20 -27 -2 -33 0 -33 17 0 32 -45 85 -73 85 -15 0 -22
5 -19 13 15 42 17 57 7 57 -11 0 -8 90 5 110 13 21 21 9 17 -22 -5 -30 -3 -32
12 -19 10 8 16 28 16 52 0 22 6 48 12 59 10 15 10 22 1 31 -9 9 -8 19 4 43 18
34 24 82 16 139 -5 35 -23 53 -23 22 0 -8 -5 -15 -10 -15 -11 0 -3 49 10 63
13 14 0 44 -25 57 -19 10 -22 18 -18 45 3 19 0 35 -7 40 -17 11 -25 -2 -10
-20 7 -8 8 -15 2 -15 -13 0 -33 25 -26 33 3 3 -8 21 -26 40 -21 23 -37 33 -50
30 -13 -4 -19 1 -22 19 -2 17 -10 24 -33 26 -16 2 -38 13 -47 25 l-18 22 -6
-22 c-9 -31 -34 -37 -51 -13 -16 23 -43 27 -43 6 0 -8 -5 -16 -12 -18 -6 -2
-12 -15 -14 -29 -4 -35 -4 -35 -17 -18 -8 11 -22 15 -46 11 -28 -4 -32 -8 -28
-28 2 -13 0 -24 -4 -24 -5 0 -6 -7 -3 -15 4 -9 0 -15 -10 -15 -9 0 -16 -4 -16
-9 0 -5 -8 -12 -18 -15 -12 -4 -18 -17 -18 -46 -2 -45 -18 -72 -40 -63 -8 3
-14 4 -14 2 -1 -2 -3 -31 -6 -64 -4 -37 -12 -65 -21 -72 -9 -7 -13 -21 -10
-33 3 -11 1 -20 -4 -20 -15 0 -10 -50 6 -56 14 -6 14 -8 -1 -18 -14 -10 -15
-25 -11 -88 6 -83 -3 -105 -34 -85 -15 9 -23 9 -38 0 -16 -10 -20 -9 -24 8 -3
12 -14 19 -30 19 -14 0 -29 5 -33 11 -3 6 -19 9 -35 5 -15 -3 -31 -1 -34 4 -3
6 -16 10 -28 10 -26 0 -62 36 -46 45 5 4 7 15 4 25 -3 10 -1 21 4 25 6 3 8 19
5 34 -4 17 0 38 9 52 9 13 21 44 27 68 10 40 10 46 -6 58 -13 10 -14 13 -3 13
14 0 39 43 39 67 0 7 -5 13 -12 13 -6 0 -4 7 5 18 21 23 21 41 1 70 -9 13 -13
26 -10 29 3 3 1 12 -5 19 -7 8 -7 14 1 19 15 9 12 25 -6 25 -8 0 -13 4 -10 9
3 5 -3 19 -13 32 -10 13 -22 39 -26 57 -3 18 -11 30 -16 26 -5 -3 -9 0 -9 6 0
7 -7 9 -16 6 -11 -4 -22 1 -32 15 -10 14 -21 19 -37 15 -15 -4 -28 1 -40 14
-22 24 -40 25 -79 5 -15 -8 -35 -15 -42 -15 -8 0 -14 -4 -14 -10 0 -5 -8 -10
-17 -10 -18 0 -53 -28 -53 -42 0 -5 -11 -24 -25 -42 -19 -25 -22 -35 -13 -44
9 -9 9 -12 0 -12 -7 0 -12 5 -12 10 0 6 -7 10 -16 10 -11 0 -15 -6 -11 -20 3
-11 1 -18 -4 -15 -11 7 -23 -40 -16 -59 3 -8 -1 -17 -9 -20 -8 -3 -14 -15 -14
-26 0 -11 -4 -20 -10 -20 -5 0 -16 -13 -25 -29 -15 -29 -19 -78 -13 -158 2
-24 1 -43 -3 -43 -8 0 -19 -65 -25 -135 -2 -27 -6 -55 -8 -62 -3 -7 -1 -15 5
-19 7 -4 6 -10 -1 -18 -13 -17 -60 -8 -60 10 0 8 -4 14 -10 14 -5 0 -10 -4
-10 -10 0 -5 -6 -10 -14 -10 -8 0 -17 -7 -20 -16 -4 -10 -16 -14 -33 -13 -16
2 -35 -1 -43 -6 -8 -6 -33 -10 -55 -11 -23 -1 -55 -9 -73 -18 -27 -14 -31 -21
-26 -41 5 -19 2 -25 -9 -25 -16 0 -47 36 -47 55 0 5 4 3 10 -5 11 -17 23 -9
15 11 -7 17 -81 50 -99 43 -16 -6 -40 21 -31 36 3 5 15 10 26 10 10 0 19 5 19
10 0 6 -8 10 -17 10 -14 0 -13 3 5 16 19 13 21 21 16 55 -6 36 -5 39 18 39 13
0 29 -5 36 -12 8 -8 14 -5 22 17 l11 28 23 -22 c30 -28 63 -21 77 16 8 21 12
23 25 13 11 -10 18 -10 26 -2 17 17 1 42 -32 48 -16 4 -27 10 -24 15 3 5 16 6
30 3 18 -5 24 -2 24 10 0 9 -8 16 -19 16 -25 0 -33 37 -14 66 14 22 13 27 -6
66 -15 31 -17 44 -9 49 7 4 17 1 23 -8 9 -13 16 -13 34 -4 12 7 31 9 43 5 17
-5 20 -3 15 11 -4 9 -7 21 -7 26 0 12 -37 12 -45 -1 -9 -15 -25 -12 -25 5 0
11 11 15 39 15 l40 0 -3 50 c-1 29 3 50 9 50 21 1 66 50 61 68 -2 9 -1 35 3
57 6 34 10 40 30 37 25 -2 53 20 50 40 -1 7 -1 28 0 46 1 29 4 32 21 27 13 -4
20 -2 20 7 1 17 35 58 50 58 6 0 8 5 5 10 -3 6 5 14 19 20 14 5 26 14 26 20 0
5 14 10 30 10 18 0 33 6 36 15 4 10 20 15 45 15 24 0 42 5 45 13 3 10 21 13
59 11 38 -2 55 1 59 11 3 10 15 12 40 8 28 -4 37 -1 48 16 16 27 28 27 21 1z
m752 -140 c3 -5 1 -10 -4 -10 -6 0 -11 5 -11 10 0 6 2 10 4 10 3 0 8 -4 11
-10z m128 -50 c20 -18 -11 -17 -33 1 l-25 20 25 -6 c14 -4 29 -11 33 -15z
m-1543 -84 c0 -3 -4 -8 -10 -11 -5 -3 -10 -1 -10 4 0 6 5 11 10 11 6 0 10 -2
10 -4z m0 -77 c0 -6 -4 -7 -10 -4 -5 3 -10 11 -10 16 0 6 5 7 10 4 6 -3 10
-11 10 -16z m-115 -59 c3 -5 2 -10 -4 -10 -5 0 -13 5 -16 10 -3 6 -2 10 4 10
5 0 13 -4 16 -10z m128 -36 c-4 -10 -9 -12 -15 -6 -12 12 -1 35 12 27 5 -3 6
-13 3 -21z m-128 6 c8 -13 -5 -13 -25 0 -13 8 -13 10 2 10 9 0 20 -4 23 -10z
m-77 -54 c-10 -7 -18 -16 -18 -19 0 -3 8 -8 18 -10 13 -4 11 -5 -5 -6 -16 -1
-23 5 -23 18 0 18 12 29 35 30 6 0 2 -6 -7 -13z m1542 -17 c0 -5 -4 -9 -10 -9
-5 0 -10 7 -10 16 0 8 5 12 10 9 6 -3 10 -10 10 -16z m-151 -53 c-9 -8 -10 -7
-5 7 3 10 7 26 7 35 1 9 4 6 6 -7 3 -13 -1 -28 -8 -35z m-899 34 c0 -5 -2 -10
-4 -10 -3 0 -8 5 -11 10 -3 6 -1 10 4 10 6 0 11 -4 11 -10z m-484 -68 c-12
-11 -18 7 -10 30 l8 23 4 -23 c2 -13 1 -26 -2 -30z m-271 -62 c19 -21 45 -27
45 -10 0 6 9 10 20 10 13 0 18 -5 14 -14 -4 -10 6 -20 30 -30 29 -12 36 -21
37 -43 2 -48 6 -70 13 -82 5 -7 -3 -11 -23 -11 -16 0 -33 -5 -36 -11 -9 -14
-99 -2 -147 19 -26 12 -37 24 -40 45 -3 15 -1 27 3 27 14 0 20 33 7 41 -9 6
-8 10 5 15 9 3 17 14 17 23 0 17 18 41 30 41 4 0 15 -9 25 -20z m292 -35 c-7
-13 -16 -20 -20 -16 -10 10 13 52 24 45 4 -2 2 -15 -4 -29z m-467 -165 c0 -5
-5 -10 -11 -10 -5 0 -7 5 -4 10 3 6 8 10 11 10 2 0 4 -4 4 -10z m40 6 c0 -11
-19 -15 -25 -6 -3 5 1 10 9 10 9 0 16 -2 16 -4z m55 -37 c11 -17 -1 -21 -15
-4 -8 9 -8 15 -2 15 6 0 14 -5 17 -11z m2772 -52 c-11 -25 -35 -43 -44 -33
-11 10 10 48 30 55 28 11 29 10 14 -22z m-2674 -121 c4 -10 1 -13 -7 -10 -8 3
-17 1 -21 -5 -9 -16 -22 -13 -29 5 -4 12 -1 14 13 9 11 -3 22 -1 26 5 8 13 12
13 18 -4z m2501 -10 c-4 -11 6 -18 36 -26 35 -9 46 -9 66 5 19 12 29 14 39 5
7 -6 25 -8 39 -4 21 5 31 1 47 -17 17 -20 23 -21 39 -11 27 16 29 15 39 -10 6
-18 3 -27 -12 -40 -11 -10 -17 -18 -12 -18 4 0 2 -6 -4 -14 -6 -7 -8 -21 -5
-31 8 -19 8 -19 -91 6 -22 6 -50 11 -62 11 -13 0 -23 5 -23 11 0 5 -8 3 -18
-6 -19 -17 -47 -24 -38 -9 7 11 -32 44 -44 37 -5 -3 -10 2 -12 11 -6 30 4 114
13 114 4 0 6 -6 3 -14z m-44 -11 c0 -8 -4 -15 -10 -15 -5 0 -7 7 -4 15 4 8 8
15 10 15 2 0 4 -7 4 -15z m-1420 -65 c-8 -5 -19 -10 -25 -10 -5 0 -3 5 5 10 8
5 20 10 25 10 6 0 3 -5 -5 -10z m-1229 -49 c-6 -10 -7 -21 -4 -25 3 -3 1 -6
-5 -6 -7 0 -12 4 -12 9 0 5 -3 16 -6 25 -4 12 0 16 15 16 18 0 20 -3 12 -19z
m79 0 c0 -12 -20 -25 -27 -18 -7 7 6 27 18 27 5 0 9 -4 9 -9z m-185 -31 c0
-16 -4 -28 -10 -26 -5 2 -9 9 -8 15 2 6 -6 10 -17 8 -28 -4 -36 -15 -16 -23
22 -8 20 -23 -2 -17 -14 3 -22 -6 -35 -38 -14 -34 -19 -41 -29 -31 -9 9 -10
15 -2 20 6 4 11 21 10 39 -1 28 4 34 37 49 20 9 37 21 37 26 0 4 8 8 18 8 12
0 17 -8 17 -30z m321 -20 c8 0 14 -9 14 -20 0 -11 -7 -20 -15 -20 -22 0 -57
39 -51 57 5 13 8 13 22 -1 8 -9 22 -16 30 -16z m-36 -43 c0 -8 -8 -21 -19 -31
-17 -16 -18 -15 -16 6 4 37 4 38 20 38 8 0 15 -6 15 -13z m2477 -29 c-3 -8 -6
-5 -6 6 -1 11 2 17 5 13 3 -3 4 -12 1 -19z m83 11 c0 -7 9 -9 23 -5 47 15 62
12 59 -10 -3 -26 24 -40 45 -23 7 7 16 9 20 5 3 -3 1 -6 -7 -6 -8 0 -9 -4 -3
-12 5 -7 6 -24 2 -38 -4 -14 -7 -18 -8 -10 -2 27 -18 -5 -31 -63 -15 -63 -20
-70 -44 -61 -10 4 -14 14 -10 28 2 11 6 34 8 49 1 15 8 33 14 39 15 15 16 48
2 48 -5 0 -10 -7 -10 -15 0 -9 -6 -12 -15 -9 -10 4 -15 0 -15 -15 0 -12 -8
-24 -17 -28 -10 -3 -28 -15 -39 -25 -14 -13 -24 -16 -29 -9 -9 15 17 66 34 66
8 0 16 6 19 14 3 10 0 12 -12 8 -9 -4 -15 -3 -12 1 3 5 6 25 8 45 1 21 6 37
10 37 4 0 8 -5 8 -11z m140 -3 c0 -3 -4 -8 -10 -11 -5 -3 -10 -1 -10 4 0 6 5
11 10 11 6 0 10 -2 10 -4z m130 -52 c0 -8 -6 -14 -14 -14 -9 0 -12 7 -9 20 6
22 23 18 23 -6z m-3335 -14 c3 -6 -4 -14 -17 -19 -29 -11 -35 -6 -18 14 14 17
26 19 35 5z m2955 -120 c0 -5 -2 -10 -4 -10 -3 0 -8 5 -11 10 -3 6 -1 10 4 10
6 0 11 -4 11 -10z m-3066 -45 c-7 -17 -20 -20 -28 -6 -4 5 0 12 6 14 23 9 28
7 22 -8z m3122 -43 c9 2 19 -3 21 -9 3 -9 -7 -13 -31 -13 -30 0 -36 4 -36 21
0 17 3 19 14 10 8 -7 22 -11 32 -9z m-3128 -4 c-6 -18 -28 -21 -28 -4 0 9 7
16 16 16 9 0 14 -5 12 -12z m152 -28 c0 -5 -5 -10 -11 -10 -5 0 -7 5 -4 10 3
6 8 10 11 10 2 0 4 -4 4 -10z m-146 -18 c-6 -4 -14 -14 -17 -22 -4 -10 -6 -8
-6 8 -1 15 5 22 17 22 10 0 13 -3 6 -8z m3286 -47 c0 -8 -4 -15 -10 -15 -5 0
-10 7 -10 15 0 8 5 15 10 15 6 0 10 -7 10 -15z m-215 -54 c-6 -5 -25 10 -25
20 0 5 6 4 14 -3 8 -7 12 -15 11 -17z m-55 1 c0 -4 -9 -13 -20 -20 -22 -13
-27 -3 -8 16 14 14 28 16 28 4z m320 -2 c0 -5 -4 -10 -10 -10 -5 0 -10 5 -10
10 0 6 5 10 10 10 6 0 10 -4 10 -10z m-5 -50 c3 -5 1 -10 -4 -10 -6 0 -11 5
-11 10 0 6 2 10 4 10 3 0 8 -4 11 -10z m-3237 -92 c-3 -7 -20 -14 -39 -16
l-34 -3 25 15 c32 18 53 20 48 4z m2637 -17 c3 -5 1 -12 -5 -16 -5 -3 -10 1
-10 9 0 18 6 21 15 7z m461 -33 c59 -54 75 -94 71 -173 -3 -54 -8 -68 -38
-104 l-34 -41 -62 13 c-71 14 -157 75 -147 102 4 9 0 15 -10 15 -21 0 -20 10
5 89 37 115 40 121 63 120 11 -1 35 4 51 9 47 16 53 14 101 -30z m-756 -8 c0
-5 -4 -10 -10 -10 -5 0 -10 5 -10 10 0 6 5 10 10 10 6 0 10 -4 10 -10z m964
-165 c3 -9 0 -15 -9 -15 -9 0 -12 6 -9 15 4 8 7 15 9 15 2 0 5 -7 9 -15z
m-1057 -2 c-4 -3 -2 -12 3 -18 8 -9 5 -14 -9 -18 -15 -3 -18 0 -17 19 0 13 7
24 15 24 8 0 11 -3 8 -7z m1028 -75 c-4 -13 -14 -30 -22 -38 -13 -13 -13 -11
-7 15 9 38 13 45 25 45 6 0 7 -10 4 -22z m-1152 -63 c-7 -21 -13 -19 -13 6 0
11 4 18 10 14 5 -3 7 -12 3 -20z m88 -4 l24 -19 -29 -12 c-16 -6 -32 -8 -35
-4 -3 4 0 9 7 11 17 6 15 23 -3 23 -8 0 -15 5 -15 10 0 16 26 12 51 -9z m49
-5 c0 -3 -4 -8 -10 -11 -5 -3 -10 -1 -10 4 0 6 5 11 10 11 6 0 10 -2 10 -4z
m30 -27 c0 -11 -4 -18 -10 -14 -5 3 -7 12 -3 20 7 21 13 19 13 -6z m910 -3 c0
-19 -37 -50 -44 -37 -4 6 2 16 13 22 11 7 17 19 13 27 -3 10 -1 13 6 8 7 -4
12 -13 12 -20z m-470 -20 c0 -3 -4 -8 -10 -11 -5 -3 -10 -1 -10 4 0 6 5 11 10
11 6 0 10 -2 10 -4z m220 -31 c7 -9 21 -13 30 -10 9 3 28 1 41 -4 23 -9 23
-10 2 -10 -12 -1 -25 -6 -28 -12 -5 -7 -13 -4 -26 7 -10 9 -27 14 -39 11 -19
-5 -28 12 -13 26 10 11 19 8 33 -8z m170 7 c0 -18 -35 -41 -49 -33 -10 7 -8
12 10 25 26 18 39 20 39 8z m-342 -121 c9 -5 30 -14 45 -20 15 -6 26 -15 23
-20 -6 -9 -95 29 -96 42 0 9 6 9 28 -2z m290 1 c9 -6 5 -12 -14 -21 -30 -13
-39 -9 -31 14 7 16 25 19 45 7z m-113 -32 c3 -5 -3 -10 -15 -10 -12 0 -18 5
-15 10 3 6 10 10 15 10 5 0 12 -4 15 -10z m-680 -50 c-3 -5 -10 -10 -16 -10
-5 0 -9 5 -9 10 0 6 7 10 16 10 8 0 12 -4 9 -10z m65 -25 c0 -8 -4 -15 -10
-15 -5 0 -10 7 -10 15 0 8 5 15 10 15 6 0 10 -7 10 -15z m-60 -5 c0 -5 -4 -10
-10 -10 -5 0 -10 5 -10 10 0 6 5 10 10 10 6 0 10 -4 10 -10z m1150 -10 c0 -5
-4 -10 -10 -10 -5 0 -10 5 -10 10 0 6 5 10 10 10 6 0 10 -4 10 -10z m-771
-197 c-9 -10 -14 -11 -19 -2 -4 6 -14 8 -21 5 -8 -4 -6 -1 4 8 24 19 53 10 36
-11z m77 -9 c-5 -13 -10 -14 -18 -6 -6 6 -8 18 -4 28 5 13 10 14 18 6 6 -6 8
-18 4 -28z m528 -489 c-4 -8 -11 -15 -16 -15 -6 0 -5 6 2 15 7 8 14 15 16 15
2 0 1 -7 -2 -15z m-2818 -312 c-10 -10 -19 5 -10 18 6 11 8 11 12 0 2 -7 1
-15 -2 -18z m2695 -174 c68 -23 73 -71 15 -141 -30 -36 -76 -52 -76 -27 0 8
-14 10 -44 6 -34 -5 -45 -3 -50 9 -9 25 -7 34 8 34 15 0 19 10 31 68 4 17 11
32 16 32 5 0 9 7 9 15 0 18 42 20 91 4z m-1584 -524 c-3 -6 4 -20 15 -29 19
-16 20 -16 25 4 4 16 8 18 19 9 18 -15 45 6 37 27 -3 8 0 14 6 14 6 0 11 -12
11 -26 0 -20 4 -25 17 -20 9 4 20 1 25 -6 6 -10 14 -6 32 16 l24 29 30 -22
c35 -25 52 -27 52 -7 0 8 4 17 9 20 17 11 41 -6 41 -28 0 -19 5 -21 58 -20 64
0 98 14 107 44 8 24 14 25 40 6 14 -9 54 -14 125 -15 57 -1 115 -4 127 -7 24
-7 30 -20 12 -26 -9 -3 -8 -17 0 -53 7 -28 12 -58 12 -67 0 -9 12 -28 27 -43
19 -20 23 -28 13 -34 -13 -8 -8 -64 8 -89 10 -17 41 -4 41 17 0 13 2 14 9 2 6
-9 6 -22 -1 -35 -8 -15 -7 -22 4 -30 15 -11 14 -25 -4 -63 -10 -21 -11 -21
-39 10 -19 21 -30 27 -31 17 -3 -31 -6 -66 -7 -83 0 -10 -6 -17 -13 -15 -7 3
-12 26 -13 56 -1 29 -6 56 -11 61 -15 14 -74 1 -74 -17 0 -17 -15 -7 -15 11 0
7 -9 11 -18 9 -10 -2 -25 3 -34 10 -12 10 -17 9 -28 -5 -17 -24 -28 -21 -20 4
6 19 4 21 -14 16 -13 -3 -19 -1 -15 5 5 7 -6 8 -32 4 -22 -4 -61 -8 -89 -9
-27 -2 -58 -7 -67 -11 -11 -5 -18 -4 -18 3 0 6 -4 11 -10 11 -5 0 -10 -6 -10
-14 0 -8 -7 -16 -15 -20 -8 -3 -15 -1 -15 4 0 6 5 10 10 10 6 0 10 5 10 10 0
15 -36 12 -50 -5 -14 -16 -46 -20 -54 -6 -8 13 -61 8 -79 -7 -9 -8 -13 -21
-10 -30 3 -9 3 -14 -2 -10 -4 4 -8 20 -9 35 -1 22 -5 27 -21 25 -62 -8 -92
-16 -107 -30 -16 -14 -18 -13 -18 1 0 24 -31 21 -37 -3 -6 -24 -25 -27 -21 -3
3 15 -4 17 -37 14 -22 -2 -43 -8 -46 -13 -4 -6 -14 -8 -23 -5 -8 3 -18 2 -21
-3 -10 -17 -35 -11 -35 8 0 9 9 32 20 49 19 32 19 33 0 43 -17 9 -18 14 -8 35
6 14 17 25 24 25 11 0 13 11 13 88 0 21 4 31 11 27 15 -9 12 17 -5 39 -19 25
-19 28 5 56 13 15 26 21 40 17 12 -3 23 1 29 11 9 15 11 15 30 -2 23 -21 41
-14 41 15 0 12 4 17 11 14 6 -4 8 -13 6 -20z m903 -145 c0 -5 -5 -10 -11 -10
-5 0 -7 5 -4 10 3 6 8 10 11 10 2 0 4 -4 4 -10z m-325 -272 c-2 -32 -19 -20
-23 16 -3 25 -1 28 11 18 7 -6 13 -22 12 -34z m-674 -9 c-5 -13 -10 -19 -10
-12 -1 15 10 45 15 40 3 -2 0 -15 -5 -28z m224 13 c-3 -3 -11 0 -18 7 -9 10
-8 11 6 5 10 -3 15 -9 12 -12z m100 8 c-3 -5 -11 -10 -16 -10 -6 0 -7 5 -4 10
3 6 11 10 16 10 6 0 7 -4 4 -10z m565 -10 c0 -4 -7 -10 -15 -14 -10 -4 -15 1
-15 14 0 13 5 18 15 14 8 -4 15 -10 15 -14z m530 -11 c0 -6 -4 -7 -10 -4 -5 3
-10 11 -10 16 0 6 5 7 10 4 6 -3 10 -11 10 -16z m-1270 -12 c0 -7 -7 -22 -16
-33 -15 -19 -16 -19 -9 1 4 11 8 26 8 33 0 16 17 16 17 -1z m933 7 c8 -8 -3
-34 -14 -34 -5 0 -9 9 -9 20 0 19 11 26 23 14z m-1231 -56 c-3 -40 -7 -48 -24
-48 -18 0 -18 1 -4 16 9 8 16 28 16 43 0 15 3 31 7 34 9 10 10 7 5 -45z m76
23 c-7 -12 -17 -21 -22 -21 -4 0 -3 7 4 15 7 8 9 15 4 15 -5 0 -2 4 6 10 20
13 24 6 8 -19z m112 19 c0 -5 -2 -10 -4 -10 -3 0 -8 5 -11 10 -3 6 -1 10 4 10
6 0 11 -4 11 -10z m1374 -21 c-11 -18 -32 -9 -27 11 4 16 8 18 19 9 8 -6 11
-15 8 -20z m-790 -4 c-6 -16 -24 -21 -24 -7 0 11 11 22 21 22 5 0 6 -7 3 -15z
m252 -22 c-11 -11 -19 6 -11 24 8 17 8 17 12 0 3 -10 2 -21 -1 -24z m1216 -5
c-7 -7 -12 -8 -12 -2 0 14 12 26 19 19 2 -3 -1 -11 -7 -17z m-752 -8 c0 -5 -4
-10 -10 -10 -5 0 -10 5 -10 10 0 6 5 10 10 10 6 0 10 -4 10 -10z m-2183 -22
c-3 -8 -6 -5 -6 6 -1 11 2 17 5 13 3 -3 4 -12 1 -19z m1813 12 c0 -5 -5 -10
-11 -10 -5 0 -7 5 -4 10 3 6 8 10 11 10 2 0 4 -4 4 -10z m-2346 -29 c-4 -9 -8
-26 -8 -38 -1 -27 -35 -32 -37 -5 -4 52 10 75 38 65 9 -4 11 -12 7 -22z m2816
19 c0 -5 -4 -10 -10 -10 -5 0 -10 5 -10 10 0 6 5 10 10 10 6 0 10 -4 10 -10z
m-1103 -52 c-3 -8 -6 -5 -6 6 -1 11 2 17 5 13 3 -3 4 -12 1 -19z m-1797 2 c0
-5 -4 -10 -10 -10 -5 0 -10 5 -10 10 0 6 5 10 10 10 6 0 10 -4 10 -10z m1490
6 c0 -2 -7 -7 -16 -10 -8 -3 -12 -2 -9 4 6 10 25 14 25 6z m120 -16 c0 -5 -5
-10 -11 -10 -5 0 -7 5 -4 10 3 6 8 10 11 10 2 0 4 -4 4 -10z m125 -10 c3 -5 1
-10 -4 -10 -6 0 -11 5 -11 10 0 6 2 10 4 10 3 0 8 -4 11 -10z m-1602 -7 c-7
-2 -21 -2 -30 0 -10 3 -4 5 12 5 17 0 24 -2 18 -5z m573 -4 c3 -6 2 -15 -4
-21 -6 -6 -11 -2 -15 11 -5 22 7 29 19 10z m1724 -4 c0 -9 -6 -12 -16 -8 -13
5 -13 7 -2 14 17 11 18 11 18 -6z m388 -9 c0 -17 -5 -23 -14 -19 -15 5 -19 25
-7 36 13 13 21 7 21 -17z m-2878 -1 c14 -16 10 -18 -14 -9 -9 3 -16 10 -16 15
0 14 16 11 30 -6z m834 -1 c3 -8 2 -12 -4 -9 -6 3 -10 10 -10 16 0 14 7 11 14
-7z m2708 -6 c-7 -7 -12 -8 -12 -2 0 14 12 26 19 19 2 -3 -1 -11 -7 -17z
m-3462 3 c0 -5 6 -12 13 -14 6 -2 0 -3 -15 -1 -30 4 -35 -5 -16 -24 17 -17
-12 -15 -35 2 -18 14 -17 14 2 21 12 3 21 11 21 16 0 5 7 9 15 9 8 0 15 -4 15
-9z m477 -28 c-12 -12 -20 -14 -28 -6 -7 7 -5 15 7 27 12 12 20 14 27 7 8 -8
6 -16 -6 -28z m433 27 c0 -5 -5 -10 -11 -10 -5 0 -7 5 -4 10 3 6 8 10 11 10 2
0 4 -4 4 -10z m-500 -20 c0 -5 -5 -10 -11 -10 -5 0 -7 5 -4 10 3 6 8 10 11 10
2 0 4 -4 4 -10z m2810 -16 c0 -8 -4 -14 -10 -14 -5 0 -10 9 -10 21 0 11 5 17
10 14 6 -3 10 -13 10 -21z m-1514 -10 c-4 -9 -9 -15 -11 -12 -3 3 -3 13 1 22
4 9 9 15 11 12 3 -3 3 -13 -1 -22z m354 16 c0 -5 -7 -10 -16 -10 -8 0 -12 5
-9 10 3 6 10 10 16 10 5 0 9 -4 9 -10z m1227 4 c-3 -3 -12 -4 -19 -1 -8 3 -5
6 6 6 11 1 17 -2 13 -5z m-1157 -8 c0 -2 -7 -7 -16 -10 -8 -3 -12 -2 -9 4 6
10 25 14 25 6z m-1093 -58 c-3 -8 -6 -5 -6 6 -1 11 2 17 5 13 3 -3 4 -12 1
-19z m489 -26 c-15 -15 -16 -15 -16 0 0 9 3 24 6 33 7 16 8 16 17 0 6 -12 5
-22 -7 -33z m351 42 c-3 -3 -12 -4 -19 -1 -8 3 -5 6 6 6 11 1 17 -2 13 -5z
m-1327 -14 c0 -5 -2 -10 -4 -10 -3 0 -8 5 -11 10 -3 6 -1 10 4 10 6 0 11 -4
11 -10z m575 0 c3 -5 -3 -10 -15 -10 -12 0 -18 5 -15 10 3 6 10 10 15 10 5 0
12 -4 15 -10z m477 -32 c-9 -9 -12 -7 -12 12 0 19 3 21 12 12 9 -9 9 -15 0
-24z m610 -14 c-14 -24 -21 -3 -9 26 8 20 11 22 14 8 2 -10 0 -25 -5 -34z
m415 -4 c0 -16 -6 -31 -13 -34 -10 -4 -13 5 -11 33 2 45 24 45 24 1z m-217 9
c0 -11 -4 -18 -10 -14 -5 3 -7 12 -3 20 7 21 13 19 13 -6z m137 -21 c-1 -14 3
-22 10 -21 24 5 1 -25 -24 -32 -33 -8 -36 -3 -21 26 30 55 39 62 35 27z
m-1220 -8 c-1 -22 -12 -26 -23 -9 -3 6 0 15 7 20 18 12 18 12 16 -11z m1507
-12 c-4 -6 -10 -5 -15 3 -14 22 -10 33 6 19 8 -7 12 -17 9 -22z m-974 2 c0 -5
-4 -10 -10 -10 -5 0 -10 5 -10 10 0 6 5 10 10 10 6 0 10 -4 10 -10z"/>
<path d="M4900 5856 c0 -9 7 -16 16 -16 17 0 14 22 -4 28 -7 2 -12 -3 -12 -12z"/>
<path d="M4310 5554 c0 -8 5 -12 10 -9 6 3 10 10 10 16 0 5 -4 9 -10 9 -5 0
-10 -7 -10 -16z"/>
<path d="M3490 5200 c0 -5 5 -10 11 -10 5 0 7 5 4 10 -3 6 -8 10 -11 10 -2 0
-4 -4 -4 -10z"/>
<path d="M4000 1440 c0 -5 5 -10 10 -10 6 0 10 5 10 10 0 6 -4 10 -10 10 -5 0
-10 -4 -10 -10z"/>
<path d="M881 5868 c-24 -4 -46 -10 -49 -13 -6 -6 -3 -125 4 -136 2 -4 8 -28
13 -52 7 -41 6 -45 -13 -45 -12 0 -33 -5 -47 -10 -23 -9 -27 -18 -33 -69 -5
-47 -4 -60 9 -69 11 -8 12 -14 6 -19 -8 -4 -6 -11 4 -21 8 -9 13 -20 10 -25
-4 -5 8 -9 24 -9 21 0 31 5 31 15 0 13 3 13 19 3 16 -10 23 -9 39 5 10 9 26
17 34 17 9 0 18 9 21 20 3 12 14 20 26 20 17 0 21 6 21 33 0 18 -4 37 -9 43
-10 10 -53 131 -55 154 -1 9 -6 21 -10 29 -5 8 -2 19 8 29 15 15 18 15 26 2 8
-12 13 -13 27 -2 10 7 25 15 35 18 16 6 35 71 23 83 -9 8 -110 8 -164 -1z"/>
<path d="M2166 5475 c-22 -16 -33 -105 -13 -105 8 0 7 -3 -2 -9 -8 -5 -9 -11
-3 -15 6 -3 8 -15 5 -25 -3 -11 0 -36 7 -55 14 -42 0 -79 -26 -69 -10 4 -20
-1 -26 -10 -5 -10 -14 -17 -19 -17 -6 0 -7 5 -4 10 3 6 -1 10 -10 10 -12 0
-14 -7 -9 -27 18 -85 41 -116 100 -132 30 -8 41 -8 54 4 9 8 23 15 31 15 8 0
27 6 43 13 23 10 26 16 22 41 -4 16 -6 35 -6 42 0 7 -14 21 -31 29 -21 11 -28
20 -21 28 5 7 6 21 1 32 -14 35 -10 52 13 58 15 4 26 0 35 -13 21 -30 49 -24
67 14 9 19 16 38 16 44 0 5 9 12 21 15 12 3 18 10 14 17 -4 6 -15 8 -26 5 -22
-7 -24 -2 -7 24 15 24 5 47 -24 54 -13 3 -41 10 -63 16 -72 19 -119 21 -139 6z"/>
<path d="M4650 4700 c0 -5 5 -10 10 -10 6 0 10 5 10 10 0 6 -4 10 -10 10 -5 0
-10 -4 -10 -10z"/>
<path d="M6060 4620 c0 -5 5 -10 10 -10 6 0 10 5 10 10 0 6 -4 10 -10 10 -5 0
-10 -4 -10 -10z"/>
<path d="M3050 4450 c0 -5 5 -10 10 -10 6 0 10 5 10 10 0 6 -4 10 -10 10 -5 0
-10 -4 -10 -10z"/>
<path d="M5010 4279 c0 -18 2 -19 15 -9 15 12 12 30 -6 30 -5 0 -9 -10 -9 -21z"/>
<path d="M1945 4253 c-23 -4 -69 -72 -80 -118 -4 -16 -8 -67 -10 -112 -3 -67
-1 -83 11 -83 8 0 14 -9 14 -19 0 -11 6 -26 13 -33 7 -7 18 -22 24 -32 10 -19
11 -18 22 3 10 19 15 20 28 10 13 -11 18 -10 29 6 18 24 18 62 1 72 -7 4 -23
29 -35 54 -17 38 -19 53 -11 82 5 19 16 38 24 41 8 3 12 12 9 20 -3 9 3 20 15
28 25 15 27 36 5 66 -15 22 -20 23 -59 15z"/>
<path d="M1668 4213 c-11 -3 -15 -10 -11 -20 4 -10 2 -14 -4 -10 -5 4 -21 -5
-33 -18 -22 -23 -22 -25 -4 -25 17 -1 17 -3 -5 -21 -18 -14 -21 -23 -13 -31 8
-8 7 -14 -3 -24 -19 -20 -32 -107 -16 -112 9 -3 9 -7 0 -18 -8 -10 -8 -14 0
-14 6 0 11 -11 11 -25 0 -14 5 -25 10 -25 6 0 10 -10 10 -22 0 -13 5 -30 10
-38 8 -13 11 -11 16 8 6 22 34 32 34 12 0 -15 36 -12 48 3 13 15 5 55 -16 79
-23 27 -15 208 9 208 5 0 9 8 9 18 0 10 5 23 11 29 6 6 8 20 4 32 -6 21 -27
25 -67 14z"/>
<path d="M2973 4098 l-43 -9 0 -49 c0 -48 -2 -50 -39 -70 -22 -11 -42 -16 -45
-11 -3 5 -20 6 -38 2 -24 -5 -34 -13 -36 -29 -2 -12 -8 -20 -13 -17 -12 8 -11
-12 3 -52 7 -18 19 -35 28 -38 23 -7 80 12 95 32 11 15 17 15 40 5 22 -10 29
-10 41 3 9 8 24 15 34 15 10 0 27 3 37 6 17 5 17 5 1 -9 -10 -8 -18 -17 -18
-20 0 -12 52 -3 57 9 3 8 16 9 44 3 24 -6 47 -6 57 0 11 6 24 6 35 0 9 -6 22
-7 28 -4 6 4 16 -1 23 -11 12 -16 14 -16 33 3 20 20 20 20 47 0 l27 -20 6 21
c3 12 14 24 24 27 20 7 35 47 24 64 -3 6 -21 11 -38 11 -50 0 -63 13 -43 41
14 20 16 21 16 5 0 -12 5 -16 16 -12 9 3 19 6 22 6 4 0 0 5 -8 10 -13 8 -12
10 3 10 10 0 15 5 12 11 -4 6 -20 7 -38 4 -30 -6 -31 -6 -13 8 23 17 13 37
-18 37 -12 0 -28 6 -34 13 -16 15 -267 20 -329 5z m49 -50 c-7 -7 -12 -8 -12
-2 0 6 3 14 7 17 3 4 9 5 12 2 2 -3 -1 -11 -7 -17z m278 -68 c0 -4 -6 -13 -14
-19 -17 -14 -31 2 -22 24 5 15 36 10 36 -5z"/>
<path d="M3670 4018 c-22 -24 -28 -38 -23 -57 9 -39 13 -41 96 -47 76 -5 78
-5 107 25 64 64 21 111 -103 111 -41 0 -52 -4 -77 -32z"/>
<path d="M4036 3981 c-31 -5 -41 -11 -46 -31 -8 -30 -5 -103 4 -119 4 -7 -1
-11 -13 -11 -22 0 -36 -15 -23 -24 12 -7 3 -57 -13 -76 -7 -8 -15 -26 -17 -40
-2 -16 -12 -28 -31 -34 -37 -13 -62 11 -59 59 2 29 -2 37 -27 50 -41 21 -58
19 -72 -7 -7 -13 -18 -28 -25 -36 -7 -7 -13 -33 -12 -59 0 -41 6 -50 50 -94
33 -32 59 -49 77 -50 14 0 48 -2 76 -5 35 -2 54 1 67 13 16 14 18 14 24 -1 8
-20 34 -21 34 0 0 8 5 12 10 9 6 -3 10 -14 10 -23 0 -10 17 -25 41 -36 47 -22
115 -16 167 15 18 10 39 19 45 19 16 1 47 65 47 98 0 35 -25 70 -57 83 -33 12
-65 -7 -83 -50 -9 -22 -19 -31 -36 -31 -13 0 -23 3 -23 8 4 24 -3 34 -20 29
-15 -3 -17 0 -13 16 4 16 2 19 -11 14 -14 -5 -15 2 -10 61 3 37 10 73 15 79 6
7 7 20 4 29 -4 10 4 30 19 50 14 18 25 37 25 42 0 9 -72 63 -81 61 -2 -1 -22
-5 -43 -8z"/>
<path d="M4303 3963 c-31 -6 -35 -29 -13 -73 21 -42 80 -80 122 -80 65 0 90
67 42 109 -48 42 -94 55 -151 44z"/>
<path d="M3015 3810 c-3 -6 -17 -7 -31 -4 -13 3 -32 3 -41 -1 -10 -4 -44 -8
-76 -9 -68 -2 -94 -20 -54 -35 15 -6 27 -13 27 -15 0 -3 -6 -3 -14 0 -24 9
-29 -17 -7 -37 12 -11 21 -26 21 -34 0 -20 10 -19 26 2 11 17 14 16 34 -9 19
-25 26 -27 75 -23 30 2 57 -1 60 -6 4 -5 13 -5 25 1 10 5 52 7 95 4 59 -4 80
-2 86 8 7 10 9 10 9 1 0 -7 9 -13 20 -13 14 0 20 7 20 23 0 13 3 17 8 10 4 -6
20 -15 36 -19 25 -6 28 -4 23 9 -3 9 -2 19 4 22 5 4 7 11 4 16 -4 5 0 9 9 9 8
0 16 -6 19 -12 3 -9 10 -6 22 10 9 12 23 22 31 22 8 0 14 5 14 10 0 6 -4 10
-10 10 -5 0 -7 7 -4 15 4 10 0 15 -13 15 -11 0 -23 3 -26 6 -4 4 -21 9 -39 11
-18 2 -44 6 -58 8 -69 12 -173 15 -184 6 -7 -6 -17 -6 -26 -1 -20 13 -77 13
-85 0z"/>
<path d="M6670 3646 c0 -13 6 -26 13 -29 14 -5 16 -104 3 -126 -5 -7 -1 -18
10 -26 16 -11 17 -17 7 -33 -6 -11 -9 -23 -5 -27 4 -4 7 -12 7 -18 0 -6 15
-19 32 -30 32 -18 33 -18 38 0 3 10 18 42 32 71 l26 52 -19 73 c-15 56 -23 72
-39 75 -51 7 -65 13 -65 27 0 8 -9 15 -20 15 -14 0 -20 -7 -20 -24z m40 -166
c0 -5 -2 -10 -4 -10 -3 0 -8 5 -11 10 -3 6 -1 10 4 10 6 0 11 -4 11 -10z"/>
<path d="M6453 3619 c3 -19 10 -52 16 -74 6 -25 7 -43 1 -49 -16 -16 -11 -44
7 -48 15 -3 15 -4 -1 -20 -10 -11 -18 -35 -19 -60 -2 -37 1 -43 18 -44 11 -1
22 -2 25 -4 15 -7 71 -6 76 1 3 5 8 21 10 36 3 15 8 31 12 37 3 6 8 27 9 47 3
26 -1 38 -12 42 -19 8 -20 27 0 27 19 0 19 29 0 53 -7 11 -11 25 -9 31 6 17
-14 32 -52 39 -18 3 -44 9 -59 13 -27 7 -27 6 -22 -27z"/>
<path d="M2915 3610 c-17 -3 -29 -9 -27 -13 1 -4 2 -11 2 -17 0 -5 6 -10 14
-10 8 0 18 -10 22 -22 6 -19 7 -19 16 -5 13 24 31 21 23 -3 -3 -11 -2 -20 4
-20 5 0 11 -15 13 -32 3 -32 5 -33 63 -41 33 -5 68 -13 77 -18 28 -14 50 -11
75 13 22 21 23 21 43 3 18 -17 21 -17 33 -2 6 8 23 17 37 19 23 3 25 7 25 55
1 29 6 58 13 65 18 18 15 28 -8 28 -12 0 -20 -7 -20 -17 0 -15 -2 -14 -15 4
-14 19 -24 21 -107 21 -51 0 -101 -5 -110 -9 -10 -6 -19 -5 -23 1 -6 9 -93 10
-150 0z m375 -70 c0 -5 -9 -10 -20 -10 -11 0 -20 5 -20 10 0 6 9 10 20 10 11
0 20 -4 20 -10z"/>
<path d="M3900 3445 c-38 -46 35 -96 163 -111 45 -5 47 -4 47 19 0 29 -20 47
-80 74 -65 30 -114 37 -130 18z"/>
<path d="M4976 3303 c-6 -14 -5 -15 5 -6 7 7 10 15 7 18 -3 3 -9 -2 -12 -12z"/>
<path d="M2590 1194 c0 -8 5 -12 10 -9 6 4 8 11 5 16 -9 14 -15 11 -15 -7z"/>
<path d="M2458 1060 c5 -35 22 -30 22 6 0 13 -6 24 -13 24 -9 0 -12 -10 -9
-30z"/>
<path d="M3850 955 c0 -16 32 -65 40 -60 14 8 -5 60 -23 63 -9 2 -17 1 -17 -3z"/>
<path d="M4472 851 c2 -7 7 -12 11 -12 12 1 9 15 -3 20 -7 2 -11 -2 -8 -8z"/>
</g>
</svg>
