<?xml version="1.0" standalone="no"?>
<!DOCTYPE svg PUBLIC "-//W3C//DTD SVG 20010904//EN"
 "http://www.w3.org/TR/2001/REC-SVG-20010904/DTD/svg10.dtd">
<svg version="1.0" xmlns="http://www.w3.org/2000/svg"
 width="440.000000pt" height="459.000000pt" viewBox="0 0 440.000000 459.000000"
 preserveAspectRatio="xMidYMid meet">

<g transform="translate(0.000000,459.000000) scale(0.100000,-0.100000)"
fill="#000000" stroke="none">
<path d="M0 4238 c0 -194 4 -348 8 -343 4 6 27 23 52 40 25 16 70 49 100 72
30 23 71 54 90 68 19 14 56 41 83 60 26 19 51 35 56 35 4 0 19 11 32 24 13 13
42 29 64 36 22 7 50 20 63 28 19 12 22 13 20 1 -2 -8 -11 -17 -21 -21 -10 -4
-16 -12 -13 -17 3 -5 0 -9 -7 -8 -33 1 -47 -4 -47 -18 0 -8 -9 -15 -19 -15
-11 0 -27 -9 -35 -21 -8 -12 -19 -18 -25 -15 -5 4 -12 2 -16 -4 -3 -5 -1 -10
4 -10 6 0 11 -5 11 -11 0 -5 -5 -7 -10 -4 -17 10 -68 -5 -75 -22 -3 -9 0 -20
7 -25 9 -5 4 -8 -14 -8 -16 0 -28 -5 -28 -11 0 -6 -7 -8 -16 -5 -25 9 -33 -2
-25 -32 8 -27 7 -28 -28 -25 -31 3 -33 2 -13 -7 22 -10 30 -30 11 -30 -5 0 -7
5 -4 10 3 6 0 10 -9 10 -8 0 -22 3 -30 6 -12 5 -15 2 -9 -12 4 -11 3 -15 -4
-11 -17 11 -81 -35 -88 -62 -5 -20 -8 -22 -16 -10 -7 12 -9 12 -9 0 0 -8 -3
-12 -6 -8 -4 3 -13 0 -20 -8 -18 -18 -20 -320 -2 -331 7 -4 8 -3 4 4 -4 8 -2
10 7 6 8 -3 18 -1 22 5 3 6 11 11 17 11 6 0 -2 -10 -17 -22 -24 -18 -25 -22
-10 -30 9 -5 23 -7 31 -4 8 3 14 1 14 -5 0 -6 -9 -13 -20 -16 -11 -3 -20 -11
-20 -18 0 -7 -6 -16 -12 -19 -7 -3 0 -4 17 0 17 3 46 7 65 10 30 3 31 2 9 -5
-40 -13 -72 -32 -98 -57 -27 -27 -9 -33 23 -9 23 17 40 20 31 5 -3 -6 1 -7 10
-4 12 5 13 10 4 20 -8 10 -6 14 13 18 59 12 88 12 88 -1 0 -7 -11 -13 -25 -13
-14 0 -25 -4 -25 -8 0 -5 -12 -13 -27 -18 -23 -9 -15 -10 45 -9 39 1 72 -3 72
-7 0 -4 -15 -8 -32 -9 -91 -2 -114 -5 -124 -14 -20 -18 6 -23 37 -8 28 14 49
11 49 -8 0 -5 -9 -9 -19 -9 -24 0 -32 -11 -22 -29 9 -14 51 -9 101 12 14 6 39
11 55 12 29 2 30 2 5 -7 -14 -6 -40 -16 -58 -24 -18 -8 -39 -14 -47 -14 -7 0
-17 -5 -21 -11 -7 -12 52 -3 71 11 6 4 21 4 35 0 22 -5 20 -8 -22 -18 -40 -10
-48 -16 -47 -35 0 -16 2 -18 7 -7 7 15 18 20 62 27 23 3 24 3 4 -6 -12 -5 -25
-14 -29 -20 -3 -6 -9 -9 -13 -7 -4 2 -13 -3 -21 -12 -13 -13 -12 -14 13 -8 34
8 87 15 67 9 -12 -4 -12 -6 0 -14 10 -6 5 -8 -16 -8 -46 0 -65 -4 -65 -12 0
-4 12 -10 28 -12 25 -4 25 -4 -5 -6 -18 0 -33 -6 -33 -11 0 -7 13 -8 34 -5 20
4 36 2 40 -4 4 -6 0 -11 -8 -11 -11 0 -16 -9 -16 -29 0 -16 -6 -32 -12 -35 -7
-3 8 -4 34 -2 26 2 45 0 42 -5 -3 -5 -19 -9 -35 -9 -18 0 -28 -4 -24 -10 3 -5
22 -10 41 -10 33 0 45 -12 23 -26 -8 -4 -7 -9 2 -15 10 -6 8 -9 -8 -9 -19 0
-41 -17 -32 -24 2 -2 32 0 67 3 56 6 65 4 83 -15 13 -14 17 -24 10 -29 -6 -3
-9 -11 -5 -16 4 -6 10 -6 17 0 8 6 16 4 24 -4 10 -11 9 -15 -7 -20 -35 -11
-23 -52 13 -46 5 1 6 -3 2 -9 -3 -5 -21 -10 -38 -11 -35 0 -83 -17 -57 -19 59
-6 96 -4 102 5 5 6 8 3 8 -7 0 -10 -7 -18 -16 -18 -8 0 -13 -4 -10 -8 3 -5 19
-7 36 -4 23 3 30 0 30 -12 0 -10 -4 -14 -10 -11 -6 4 -10 -6 -10 -22 1 -27 1
-27 15 -9 12 16 15 17 15 4 0 -24 -32 -32 -47 -12 -7 10 -13 12 -13 6 0 -7
-13 -12 -30 -12 -16 0 -30 5 -30 10 0 6 9 10 19 10 27 0 51 10 51 22 0 6 -6 6
-14 -1 -11 -9 -20 -9 -35 -2 -26 14 -40 14 -21 0 12 -9 12 -10 -3 -5 -10 3
-26 6 -35 7 -12 0 -10 3 6 10 13 5 20 13 17 19 -8 13 -55 13 -75 0 -12 -8 -10
-10 9 -10 20 0 22 -2 10 -16 -10 -13 -10 -17 2 -25 12 -8 12 -10 -1 -19 -11
-7 -11 -10 -2 -10 7 0 10 -5 7 -11 -4 -6 1 -17 11 -24 18 -14 18 -14 -1 -15
-19 -1 -19 -2 -1 -9 17 -7 17 -8 2 -23 -9 -9 -24 -14 -36 -11 -24 6 -37 23
-18 23 24 1 -43 31 -70 32 -33 0 -92 -23 -74 -29 6 -3 10 -9 6 -14 -3 -5 12
-9 32 -9 21 0 35 -2 32 -5 -6 -6 -44 -16 -65 -17 -7 -1 -13 -5 -13 -10 0 -4
17 -8 38 -8 21 0 47 -7 58 -15 22 -17 14 -18 -38 -6 -25 6 -38 5 -38 -1 0 -12
-83 -4 -87 9 -2 4 -23 7 -46 5 -43 -4 -44 -4 -45 -42 -1 -29 3 -40 16 -43 16
-4 16 -5 0 -6 -15 -1 -18 -11 -18 -72 0 -58 3 -70 15 -66 8 4 17 2 20 -3 4 -6
-3 -10 -14 -10 -19 0 -20 -7 -20 -136 l-1 -137 38 6 c22 4 32 3 23 -2 -9 -6
-1 -11 27 -16 42 -7 91 -34 62 -34 -8 0 -26 6 -40 14 -14 8 -34 14 -45 14 -14
0 -16 -2 -5 -6 8 -3 17 -10 20 -14 8 -12 91 -29 84 -17 -5 7 5 9 27 5 19 -4
54 -9 79 -12 24 -3 48 -11 53 -18 5 -8 7 -5 4 8 -2 11 -9 19 -16 17 -10 -2
-12 5 -7 24 6 22 4 25 -9 20 -9 -3 -18 -6 -21 -6 -2 0 -1 -7 2 -15 4 -10 0
-15 -15 -15 -23 0 -29 16 -9 23 10 3 10 7 0 20 -11 13 -10 16 5 20 10 3 2 4
-17 3 -19 -2 -27 -1 -17 1 9 2 15 8 12 13 -3 5 0 12 6 16 8 4 9 3 5 -5 -6 -8
-1 -10 18 -5 17 4 31 1 41 -10 9 -9 24 -16 33 -16 11 0 7 7 -13 20 -33 21 -74
26 -115 15 -16 -4 -20 -3 -12 2 9 7 6 13 -12 23 -14 7 -23 17 -20 22 3 5 2 8
-3 7 -4 -1 -17 -1 -27 0 -19 1 -19 2 -2 14 16 12 16 14 -3 31 -11 10 -27 16
-36 12 -9 -3 -14 -2 -11 2 2 4 -13 16 -35 26 -39 19 -51 36 -26 36 7 0 19 -6
26 -12 10 -10 15 -10 18 -1 3 8 10 7 22 -5 10 -9 16 -21 13 -26 -7 -12 42 5
50 18 7 10 12 1 9 -16 0 -5 5 -8 11 -8 10 0 9 -3 -1 -9 -7 -5 -10 -14 -7 -20
12 -19 23 -12 21 14 -4 33 24 33 49 0 10 -14 27 -25 37 -25 11 0 19 -4 19 -10
0 -5 5 -10 10 -10 22 0 8 22 -20 33 -17 6 -30 16 -30 23 0 13 -46 38 -82 43
-7 2 -4 6 7 10 18 8 17 10 -13 27 -17 11 -30 25 -27 31 2 7 -4 17 -13 22 -23
14 -6 14 19 1 10 -6 19 -18 20 -28 0 -10 3 -12 6 -4 7 18 36 14 56 -8 22 -26
22 -33 -2 -18 -11 7 -17 16 -15 20 3 4 1 8 -5 8 -21 0 -21 -20 -1 -40 17 -17
28 -20 52 -15 23 6 29 4 23 -6 -6 -9 -3 -11 8 -6 22 8 77 -2 77 -15 0 -5 -15
-6 -32 -3 -91 15 -90 15 -78 -1 7 -7 19 -14 27 -14 8 0 11 -4 8 -10 -3 -6 5
-10 19 -10 14 0 28 -5 31 -10 5 -8 11 -7 21 1 16 13 45 -4 43 -25 -4 -36 2
-46 29 -45 23 2 24 2 5 6 -15 3 -23 12 -23 24 0 16 5 19 20 14 11 -4 20 -2 20
4 0 6 8 11 18 11 9 1 2 8 -18 17 -35 16 -35 16 -10 23 16 5 19 8 8 9 -10 1
-18 6 -18 12 0 8 13 9 40 5 32 -5 38 -4 34 9 -4 10 -14 13 -30 9 -14 -4 -24
-2 -24 4 0 6 19 13 42 17 38 7 41 9 20 16 -13 5 -20 13 -17 19 3 6 -4 10 -17
11 -23 1 -23 1 2 9 14 4 19 8 11 9 -11 1 -11 4 -1 16 7 8 10 25 6 40 -5 18 -2
25 9 25 31 0 13 17 -32 31 -45 14 -47 17 -50 53 -2 30 1 37 13 32 9 -3 24 -6
35 -6 10 0 19 -7 19 -15 0 -11 10 -15 38 -14 20 0 31 3 25 6 -21 8 -15 23 10
24 19 0 20 1 4 8 -10 4 -18 11 -16 16 1 6 -20 17 -47 25 -45 13 -47 15 -20 18
22 3 26 6 15 13 -11 7 -9 9 9 9 12 0 22 -6 22 -14 0 -15 24 -28 34 -19 11 11
6 21 -11 26 -17 4 -17 5 0 6 21 1 22 14 2 31 -20 17 -19 27 4 47 11 9 17 21
13 27 -12 20 -12 46 1 46 6 0 4 5 -5 11 -12 6 -18 22 -18 44 0 19 -3 35 -7 35
-5 0 -7 26 -6 57 2 57 25 134 47 162 8 11 8 15 -2 18 -17 6 -15 23 3 23 8 0
15 4 15 10 0 5 -8 6 -17 3 -13 -5 -15 -2 -10 11 4 10 7 22 7 28 0 6 7 8 14 5
10 -4 13 -1 10 7 -5 12 33 125 57 173 7 12 9 29 6 37 -3 8 -2 18 3 21 5 3 7
12 3 20 -3 8 0 15 6 15 6 0 11 7 11 15 0 9 6 18 14 21 7 3 19 23 26 45 12 36
28 48 43 33 3 -3 -5 -26 -19 -51 -15 -29 -25 -65 -26 -98 -2 -38 -6 -51 -15
-48 -20 8 -15 -7 10 -28 12 -10 36 -18 52 -19 29 0 88 30 86 44 -1 4 10 18 24
32 14 14 25 35 26 47 3 97 20 167 41 167 4 0 8 -9 8 -20 0 -11 -5 -19 -11 -17
-6 1 -13 -3 -16 -10 -2 -7 4 -11 16 -10 12 1 22 8 22 17 1 8 2 20 4 25 1 6 3
16 3 23 1 7 6 11 11 8 5 -4 7 3 4 14 -4 16 0 20 21 20 14 0 26 5 26 10 0 6
-18 10 -40 10 -54 0 -51 20 3 22 l42 1 -40 4 c-22 3 -45 9 -52 15 -7 5 -21 7
-32 3 -13 -4 -24 1 -35 16 -15 21 -16 22 -34 6 -23 -21 -32 -21 -32 -1 0 8 -5
12 -10 9 -6 -4 -10 16 -10 52 0 38 3 53 9 44 5 -8 7 -27 5 -44 -3 -23 0 -28
13 -23 9 4 20 1 25 -6 6 -10 10 -10 18 2 5 8 10 11 10 5 0 -11 21 -13 108 -14
39 -1 52 -5 52 -16 0 -8 4 -15 10 -15 5 0 7 7 4 15 -4 9 0 15 9 15 17 0 20
-37 4 -57 -5 -7 -6 -13 -2 -13 4 0 0 -11 -9 -25 -21 -31 -20 -35 4 -35 15 0
22 8 26 29 6 27 34 53 34 31 0 -6 7 -10 15 -10 8 0 15 7 15 15 0 8 -7 15 -15
15 -8 0 -15 7 -15 15 0 8 -4 15 -10 15 -5 0 -10 5 -10 10 0 7 13 8 33 5 26 -5
39 -2 52 12 17 16 18 16 12 1 -3 -10 -2 -20 3 -23 6 -4 14 5 19 18 5 13 17 27
26 31 9 3 13 11 10 17 -4 6 0 10 11 9 33 -3 62 11 67 33 3 12 9 74 12 137 4
63 11 120 16 126 16 20 12 97 -11 198 -5 22 -7 43 -4 45 8 8 104 1 194 -14 14
-3 34 -6 45 -8 11 -1 25 -6 31 -10 6 -3 28 -10 50 -15 21 -5 46 -11 54 -13 8
-2 26 -14 40 -26 13 -13 34 -23 46 -23 13 0 32 -14 48 -35 34 -44 151 -163
190 -193 16 -12 38 -22 50 -22 12 0 32 -9 44 -20 23 -21 57 -26 67 -10 4 6 43
8 97 5 93 -5 134 -15 60 -15 -25 0 -42 -5 -42 -11 0 -8 17 -10 51 -7 36 4 55
1 65 -9 12 -12 18 -12 29 -3 12 10 15 9 15 -4 0 -12 10 -16 40 -16 29 0 40 4
40 15 0 21 16 19 40 -5 29 -29 40 -25 40 15 0 19 3 35 8 35 14 0 33 -17 36
-31 7 -34 20 -49 41 -49 13 0 26 6 29 13 5 10 7 10 12 0 3 -7 16 -13 28 -13
26 0 52 40 43 64 -4 9 -2 16 3 16 6 0 10 10 10 23 0 17 2 19 10 7 5 -8 7 -24
4 -35 -2 -11 0 -33 5 -50 l9 -30 1 30 c1 29 3 31 36 27 33 -4 39 1 37 28 0 3
8 6 19 6 10 0 19 -4 19 -7 0 -4 11 -6 25 -3 23 4 25 2 25 -36 0 -22 5 -40 10
-40 6 0 22 -12 35 -27 13 -16 26 -25 29 -22 4 3 7 32 8 63 1 31 5 51 9 45 5
-8 13 -8 30 1 24 13 24 13 6 -8 -15 -16 -16 -25 -8 -41 17 -31 13 -36 -9 -11
-19 21 -20 22 -20 4 0 -11 5 -25 11 -31 8 -8 8 -17 0 -31 -8 -15 -8 -21 2 -25
9 -3 9 -7 1 -18 -8 -11 -6 -18 7 -31 11 -10 21 -13 24 -8 4 6 29 10 57 10 50
0 50 0 46 29 -2 17 -1 28 4 25 11 -7 10 -75 -1 -93 -6 -9 -21 -12 -45 -9 -20
2 -36 0 -36 -5 0 -7 34 -7 173 2 5 1 5 6 2 11 -3 6 1 10 10 10 8 0 18 7 21 15
4 8 12 15 20 15 20 0 17 -28 -3 -33 -10 -2 0 -4 22 -3 30 1 41 5 43 19 3 15 0
18 -17 12 -17 -5 -21 -2 -21 17 0 13 4 18 8 12 9 -14 43 -28 61 -25 7 1 10 -2
6 -8 -3 -6 0 -11 7 -11 10 0 9 -3 -2 -11 -15 -10 20 -8 148 7 26 4 42 2 42 -5
0 -6 -8 -10 -17 -9 -34 3 -106 -2 -102 -7 3 -2 36 -7 73 -10 59 -5 68 -3 63
10 -4 9 -1 15 8 15 9 0 15 -10 15 -26 0 -19 -4 -25 -15 -21 -8 4 -17 2 -20 -3
-6 -10 15 -13 78 -10 31 1 37 -2 37 -18 0 -11 7 -25 15 -32 13 -11 18 -10 29
5 10 14 15 15 21 5 4 -7 2 -16 -5 -20 -9 -6 -8 -10 6 -18 10 -6 16 -14 12 -18
-10 -9 19 -76 38 -91 13 -9 13 -15 3 -31 -7 -11 -19 -18 -26 -15 -7 3 -13 -2
-13 -11 0 -9 8 -16 18 -16 15 -1 15 -2 -2 -15 -14 -11 -16 -15 -5 -15 8 0 10
-3 4 -8 -6 -4 -10 -14 -10 -22 2 -32 -37 -134 -56 -145 -7 -5 -6 -12 2 -21 11
-14 2 -20 -25 -15 -5 1 -6 -17 -3 -41 3 -24 3 -35 0 -25 -3 11 -14 17 -34 17
-25 0 -29 4 -29 28 1 15 7 38 14 51 8 14 12 31 9 38 -3 8 3 13 17 13 19 0 22
4 18 34 -2 19 0 32 4 30 4 -3 8 16 8 42 0 26 -3 44 -6 41 -4 -3 -15 -2 -26 4
-24 13 -54 -7 -39 -25 6 -7 4 -18 -5 -30 -8 -11 -14 -14 -14 -8 0 9 -9 9 -34
-2 -19 -8 -37 -12 -40 -8 -6 5 -11 -43 -8 -85 0 -13 -3 -23 -9 -23 -5 0 -9 -6
-9 -13 0 -9 -13 -12 -42 -11 -68 3 -69 4 -63 13 6 11 -31 25 -44 16 -6 -3 -15
4 -21 15 -9 17 -18 20 -43 16 -18 -3 -26 -3 -19 0 6 3 12 11 12 17 0 18 -89
19 -106 3 -7 -8 -19 -16 -26 -18 -23 -8 4 -28 38 -28 21 0 33 -4 29 -10 -4 -6
-11 -8 -16 -5 -12 8 -12 -12 1 -36 6 -10 19 -19 28 -19 10 0 28 -9 40 -20 12
-11 27 -20 34 -20 21 -1 -32 -40 -53 -40 -11 0 -24 -11 -31 -25 -6 -14 -14
-25 -18 -25 -4 0 -10 -9 -13 -21 -4 -15 2 -29 20 -45 14 -13 23 -27 20 -31 -4
-3 3 -11 15 -17 13 -6 27 -20 33 -31 14 -28 115 -31 115 -4 0 10 7 24 15 33
13 13 13 16 -1 30 -10 10 -11 16 -4 16 7 0 10 8 7 20 -5 18 3 25 25 21 5 0 8
4 8 10 0 7 14 8 40 4 37 -6 40 -5 46 21 4 16 22 43 39 61 38 39 53 30 55 -32
3 -173 2 -206 -3 -212 -4 -3 -3 -11 1 -17 4 -6 4 -65 0 -131 -5 -66 -8 -133
-7 -150 0 -16 1 -50 2 -75 1 -60 -21 -194 -33 -198 -6 -2 -7 -8 -4 -13 3 -6 1
-16 -5 -22 -5 -7 -9 -32 -8 -56 1 -25 -4 -45 -11 -50 -9 -5 -11 -22 -8 -53 5
-36 2 -51 -14 -71 -12 -15 -22 -40 -23 -57 -1 -16 -8 -30 -14 -30 -17 0 -17
-17 0 -23 7 -4 6 -6 -4 -6 -19 -1 -49 -42 -49 -66 0 -9 -10 -35 -22 -58 -12
-23 -22 -45 -23 -49 0 -3 -3 -10 -7 -14 -5 -4 -8 -16 -8 -26 0 -11 -4 -16 -10
-13 -5 3 -10 0 -10 -8 0 -7 -11 -19 -25 -25 -14 -6 -25 -19 -25 -27 0 -9 -11
-33 -25 -53 -29 -42 -31 -52 -10 -52 8 0 15 -3 15 -7 0 -5 65 -8 144 -8 79 0
142 4 139 8 -2 4 8 5 24 1 15 -3 73 -7 128 -8 147 -3 151 -4 182 -31 15 -13
23 -25 17 -25 -6 0 -11 -11 -11 -25 0 -13 3 -23 6 -20 4 2 7 -7 7 -20 0 -13
-3 -22 -7 -20 -9 6 -17 -141 -18 -370 -2 -143 -5 -202 -14 -207 -9 -6 -9 -8 1
-8 11 0 12 -24 7 -122 -4 -68 -7 -237 -8 -375 l-2 -253 178 0 177 0 0 2295 0
2295 -2200 0 -2200 0 0 -352z m645 -28 c-3 -5 -14 -10 -23 -9 -14 0 -13 2 3 9
27 11 27 11 20 0z m2379 -11 c36 -28 36 -73 -1 -96 -16 -9 -39 -27 -53 -39
-14 -13 -30 -20 -37 -16 -18 12 8 56 35 60 26 4 45 34 36 57 -5 12 -17 15 -42
13 -23 -2 -37 2 -40 11 -11 34 62 42 102 10z m-2419 -19 c-3 -5 -11 -10 -16
-10 -6 0 -7 5 -4 10 3 6 11 10 16 10 6 0 7 -4 4 -10z m-68 -66 c-3 -3 -12 -4
-19 -1 -8 3 -5 6 6 6 11 1 17 -2 13 -5z m2789 -12 c20 -13 35 -52 29 -73 -4
-10 -24 -28 -46 -40 -22 -11 -42 -26 -46 -34 -8 -23 -33 -18 -33 8 0 15 11 28
38 42 27 15 37 26 37 45 0 22 -4 25 -37 26 -41 1 -53 7 -43 23 7 12 84 15 101
3z m-2508 -27 c-3 -3 -9 2 -12 12 -6 14 -5 15 5 6 7 -7 10 -15 7 -18z m-465 8
c-7 -2 -19 -2 -25 0 -7 3 -2 5 12 5 14 0 19 -2 13 -5z m2597 -86 c0 -18 -24
-29 -45 -21 -17 7 -20 40 -5 49 5 3 6 13 3 21 -3 9 5 6 21 -9 14 -13 26 -31
26 -40z m437 41 c-3 -8 -6 -5 -6 6 -1 11 2 17 5 13 3 -3 4 -12 1 -19z m39 -5
c-10 -10 -19 5 -10 18 6 11 8 11 12 0 2 -7 1 -15 -2 -18z m-3086 13 c0 -2 -7
-7 -16 -10 -8 -3 -12 -2 -9 4 6 10 25 14 25 6z m486 -41 c5 -39 -4 -65 -15
-47 -7 12 -2 96 6 89 2 -3 6 -21 9 -42z m-555 17 c-7 -2 -18 1 -23 6 -8 8 -4
9 13 5 13 -4 18 -8 10 -11z m109 8 c-34 -11 -60 -11 -35 0 11 5 29 8 40 8 16
0 15 -2 -5 -8z m157 4 c-3 -3 -12 -4 -19 -1 -8 3 -5 6 6 6 11 1 17 -2 13 -5z
m2336 -1 c-7 -2 -21 -2 -30 0 -10 3 -4 5 12 5 17 0 24 -2 18 -5z m395 0 c-10
-3 -18 -9 -18 -15 0 -6 -6 -6 -15 2 -8 7 -15 11 -16 9 0 -2 -2 -14 -3 -26 -2
-13 -5 -26 -9 -29 -5 -5 -4 24 2 58 0 3 18 6 39 5 20 0 29 -2 20 -4z m377 -13
c3 -5 2 -10 -4 -10 -5 0 -13 5 -16 10 -3 6 -2 10 4 10 5 0 13 -4 16 -10z
m-3315 -11 c13 -9 12 -10 -2 -5 -10 3 -20 1 -23 -4 -10 -16 -25 -11 -19 5 7
18 23 19 44 4z m2470 -5 c0 -8 -5 -12 -10 -9 -6 4 -8 11 -5 16 9 14 15 11 15
-7z m823 -6 c49 -28 50 -66 3 -102 -19 -14 -39 -26 -45 -26 -5 0 -14 -8 -20
-17 -7 -14 -13 -15 -21 -7 -16 16 6 50 42 65 22 9 28 18 28 41 0 29 -1 30 -42
26 -25 -2 -43 2 -45 9 -8 22 65 30 100 11z m-3253 -22 c0 -11 -19 -15 -25 -6
-3 5 1 10 9 10 9 0 16 -2 16 -4z m1917 -2 c-3 -3 -12 -4 -19 -1 -8 3 -5 6 6 6
11 1 17 -2 13 -5z m133 -10 c0 -2 -7 -4 -15 -4 -8 0 -15 4 -15 10 0 5 7 7 15
4 8 -4 15 -8 15 -10z m-2093 0 c-3 -3 -12 -4 -19 -1 -8 3 -5 6 6 6 11 1 17 -2
13 -5z m86 -1 c-7 -2 -19 -2 -25 0 -7 3 -2 5 12 5 14 0 19 -2 13 -5z m62 -3
c-3 -5 2 -10 12 -10 10 -1 32 -7 48 -15 33 -16 16 -14 -58 6 -35 10 -43 15
-30 21 26 10 35 9 28 -2z m2325 0 c0 -5 -7 -10 -16 -10 -8 0 -12 5 -9 10 3 6
10 10 16 10 5 0 9 -4 9 -10z m564 1 c3 -5 -5 -16 -19 -25 -14 -9 -25 -12 -25
-6 0 6 7 13 15 16 8 4 12 10 9 15 -3 5 -1 9 5 9 5 0 12 -4 15 -9z m46 -42 c0
-11 -4 -17 -10 -14 -5 3 -10 15 -10 26 0 11 5 17 10 14 6 -3 10 -15 10 -26z
m267 9 c-3 -8 -6 -5 -6 6 -1 11 2 17 5 13 3 -3 4 -12 1 -19z m-97 7 c0 -7 -30
-13 -34 -7 -3 4 4 9 15 9 10 1 19 0 19 -2z m-3373 -11 c-3 -3 -12 -4 -19 -1
-8 3 -5 6 6 6 11 1 17 -2 13 -5z m3036 0 c24 -9 9 -54 -18 -54 -27 0 -40 26
-24 46 13 15 20 17 42 8z m67 2 c0 -3 -4 -8 -10 -11 -5 -3 -10 -1 -10 4 0 6 5
11 10 11 6 0 10 -2 10 -4z m51 -33 c-10 -17 -10 -16 -11 3 0 23 13 41 18 25 2
-6 -1 -18 -7 -28z m174 28 c3 -5 2 -12 -3 -15 -5 -3 -9 1 -9 9 0 17 3 19 12 6z
m-722 -16 c4 -8 2 -17 -3 -20 -6 -4 -10 3 -10 14 0 25 6 27 13 6z m-1996 -17
c-3 -8 -6 -5 -6 6 -1 11 2 17 5 13 3 -3 4 -12 1 -19z m2521 -8 c-1 -26 -3 -28
-13 -13 -13 17 -10 43 5 43 5 0 8 -13 8 -30z m-3168 10 c-20 -13 -40 -13 -40
0 0 6 12 10 28 10 21 0 24 -2 12 -10z m320 0 c8 -5 11 -13 6 -17 -5 -4 -11 -3
-13 4 -3 8 -15 10 -35 6 -22 -4 -29 -3 -24 5 9 14 45 15 66 2z m75 -6 c20 -8
35 -18 32 -20 -3 -3 -25 3 -49 14 -51 24 -37 29 17 6z m2735 7 c0 -5 -7 -11
-14 -14 -10 -4 -13 -1 -9 9 6 15 23 19 23 5z m155 -29 c-3 -3 -11 0 -18 7 -9
10 -8 11 6 5 10 -3 15 -9 12 -12z m-3302 -9 c-7 -2 -19 -2 -25 0 -7 3 -2 5 12
5 14 0 19 -2 13 -5z m157 -3 c0 -5 -2 -10 -4 -10 -2 0 -12 -3 -22 -7 -16 -6
-17 -5 -4 10 17 19 30 22 30 7z m225 0 c-19 -8 -19 -8 4 -17 18 -7 21 -12 12
-18 -8 -5 -23 2 -39 19 l-27 26 35 -1 c28 0 31 -2 15 -9z m285 6 c0 -3 -4 -8
-10 -11 -5 -3 -10 -1 -10 4 0 6 5 11 10 11 6 0 10 -2 10 -4z m2625 -16 c-3 -5
-10 -10 -16 -10 -5 0 -9 5 -9 10 0 6 7 10 16 10 8 0 12 -4 9 -10z m-3015 -33
c0 -4 -9 -3 -20 3 -11 6 -20 15 -20 20 0 6 9 5 20 -2 11 -7 20 -16 20 -21z
m2800 16 c0 -3 -6 -3 -12 -1 -7 3 -19 -2 -27 -10 -12 -12 -12 -15 0 -22 7 -5
11 -11 9 -14 -3 -2 -14 2 -24 10 -18 13 -18 14 5 33 20 16 49 19 49 4z m-2875
-3 c3 -5 -1 -10 -9 -10 -9 0 -16 5 -16 10 0 6 4 10 9 10 6 0 13 -4 16 -10z
m2925 0 c0 -5 -10 -10 -22 -10 -19 0 -20 2 -8 10 19 13 30 13 30 0z m-3202
-14 c-7 -8 -15 -12 -17 -11 -5 6 10 25 20 25 5 0 4 -6 -3 -14z m3475 0 c8 -21
-16 -48 -35 -41 -19 7 -31 32 -22 46 8 14 51 11 57 -5z m-3228 -6 c3 -5 2 -10
-4 -10 -5 0 -13 5 -16 10 -3 6 -2 10 4 10 5 0 13 -4 16 -10z m3271 -10 c0 -11
-4 -20 -8 -20 -4 0 -8 9 -8 20 0 11 4 20 8 20 4 0 8 -9 8 -20z m-3158 -12 c20
-12 30 -24 23 -26 -7 -2 -20 3 -31 13 -10 9 -31 20 -46 25 -27 8 -27 8 -5 9
13 1 40 -9 59 -21z m2999 16 c-3 -3 -12 -4 -19 -1 -8 3 -5 6 6 6 11 1 17 -2
13 -5z m-110 -36 c-3 -7 -5 -2 -5 12 0 14 2 19 5 13 2 -7 2 -19 0 -25z m-3073
7 c11 -8 16 -15 10 -15 -5 0 -18 7 -28 15 -11 8 -16 15 -10 15 5 0 18 -7 28
-15z m172 -32 c-6 -6 -46 20 -46 30 0 4 11 0 25 -9 14 -9 24 -19 21 -21z m74
27 c0 -5 -5 -10 -11 -10 -5 0 -7 5 -4 10 3 6 8 10 11 10 2 0 4 -4 4 -10z
m3097 -6 c-3 -3 -12 -4 -19 -1 -8 3 -5 6 6 6 11 1 17 -2 13 -5z m-3272 -37 c0
-7 16 -12 37 -13 21 -1 35 3 32 7 -3 5 3 6 12 2 11 -4 13 -8 6 -11 -25 -8 -12
-29 18 -27 18 1 40 -6 52 -17 12 -10 16 -18 10 -18 -6 0 -17 6 -24 14 -10 10
-18 11 -37 2 -19 -8 -25 -8 -29 2 -2 6 -21 15 -43 18 -21 4 -36 10 -34 15 3 4
-4 14 -16 22 -14 11 -17 16 -7 20 15 5 23 0 23 -16z m3235 8 c0 -8 -2 -15 -4
-15 -2 0 -6 7 -10 15 -3 8 -1 15 4 15 6 0 10 -7 10 -15z m17 -7 c-3 -8 -6 -5
-6 6 -1 11 2 17 5 13 3 -3 4 -12 1 -19z m-3112 -16 c-3 -3 -11 0 -18 7 -9 10
-8 11 6 5 10 -3 15 -9 12 -12z m-178 2 c-3 -3 -12 -4 -19 -1 -8 3 -5 6 6 6 11
1 17 -2 13 -5z m277 -3 c4 -5 -3 -7 -14 -4 -23 6 -26 13 -6 13 8 0 17 -4 20
-9z m2789 2 c-7 -2 -21 -2 -30 0 -10 3 -4 5 12 5 17 0 24 -2 18 -5z m-3051
-36 c3 -6 22 -11 41 -11 19 -1 33 -4 30 -8 -2 -5 4 -8 14 -9 16 0 16 -1 -2 -9
-18 -8 -16 -10 14 -14 5 0 13 -4 17 -8 12 -13 32 -9 38 8 5 12 1 14 -15 9 -14
-5 -20 -3 -17 5 2 6 7 11 11 11 4 -1 14 -1 23 -1 10 0 14 -6 11 -14 -3 -7 0
-19 6 -25 9 -9 8 -11 -5 -6 -25 10 -23 -7 2 -23 12 -7 18 -17 15 -22 -4 -6 7
-13 24 -16 42 -9 39 -24 -4 -24 -19 0 -35 5 -35 10 0 6 -6 10 -14 10 -8 0 -18
5 -22 12 -5 7 -2 9 7 4 8 -4 5 0 -6 9 -11 9 -19 22 -17 28 2 7 0 9 -3 5 -4 -4
-25 2 -47 13 -21 11 -43 17 -47 14 -5 -2 -12 2 -15 11 -5 12 -2 15 9 10 10 -3
13 -2 10 5 -4 5 -14 7 -24 4 -10 -3 -32 6 -52 21 l-34 25 40 -7 c22 -4 43 -12
47 -17z m495 -9 c-3 -7 -5 -2 -5 12 0 14 2 19 5 13 2 -7 2 -19 0 -25z m-277
12 c0 -5 -2 -10 -4 -10 -3 0 -8 5 -11 10 -3 6 -1 10 4 10 6 0 11 -4 11 -10z
m403 -23 c-3 -5 -10 -4 -15 1 -6 6 -7 16 -3 22 6 9 9 9 16 -1 4 -7 5 -17 2
-22z m-820 -4 c-7 -2 -19 -2 -25 0 -7 3 -2 5 12 5 14 0 19 -2 13 -5z m689 -28
c-2 -14 -8 -22 -13 -19 -5 3 -5 14 1 25 14 26 18 24 12 -6z m168 -1 c0 -17
-22 -14 -28 4 -2 7 3 12 12 12 9 0 16 -7 16 -16z m-674 -4 c8 0 14 -8 13 -17
0 -11 -3 -13 -6 -5 -2 6 -13 12 -23 12 -10 0 -22 5 -26 12 -5 8 -2 9 10 5 10
-4 24 -7 32 -7z m129 -50 c3 -5 2 -10 -4 -10 -5 0 -13 5 -16 10 -3 6 -2 10 4
10 5 0 13 -4 16 -10z m-115 -41 c0 -6 -4 -7 -10 -4 -5 3 -10 11 -10 16 0 6 5
7 10 4 6 -3 10 -11 10 -16z m-235 1 c-3 -5 -12 -10 -18 -10 -7 0 -6 4 3 10 19
12 23 12 15 0z m175 2 c0 -4 -9 -8 -20 -8 -11 0 -20 4 -20 8 0 4 9 8 20 8 11
0 20 -4 20 -8z m-94 -33 c4 -7 0 -9 -13 -5 -10 3 -28 -1 -39 -9 -10 -8 -26
-15 -34 -15 -17 0 49 39 67 39 6 1 15 -4 19 -10z m210 -4 c-3 -8 -1 -15 5 -15
12 0 31 -15 69 -52 16 -16 32 -28 37 -28 4 -1 22 -12 38 -26 25 -21 18 -19
-42 12 -40 20 -72 39 -71 43 2 18 -4 22 -16 12 -11 -9 -16 -9 -22 0 -4 8 -3 9
4 5 7 -4 12 -3 12 3 0 5 -4 13 -10 16 -5 3 -15 15 -20 26 -9 15 -7 19 6 19 10
0 14 -5 10 -15z m-36 -20 c14 -19 14 -19 -2 -6 -10 7 -18 18 -18 24 0 6 1 8 3
6 1 -2 9 -13 17 -24z m-13 -81 c-3 -3 -12 -4 -19 -1 -8 3 -5 6 6 6 11 1 17 -2
13 -5z m123 -19 c14 -8 20 -14 13 -15 -6 0 -20 -3 -30 -6 -15 -5 -15 -4 -3 5
12 9 11 11 -8 11 -13 0 -20 4 -17 10 8 13 15 12 45 -5z m3410 -15 c0 -5 -5
-10 -11 -10 -5 0 -7 5 -4 10 3 6 8 10 11 10 2 0 4 -4 4 -10z m-3632 -7 c-10
-2 -26 -2 -35 0 -10 3 -2 5 17 5 19 0 27 -2 18 -5z m277 -3 c3 -6 -1 -7 -9 -4
-18 7 -21 14 -7 14 6 0 13 -4 16 -10z m-289 -25 c-25 -19 -41 -19 -24 0 7 8
20 14 28 14 11 0 10 -3 -4 -14z m335 -3 c-10 -3 -10 -6 -2 -12 16 -9 3 -60
-15 -60 -19 0 -18 17 2 28 13 7 10 12 -18 31 -26 17 -28 21 -9 16 15 -5 21 -3
17 3 -4 6 2 8 16 4 14 -3 17 -7 9 -10z m79 4 c0 -2 -7 -7 -16 -10 -8 -3 -12
-2 -9 4 6 10 25 14 25 6z m-460 -10 c0 -3 -4 -8 -10 -11 -5 -3 -10 -1 -10 4 0
6 5 11 10 11 6 0 10 -2 10 -4z m3610 -16 c0 -5 -4 -10 -10 -10 -5 0 -10 5 -10
10 0 6 5 10 10 10 6 0 10 -4 10 -10z m-3413 -36 c-3 -3 -12 -4 -19 -1 -8 3 -5
6 6 6 11 1 17 -2 13 -5z m-17 -24 c-8 -5 -19 -10 -25 -10 -5 0 -3 5 5 10 8 5
20 10 25 10 6 0 3 -5 -5 -10z m206 -58 c-5 -76 -27 -142 -49 -142 -10 0 -27
-5 -39 -11 -25 -13 -35 -5 -18 16 10 12 10 15 0 15 -7 0 -19 -8 -26 -17 -8
-11 -13 -13 -14 -5 0 17 37 52 55 52 22 0 18 21 -5 27 -16 4 -17 7 -5 19 7 8
19 14 25 14 6 0 14 8 17 18 11 28 46 72 54 66 4 -2 6 -26 5 -52z m-211 -90
c-8 -8 -25 10 -19 20 4 6 9 5 15 -3 4 -7 6 -15 4 -17z m-35 8 c0 -5 -10 -10
-22 -10 -19 0 -20 2 -8 10 19 13 30 13 30 0z m270 -30 c0 -11 -7 -20 -15 -20
-13 0 -13 3 -3 20 7 11 14 20 15 20 2 0 3 -9 3 -20z m-45 -50 c-3 -5 -13 -10
-21 -10 -8 0 -14 5 -14 10 0 6 9 10 21 10 11 0 17 -4 14 -10z m-155 -50 c0 -5
-7 -10 -15 -10 -8 0 -15 5 -15 10 0 6 7 10 15 10 8 0 15 -4 15 -10z m45 -270
c3 -5 2 -10 -4 -10 -5 0 -13 5 -16 10 -3 6 -2 10 4 10 5 0 13 -4 16 -10z m122
-59 c1 -16 -7 -21 -43 -27 -25 -3 -48 -4 -51 0 -4 3 7 7 23 8 25 1 23 2 -11 8
-36 7 -35 7 13 5 28 -2 52 0 52 4 0 4 -23 9 -52 10 -75 2 -73 11 3 11 57 0 65
-2 66 -19z m-254 -38 c-7 -2 -19 -2 -25 0 -7 3 -2 5 12 5 14 0 19 -2 13 -5z
m137 -13 c0 -5 -5 -10 -11 -10 -5 0 -7 5 -4 10 3 6 8 10 11 10 2 0 4 -4 4 -10z
m-52 -28 c22 -3 13 -22 -10 -22 -34 0 -68 11 -63 20 4 6 31 7 73 2z m167 -33
c12 -5 -9 -6 -50 -3 -38 2 -74 9 -80 15 -11 11 97 1 130 -12z m-183 -10 c15
-8 19 -8 14 0 -4 6 -2 11 3 11 6 0 11 -7 11 -15 0 -8 5 -15 11 -15 5 0 7 5 4
10 -3 6 1 10 9 10 9 0 16 -7 16 -16 0 -13 -7 -15 -35 -11 -44 7 -45 1 -2 -12
27 -8 28 -9 7 -9 -31 0 -91 15 -67 17 9 0 17 4 17 7 0 4 -8 13 -17 20 -22 17
-1 19 29 3z m-249 -12 c-2 -4 -3 -10 -3 -14 0 -5 -12 -9 -28 -9 -15 -1 -21 1
-13 4 10 3 8 8 -9 17 -20 11 -19 12 16 11 22 -1 38 -5 37 -9z m147 -63 c0 -2
-15 -4 -32 -3 -27 0 -29 2 -13 8 18 8 45 4 45 -5z m125 8 c6 -4 11 -13 13 -20
1 -9 -5 -8 -23 4 -14 9 -25 18 -25 20 0 7 24 4 35 -4z m-130 -32 c-3 -5 -11
-10 -16 -10 -6 0 -7 5 -4 10 3 6 11 10 16 10 6 0 7 -4 4 -10z m201 1 c-3 -5 4
-11 16 -14 12 -4 19 -9 16 -12 -8 -9 -48 13 -48 25 0 6 5 10 11 10 5 0 8 -4 5
-9z m-272 -34 c-9 -5 -32 -4 -52 1 -37 9 -36 9 15 8 33 -1 46 -4 37 -9z m246
3 c18 -12 2 -12 -25 0 -13 6 -15 9 -5 9 8 0 22 -4 30 -9z m-260 -36 c0 -2 -12
-4 -26 -4 -14 0 -23 4 -20 9 6 8 46 4 46 -5z m53 9 c-7 -2 -21 -2 -30 0 -10 3
-4 5 12 5 17 0 24 -2 18 -5z m-119 -37 c-7 -18 -25 -17 -31 1 -2 6 4 13 14 15
23 5 25 4 17 -16z m136 4 c0 -5 -4 -10 -10 -10 -5 0 -10 5 -10 10 0 6 5 10 10
10 6 0 10 -4 10 -10z m-102 -46 c15 -10 22 -25 21 -47 l-1 -32 -9 32 c-5 18
-19 39 -31 48 -13 8 -18 15 -12 15 5 0 20 -7 32 -16z m242 -10 c0 -2 -12 -4
-26 -4 -14 0 -23 4 -20 9 6 8 46 4 46 -5z m-280 -6 c0 -15 -20 -17 -46 -4
l-27 15 36 -2 c20 -1 37 -5 37 -9z m304 -9 c-3 -6 0 -16 7 -21 9 -6 -3 -7 -36
-3 -67 9 -96 27 -32 20 28 -3 47 -1 47 5 0 5 5 10 11 10 5 0 7 -5 3 -11z
m-335 -98 c10 -7 7 -9 -12 -8 -15 1 -27 5 -27 10 0 10 22 9 39 -2z m81 -15 c0
-2 -7 -7 -16 -10 -8 -3 -12 -2 -9 4 6 10 25 14 25 6z m27 -62 c-3 -3 -12 -4
-19 -1 -8 3 -5 6 6 6 11 1 17 -2 13 -5z m26 -71 c-7 -2 -19 -2 -25 0 -7 3 -2
5 12 5 14 0 19 -2 13 -5z m57 -8 c0 -8 -9 -15 -20 -15 -13 0 -18 5 -14 15 4 8
12 15 20 15 8 0 14 -7 14 -15z"/>
<path d="M365 3690 c3 -5 11 -10 16 -10 6 0 7 5 4 10 -3 6 -11 10 -16 10 -6 0
-7 -4 -4 -10z"/>
<path d="M1440 4140 c0 -11 -8 -24 -17 -28 -21 -8 -24 -18 -30 -99 -4 -60 8
-87 20 -43 3 12 14 20 26 20 25 0 26 6 6 26 -22 23 -19 69 6 86 16 10 20 20
15 36 -9 28 -26 29 -26 2z"/>
<path d="M210 4010 c-13 -8 -12 -10 3 -10 9 0 17 5 17 10 0 12 -1 12 -20 0z"/>
<path d="M2940 3900 c0 -5 5 -10 10 -10 6 0 10 5 10 10 0 6 -4 10 -10 10 -5 0
-10 -4 -10 -10z"/>
<path d="M1374 3855 c-23 -55 -15 -63 60 -62 55 0 65 3 70 20 3 11 9 16 16 12
8 -5 11 -1 8 11 -2 11 -13 20 -26 22 -12 2 -22 8 -22 13 0 5 -9 9 -20 9 -11 0
-20 -4 -20 -10 0 -15 -16 -12 -34 6 -15 14 -18 13 -32 -21z"/>
<path d="M2597 3859 c8 -8 16 -8 30 0 16 9 14 10 -11 11 -22 0 -27 -3 -19 -11z"/>
<path d="M2895 3860 c-8 -12 20 -24 35 -15 6 3 8 11 5 16 -8 12 -32 12 -40 -1z"/>
<path d="M2903 3813 c9 -2 23 -2 30 0 6 3 -1 5 -18 5 -16 0 -22 -2 -12 -5z"/>
<path d="M3020 3770 c0 -11 4 -20 9 -20 11 0 22 26 14 34 -12 12 -23 5 -23
-14z"/>
<path d="M3 3494 c0 -16 13 -19 21 -5 3 5 0 11 -7 14 -8 3 -14 -1 -14 -9z"/>
<path d="M3345 3460 c-8 -13 -1 -24 14 -19 6 3 7 10 2 18 -6 10 -10 10 -16 1z"/>
<path d="M3300 3450 c0 -5 7 -10 15 -10 8 0 15 5 15 10 0 6 -7 10 -15 10 -8 0
-15 -4 -15 -10z"/>
<path d="M3820 3420 c-12 -7 -12 -12 -3 -21 15 -15 26 -7 21 15 -2 11 -7 13
-18 6z"/>
<path d="M1456 3376 c3 -8 -3 -16 -12 -20 -41 -16 -103 -62 -99 -73 2 -7 0
-13 -6 -13 -6 0 -8 -7 -5 -15 3 -9 -1 -18 -8 -21 -14 -5 -16 -12 -16 -54 0
-28 13 -95 19 -100 4 -3 12 -18 19 -33 6 -15 20 -31 29 -34 10 -4 24 -13 31
-20 7 -7 21 -13 31 -13 9 0 22 -5 28 -11 6 -6 54 -11 112 -11 74 -1 101 -4 97
-13 -5 -14 41 -14 65 0 33 20 40 53 38 181 -1 118 -2 126 -23 134 -11 5 -15 9
-8 9 22 1 13 21 -10 21 -12 0 -18 3 -15 7 9 8 -24 32 -46 33 -10 0 -22 10 -27
23 -5 12 -9 18 -9 14 -1 -4 -11 -2 -23 5 -33 17 -168 21 -162 4z m198 -192 c3
-8 2 -12 -4 -9 -6 3 -10 10 -10 16 0 14 7 11 14 -7z"/>
<path d="M20 3330 c0 -5 5 -10 11 -10 5 0 7 5 4 10 -3 6 -8 10 -11 10 -2 0 -4
-4 -4 -10z"/>
<path d="M3320 3331 c0 -21 29 -32 62 -22 24 7 27 9 11 10 -12 1 -25 6 -28 11
-8 12 -45 13 -45 1z"/>
<path d="M42 3311 c-8 -5 -12 -16 -10 -25 2 -12 6 -10 15 9 6 14 10 25 10 25
-1 0 -8 -4 -15 -9z"/>
<path d="M1745 3310 c3 -5 8 -10 11 -10 2 0 4 5 4 10 0 6 -5 10 -11 10 -5 0
-7 -4 -4 -10z"/>
<path d="M3427 3313 c-4 -3 5 -12 19 -20 39 -19 50 -16 21 7 -28 22 -31 23
-40 13z"/>
<path d="M85 3290 c-3 -5 -1 -10 4 -10 6 0 11 5 11 10 0 6 -2 10 -4 10 -3 0
-8 -4 -11 -10z"/>
<path d="M93 3253 c9 -2 23 -2 30 0 6 3 -1 5 -18 5 -16 0 -22 -2 -12 -5z"/>
<path d="M117 3209 c7 -7 15 -10 18 -7 3 3 -2 9 -12 12 -14 6 -15 5 -6 -5z"/>
<path d="M85 3180 c-3 -5 -2 -10 4 -10 5 0 13 5 16 10 3 6 2 10 -4 10 -5 0
-13 -4 -16 -10z"/>
<path d="M158 3103 c7 -3 16 -2 19 1 4 3 -2 6 -13 5 -11 0 -14 -3 -6 -6z"/>
<path d="M3360 3080 c0 -5 5 -10 11 -10 5 0 7 5 4 10 -3 6 -8 10 -11 10 -2 0
-4 -4 -4 -10z"/>
<path d="M2480 3070 c0 -5 7 -10 16 -10 8 0 12 5 9 10 -3 6 -10 10 -16 10 -5
0 -9 -4 -9 -10z"/>
<path d="M2560 3045 c0 -12 -6 -16 -19 -12 -10 2 -29 -4 -42 -14 -13 -10 -32
-19 -41 -19 -10 0 -18 -5 -18 -10 0 -6 -8 -10 -17 -8 -11 2 -18 -4 -18 -15 0
-10 -6 -21 -13 -26 -7 -4 -15 -17 -17 -27 -2 -10 -4 -21 -4 -24 -1 -3 -6 2
-11 10 -8 13 -11 12 -23 -4 -12 -17 -12 -22 -1 -34 22 -21 16 -37 -6 -17 -11
10 -23 15 -27 11 -4 -4 -1 -11 7 -17 13 -8 13 -11 -3 -20 -9 -6 -15 -14 -12
-19 3 -5 1 -11 -5 -15 -5 -3 -10 -17 -10 -31 0 -20 4 -24 19 -19 11 3 22 1 26
-5 3 -5 16 -8 28 -4 27 6 73 -16 93 -45 9 -12 21 -21 28 -21 8 0 19 -7 26 -15
7 -9 19 -14 27 -11 8 3 12 2 9 -2 -2 -4 7 -13 21 -19 21 -10 24 -10 18 4 -5
14 -2 13 15 -2 29 -26 139 -27 193 -2 20 10 37 22 37 27 0 4 13 11 29 15 17 4
31 14 34 26 3 11 9 19 14 18 32 -6 44 2 43 29 -4 59 0 83 13 77 6 -4 4 0 -5 8
-10 8 -18 19 -18 25 0 6 -15 27 -33 46 -19 20 -29 37 -23 40 6 2 1 5 -12 5
-14 1 -20 5 -17 12 4 6 -3 13 -15 16 -16 4 -18 8 -8 14 9 6 7 9 -9 9 -12 0
-23 5 -25 10 -5 15 -147 49 -151 37 -1 -5 -10 -3 -18 5 -8 9 -25 19 -37 22
-17 6 -22 3 -22 -9z m-29 -362 c13 -16 12 -17 -3 -4 -17 13 -22 21 -14 21 2 0
10 -8 17 -17z"/>
<path d="M3596 2947 c3 -10 9 -15 12 -12 3 3 0 11 -7 18 -10 9 -11 8 -5 -6z"/>
<path d="M295 2910 c-18 -8 -18 -9 -2 -9 10 -1 16 -5 13 -10 -7 -10 17 -21 42
-20 11 0 9 4 -8 11 l-25 11 30 7 c17 4 22 8 13 9 -9 0 -22 3 -30 5 -7 3 -22 1
-33 -4z"/>
<path d="M314 2845 c8 -8 25 -14 38 -14 20 1 21 2 3 6 -11 3 -24 9 -29 14 -17
16 -28 10 -12 -6z"/>
<path d="M355 2810 c-3 -5 1 -10 10 -10 9 0 13 5 10 10 -3 6 -8 10 -10 10 -2
0 -7 -4 -10 -10z"/>
<path d="M76 2765 c4 -10 22 -15 58 -17 l51 -1 -45 -7 c-42 -7 -43 -7 -10 -9
26 -1 31 -4 20 -11 -13 -8 -12 -11 5 -24 19 -15 18 -15 -15 -17 -35 -1 -35 -1
-6 -8 16 -3 31 -12 34 -20 3 -8 0 -11 -7 -7 -6 4 -11 3 -11 -3 0 -16 35 -22
63 -12 14 5 27 8 28 7 2 -2 22 -6 44 -9 l40 -6 -29 15 c-17 10 -45 14 -68 12
-34 -3 -37 -2 -21 9 9 8 23 11 29 9 7 -3 11 2 10 9 -3 19 -16 32 -16 15 0 -21
-38 19 -42 44 -2 16 -11 22 -36 24 -18 2 -30 8 -27 13 4 5 -7 9 -24 9 -23 0
-29 -4 -25 -15z"/>
<path d="M1676 2749 c-15 -9 -16 -13 -5 -20 10 -6 5 -9 -15 -9 -23 0 -27 -3
-21 -17 4 -10 8 -22 9 -28 7 -25 35 -80 40 -77 15 6 19 1 6 -8 -13 -8 -12 -10
4 -10 11 0 16 -5 13 -14 -3 -7 1 -23 9 -35 13 -17 13 -23 2 -34 -15 -16 -160
-42 -182 -34 -9 4 -16 2 -16 -4 0 -6 -19 -10 -42 -9 -65 3 -66 2 -64 -32 1
-30 -2 -32 -42 -41 -35 -7 -47 -5 -61 7 -10 9 -21 16 -24 16 -13 0 -7 -23 10
-35 9 -7 14 -19 10 -29 -7 -18 -16 -20 -37 -6 -12 8 -13 11 -1 19 18 12 -54
20 -94 10 l-30 -7 28 -1 c15 -1 27 -6 27 -12 0 -8 -17 -10 -53 -6 -96 10 -146
-14 -64 -31 l42 -8 -32 -8 c-18 -4 -33 -14 -33 -22 0 -8 -4 -14 -10 -14 -5 0
-10 7 -10 15 0 9 -6 12 -15 9 -8 -4 -15 -15 -15 -25 0 -21 -11 -24 -27 -8 -6
6 -26 9 -44 7 -28 -2 -35 -8 -37 -28 -2 -18 -16 -34 -47 -52 -31 -19 -43 -32
-39 -43 3 -8 1 -15 -5 -15 -6 0 -11 -11 -11 -24 0 -14 -4 -28 -10 -31 -6 -3
-10 -17 -10 -30 0 -13 -4 -27 -10 -30 -16 -10 -11 -44 10 -65 20 -20 28 -60
11 -60 -5 0 -11 -9 -14 -19 -6 -24 -44 -18 -50 8 -2 9 -3 -7 -3 -36 1 -28 -2
-54 -6 -58 -12 -12 -28 5 -28 30 0 13 -4 27 -10 30 -5 3 -10 15 -10 26 0 24
-15 24 -40 -1 -24 -24 -25 -30 -5 -30 8 0 15 -4 15 -10 0 -5 -9 -10 -20 -10
-15 0 -20 -7 -20 -24 0 -14 5 -28 10 -31 15 -9 12 -25 -4 -19 -8 3 -21 20 -30
37 -9 19 -16 25 -16 15 0 -9 -5 -29 -11 -45 -7 -20 -12 -24 -18 -14 -7 11 -13
9 -30 -8 -11 -11 -21 -28 -21 -36 0 -8 -9 -19 -20 -25 -16 -9 -18 -8 -14 5 4
9 0 15 -9 15 -25 0 -32 -22 -12 -36 21 -16 19 -21 -10 -26 -11 -1 -19 2 -18 7
1 6 -8 12 -19 12 -19 2 -19 1 -3 -17 10 -11 26 -22 36 -25 37 -12 17 -42 -23
-36 -4 0 -5 -6 -2 -14 4 -8 9 -15 13 -15 4 0 12 -15 19 -33 7 -18 20 -42 29
-53 10 -11 29 -41 42 -67 13 -26 30 -47 37 -47 18 0 35 -35 28 -55 -6 -14 -8
-14 -20 2 -7 10 -13 23 -13 28 0 6 6 1 14 -9 8 -11 15 -15 15 -9 0 6 -7 16
-15 23 -8 7 -15 9 -15 5 0 -4 -7 -1 -17 6 -9 8 -18 13 -20 11 -3 -2 -8 0 -11
4 -4 4 -1 4 6 0 17 -10 15 9 -3 24 -9 7 -14 19 -11 26 3 7 -12 29 -32 50 -20
21 -31 35 -24 31 22 -14 13 9 -18 43 -17 18 -30 29 -30 24 0 -6 5 -15 12 -22
6 -6 8 -15 3 -19 -4 -5 -10 -2 -12 5 -6 17 -23 15 -23 -3 0 -8 3 -14 8 -14 4
1 16 1 27 0 19 -2 18 -3 -3 -11 -12 -5 -28 -8 -35 -6 -6 1 -8 1 -4 -2 4 -2 3
-10 -4 -18 -9 -11 -9 -14 0 -14 7 0 9 -5 5 -11 -4 -8 0 -8 15 0 14 8 21 8 21
1 0 -6 -13 -13 -29 -16 -25 -5 -29 -10 -25 -31 4 -20 1 -24 -11 -20 -16 7 -21
-8 -5 -18 5 -3 7 -12 4 -20 -4 -8 1 -18 10 -21 9 -3 16 -12 16 -19 0 -6 9 -20
20 -30 11 -10 20 -22 20 -28 0 -5 9 -23 21 -40 l21 -32 -26 30 c-43 49 -45 52
-38 61 4 4 -1 4 -10 1 -10 -3 -17 -2 -15 2 3 12 -20 46 -55 84 -21 22 -28 26
-28 13 0 -9 7 -16 15 -16 8 0 15 -5 15 -11 0 -5 -4 -7 -10 -4 -6 4 -7 -1 -4
-12 5 -17 5 -17 -9 0 -8 9 -20 17 -28 17 -8 0 -4 -8 11 -20 20 -16 22 -20 8
-20 -10 0 -18 -4 -18 -10 0 -5 -8 -11 -17 -11 -10 -1 -5 -4 11 -8 35 -7 43
-23 21 -44 -8 -9 -15 -20 -15 -26 0 -6 -4 -11 -9 -11 -16 0 -20 -70 -5 -105
18 -43 18 -51 0 -58 -9 -4 -12 0 -9 11 2 10 -5 38 -16 62 -11 25 -21 40 -21
33 0 -7 -7 -10 -15 -7 -17 7 -21 -11 -5 -21 6 -3 10 -13 10 -21 0 -17 -42 -13
-48 6 -3 7 0 10 7 6 6 -4 11 -2 11 4 0 7 -7 10 -15 6 -8 -3 -15 0 -15 6 0 6
-2 9 -5 6 -9 -8 27 -78 37 -72 4 3 5 -2 2 -10 -3 -8 0 -23 6 -33 11 -17 11
-17 6 0 -3 10 1 28 9 40 8 12 15 33 16 47 l1 25 8 -25 c4 -14 8 -34 8 -45 l1
-20 -8 20 -8 20 -6 -20 c-17 -61 -17 -84 2 -134 12 -28 23 -77 25 -109 3 -31
3 -46 0 -32 -3 14 -16 63 -30 109 -19 62 -29 80 -37 72 -9 -9 -8 -17 1 -31 14
-23 17 -59 3 -44 -4 5 -16 30 -26 57 -22 57 -31 55 -15 -3 8 -30 8 -46 1 -53
-6 -6 -11 -19 -11 -29 0 -11 -7 -18 -20 -18 -13 0 -20 -7 -20 -20 0 -11 7 -20
15 -20 9 0 12 -6 9 -15 -4 -8 -10 -15 -15 -15 -5 0 -9 7 -9 15 0 8 -4 15 -9
15 -5 0 -12 8 -14 18 -3 9 -5 -160 -6 -375 l-1 -393 1229 0 1229 0 -1 43 c-2
49 17 67 21 20 2 -18 7 -33 13 -33 5 0 9 -7 9 -15 0 -8 7 -15 15 -15 8 0 15 7
15 15 0 8 -7 15 -16 15 -12 0 -14 5 -9 17 4 10 8 29 9 43 1 16 9 29 24 35 12
5 22 15 22 21 0 7 8 10 20 7 22 -6 28 12 8 20 -8 3 -6 6 5 6 16 1 26 40 10 42
-104 10 -123 21 -28 17 50 -2 69 -7 72 -18 4 -13 3 -13 -6 0 -13 18 -12 20
-16 -57 l-3 -63 30 0 c16 0 37 7 46 16 10 11 17 13 20 5 8 -23 20 -10 26 29 3
21 14 44 24 49 16 10 16 10 -2 11 -11 0 -17 3 -13 6 3 3 25 3 49 -1 40 -7 41
-8 18 -17 -17 -6 -21 -11 -12 -17 15 -9 25 -51 12 -51 -5 0 -11 10 -13 23 -4
20 -4 20 -6 -4 0 -14 5 -31 12 -38 10 -11 10 -14 0 -18 -17 -6 -17 -40 0 -46
19 -7 43 8 28 17 -19 12 -12 26 14 26 20 0 25 -5 25 -25 0 -26 14 -33 26 -14
3 6 1 15 -5 19 -9 5 -8 10 4 20 8 7 15 26 15 42 0 26 2 29 15 18 11 -9 15 -9
15 -1 0 6 -7 14 -16 18 -13 5 -13 7 -2 14 7 5 21 9 31 9 15 0 16 -3 7 -20 -9
-17 -8 -20 10 -20 11 0 20 7 20 15 0 12 14 15 65 15 l65 0 0 35 c0 35 0 35
-45 35 -27 0 -45 5 -45 11 0 23 -32 37 -61 27 -20 -7 -25 -14 -22 -28 3 -13
-1 -22 -11 -26 -22 -8 -33 3 -18 18 17 17 15 36 -5 41 -10 3 -1 5 20 6 23 1
36 5 32 11 -4 6 -11 8 -16 5 -15 -10 -10 2 8 16 9 8 14 9 10 3 -4 -7 -1 -16 6
-22 13 -11 77 10 77 26 0 12 49 34 61 27 16 -10 -10 -44 -44 -59 -30 -14 -25
-14 78 -15 l110 -1 -30 18 c-16 10 -38 21 -48 25 -21 8 -18 31 4 34 24 5 109
-55 103 -72 -3 -8 -10 -12 -15 -9 -5 3 -9 -4 -9 -15 0 -18 -6 -21 -50 -21
l-50 0 0 -35 0 -35 65 0 c58 0 65 -2 65 -20 0 -19 -7 -20 -172 -21 -106 0
-165 -4 -153 -9 l20 -9 -20 -1 c-15 -1 -12 -4 9 -10 17 -5 91 -10 165 -10 168
-2 163 -2 156 10 -3 5 15 0 40 -11 39 -17 48 -18 65 -6 11 8 17 17 13 20 -3 4
23 7 58 7 45 0 60 -3 49 -10 -9 -6 -10 -10 -3 -10 6 0 15 5 18 10 3 6 14 9 23
9 15 -1 15 -2 -1 -6 -16 -4 -15 -6 5 -22 18 -15 27 -16 52 -7 41 14 43 16 26
27 -12 7 -13 11 -2 17 7 5 12 20 10 33 -3 27 10 163 19 194 3 14 2 17 -5 10
-6 -5 -12 -30 -15 -55 -2 -32 -4 -25 -5 28 -1 50 -6 72 -14 72 -9 0 -9 3 1 9
8 6 -11 7 -50 5 -35 -2 -58 -1 -51 2 6 3 12 14 12 24 0 20 -54 35 -84 24 -10
-4 -16 -1 -17 7 -1 18 -18 -21 -18 -41 0 -10 4 -8 10 5 l9 20 -3 -20 c-3 -25
-43 -29 -58 -6 -9 14 -10 14 -5 -2 4 -12 2 -17 -6 -15 -18 6 -41 -20 -34 -38
4 -9 2 -12 -5 -8 -6 3 -9 17 -6 30 2 13 1 23 -2 22 -3 0 -36 0 -73 1 -64 1
-68 2 -68 24 0 16 3 18 9 9 6 -10 10 -8 14 9 6 24 1 39 -13 39 -5 0 -7 -7 -4
-15 4 -10 0 -15 -15 -15 -12 0 -21 -5 -21 -11 0 -5 4 -8 8 -5 5 3 8 -5 8 -17
-1 -20 4 -22 62 -25 l62 -3 0 -39 c0 -29 -4 -40 -15 -40 -8 0 -15 9 -15 20 0
19 -7 20 -115 20 l-115 0 0 -25 c0 -19 -5 -25 -22 -25 -21 0 -23 4 -20 50 3
43 1 50 -15 50 -15 0 -16 -2 -3 -10 20 -13 -1 -13 -35 0 -15 6 -32 7 -38 3 -7
-5 1 -10 21 -13 35 -5 45 -23 15 -28 -15 -3 -16 -1 -3 7 12 9 9 11 -15 11 -24
0 -27 -2 -15 -11 12 -8 10 -9 -10 -7 -15 2 -26 10 -28 22 -3 11 0 16 7 12 6
-4 11 -2 11 3 0 6 -4 11 -10 11 -5 0 -7 6 -4 13 3 8 -2 20 -11 27 -8 7 -15 20
-16 29 -1 9 -4 5 -9 -9 -4 -14 -8 -19 -9 -12 -1 10 -6 10 -21 2 -14 -8 -20
-21 -20 -45 0 -31 -3 -35 -25 -35 -17 0 -25 5 -25 18 0 15 2 15 11 2 9 -12 10
-12 5 3 -3 10 -6 33 -6 50 0 28 -1 29 -13 12 -8 -10 -19 -15 -25 -11 -16 10
-10 71 7 71 8 0 17 8 20 18 6 17 8 17 25 -2 36 -40 103 -17 94 32 -5 23 -2 27
19 27 14 0 21 -4 18 -10 -4 -6 -12 -7 -18 -4 -9 5 -9 3 0 -6 10 -11 15 -11 27
0 9 7 13 17 9 24 -4 6 1 5 10 -2 9 -8 21 -11 27 -7 5 3 13 -1 16 -9 3 -9 10
-13 15 -10 5 3 6 -2 3 -10 -5 -14 8 -16 97 -17 160 -2 233 2 246 13 13 11 102
18 101 8 -2 -19 3 -30 11 -25 5 3 17 -2 26 -12 13 -12 19 -13 24 -4 6 9 34 11
95 9 71 -2 86 0 86 12 0 8 3 25 6 38 4 13 2 22 -5 22 -6 0 -11 -6 -11 -12 0
-10 -27 -13 -107 -12 -91 2 -109 4 -111 18 -3 13 6 16 47 16 l51 0 0 40 c0 39
-1 40 -35 40 -24 0 -35 5 -35 15 0 12 17 15 88 15 l87 1 -35 19 c-45 24 -62
25 -109 1 -29 -15 -41 -17 -50 -8 -15 15 -14 27 4 27 20 0 127 71 119 79 -3 3
-29 6 -57 6 -41 0 -52 4 -55 18 -3 15 6 17 87 17 50 0 91 -3 91 -6 0 -8 -42
-67 -52 -75 -5 -3 4 -11 18 -18 22 -10 29 -9 35 1 5 7 4 15 -2 17 -6 2 0 14
12 27 12 13 17 24 11 24 -7 0 -12 6 -12 14 0 24 -18 29 -115 28 -72 0 -95 3
-99 14 -3 8 -11 14 -17 14 -8 0 -7 -6 3 -17 13 -16 13 -23 2 -50 -7 -17 -18
-34 -24 -38 -5 -3 -10 -13 -10 -20 0 -20 28 -7 35 16 6 17 9 18 40 5 18 -8 36
-12 39 -8 3 3 6 0 6 -7 0 -8 -7 -10 -19 -6 -13 4 -26 -4 -45 -27 -14 -18 -31
-39 -38 -47 -9 -11 -6 -13 20 -9 55 8 37 -20 -24 -38 -47 -13 -58 -14 -65 -3
-12 19 -11 29 2 29 13 0 38 29 39 44 0 4 -9 6 -19 3 -28 -7 -35 20 -12 50 22
27 46 91 38 100 -8 8 -37 -53 -38 -79 0 -22 -1 -22 -9 -3 l-9 20 -1 -20 c-2
-11 -2 -24 -1 -28 1 -5 -4 -5 -10 -1 -9 5 -10 2 -6 -9 4 -11 2 -14 -9 -10 -10
4 -14 -3 -14 -25 l0 -31 -55 3 -55 2 0 -48 0 -48 65 0 c58 0 65 -2 65 -20 0
-19 -7 -20 -160 -20 -153 0 -160 1 -160 20 0 15 7 20 25 20 25 0 25 1 25 80 0
72 2 80 19 80 18 0 19 -7 18 -78 l-2 -77 33 -3 32 -3 0 108 0 109 -70 -4 c-70
-4 -70 -4 -70 22 0 14 -5 26 -11 26 -7 0 -10 -12 -7 -30 3 -17 1 -30 -4 -30
-4 0 -8 4 -8 9 0 5 -27 8 -60 8 -33 -1 -60 1 -60 6 0 4 19 8 43 8 23 1 34 3
24 6 -12 3 -15 11 -11 28 3 14 9 57 12 97 5 55 11 73 22 73 17 0 43 72 34 95
-4 12 -6 13 -14 0 -8 -12 -10 -12 -16 3 -3 9 -4 24 0 32 3 8 1 15 -4 15 -15 0
-12 33 6 58 14 21 14 22 -5 22 -16 0 -21 6 -21 25 0 14 -4 25 -9 25 -5 0 -11
9 -14 21 -3 12 -9 19 -14 16 -4 -3 -9 5 -9 17 -1 13 -18 44 -38 70 -20 26 -36
52 -36 57 0 5 -7 9 -15 9 -8 0 -15 5 -15 10 0 21 -55 97 -67 93 -17 -6 -16
-23 1 -23 19 0 26 -34 15 -68 l-9 -27 4 30 c6 38 -5 58 -26 50 -26 -10 -33 16
-9 34 28 22 19 55 -13 45 -20 -6 -20 -5 -2 8 16 13 17 16 3 21 -19 7 -31 -20
-21 -49 5 -18 5 -18 -6 -1 -8 13 -9 26 -1 48 5 16 6 29 2 29 -5 0 -11 -10 -14
-22 -4 -12 -9 -20 -12 -16 -3 3 -1 17 4 31 8 21 5 31 -25 65 -33 39 -43 62
-26 62 8 0 54 -49 151 -160 23 -25 31 -30 31 -17 0 23 8 21 32 -5 l20 -23 -6
25 c-5 23 -4 23 8 7 8 -10 20 -15 30 -11 13 5 16 0 16 -25 0 -17 4 -31 10 -31
5 0 13 -18 16 -40 6 -35 10 -40 33 -40 26 0 51 16 51 32 0 4 -7 8 -15 8 -8 0
-15 9 -15 19 0 23 -23 34 -39 18 -8 -8 -11 -8 -11 0 0 7 5 15 10 18 6 4 7 11
4 17 -4 6 -10 5 -15 -3 -6 -10 -9 -4 -9 19 0 17 -4 32 -10 32 -5 0 -10 8 -10
18 0 27 -137 176 -200 217 -19 12 -41 30 -49 39 -7 9 -20 16 -27 16 -8 0 -11
6 -8 15 4 10 0 15 -14 15 -12 0 -23 4 -26 9 -3 5 -15 11 -27 14 -17 5 -20 2
-16 -13 3 -13 -2 -21 -16 -26 -19 -6 -19 -8 -4 -19 9 -7 17 -15 17 -19 0 -10
62 -62 70 -59 8 2 10 -26 4 -46 -3 -9 -10 -6 -24 12 -11 14 -20 27 -20 30 0 3
-15 20 -33 39 -19 18 -36 40 -39 48 -3 8 -8 12 -12 8 -9 -8 10 -40 51 -86 18
-20 35 -44 39 -54 3 -10 9 -18 13 -18 9 0 102 -185 116 -230 1 -3 7 -23 13
-45 7 -22 15 -92 18 -155 5 -105 3 -122 -20 -195 -25 -76 -28 -63 -7 35 15 69
13 180 -6 261 -12 57 -18 69 -25 54 -6 -15 -6 -12 -3 10 6 30 -5 60 -58 175
-11 25 -24 47 -27 50 -4 3 -13 16 -19 28 -15 29 -44 64 -94 116 -21 21 -42 46
-47 55 -20 34 -9 -12 29 -121 28 -78 43 -143 50 -208 5 -53 19 -124 30 -158
12 -34 28 -110 37 -169 20 -137 21 -144 29 -165 4 -10 3 -18 -3 -18 -5 0 -13
17 -16 38 -10 59 -47 225 -53 242 -3 8 -7 22 -9 30 -9 47 -22 83 -23 65 -1
-11 -8 -31 -17 -43 -8 -12 -21 -34 -29 -48 -24 -47 -125 -144 -125 -120 0 2
27 31 60 65 45 46 60 70 60 91 0 15 6 30 14 33 29 11 26 157 -3 157 -5 0 -11
21 -14 47 -3 26 -10 49 -16 51 -6 2 -9 7 -6 11 2 5 -5 27 -16 50 -11 24 -18
48 -16 54 6 18 45 -50 62 -108 20 -64 35 -89 35 -57 0 12 -4 22 -10 22 -5 0
-10 11 -10 25 0 27 -44 155 -57 164 -5 3 -15 20 -23 36 l-15 30 -3 -38 c-2
-20 -8 -35 -13 -32 -5 4 -7 11 -3 16 7 11 -14 79 -25 79 -4 0 -14 -26 -21 -57
-7 -32 -18 -69 -25 -83 -9 -17 -12 -65 -11 -147 0 -69 -3 -119 -8 -116 -5 4
-6 -6 -2 -21 4 -15 3 -25 -1 -23 -4 3 -16 -21 -27 -54 -10 -32 -22 -59 -27
-59 -12 0 -12 33 0 45 22 23 51 155 51 230 l0 78 -28 -39 c-15 -21 -33 -51
-41 -66 -8 -16 -16 -26 -18 -24 -7 6 47 113 69 136 20 21 21 27 10 80 -7 31
-12 68 -12 83 0 14 -4 29 -10 32 -5 3 -9 14 -9 23 1 15 2 15 6 0 2 -10 9 -18
14 -18 5 0 9 -7 9 -15 0 -25 20 -17 31 12 8 21 7 30 -4 38 -7 5 -16 18 -20 27
-3 10 -17 20 -29 23 -13 3 -31 20 -41 37 -12 21 -23 29 -35 26 -10 -3 -27 1
-38 10 -18 14 -18 14 9 10 18 -4 27 -1 27 8 0 8 7 14 16 14 10 0 14 6 10 15
-3 8 0 15 7 15 8 0 8 3 -2 9 -7 5 -32 7 -55 5 -30 -3 -36 -2 -21 5 19 8 19 9
2 16 -11 5 -31 19 -45 32 -15 13 -34 31 -43 39 -9 8 -21 14 -27 14 -7 0 -12 7
-12 16 0 17 -18 38 -40 47 -9 3 -10 6 -3 6 7 1 10 8 7 16 -4 10 0 15 11 15 12
0 15 5 11 16 -5 13 -2 15 13 11 14 -3 21 2 25 17 5 18 8 19 16 6 6 -10 10 -11
10 -2 0 8 18 12 53 13 93 2 138 28 82 49 -14 5 -24 14 -21 19 3 5 -1 14 -9 21
-12 10 -16 9 -21 -3 -8 -22 -31 -10 -38 19 -5 19 -13 24 -39 25 -17 0 -26 3
-19 6 10 4 7 10 -10 21 -13 9 -27 16 -32 14 -4 -1 -14 2 -20 7 -7 6 -29 10
-49 9 -20 -1 -43 4 -51 11 -8 7 -33 12 -56 13 -28 0 -38 3 -29 9 22 13 -11 11
-35 -2z m-446 -430 c0 -17 -4 -28 -10 -24 -5 3 -10 17 -10 31 0 13 5 24 10 24
6 0 10 -14 10 -31z m850 -89 c0 -5 -9 -10 -20 -10 -11 0 -20 5 -20 10 0 6 9
10 20 10 11 0 20 -4 20 -10z m-4 -194 c-4 -19 -10 -37 -14 -40 -5 -3 -3 15 2
39 12 52 21 52 12 1z m35 -92 c-25 -100 -71 -188 -88 -170 -4 4 -3 10 2 14 17
12 55 89 55 110 0 12 4 23 9 26 4 3 12 29 17 58 5 36 9 45 11 27 2 -14 -1 -43
-6 -65z m401 -148 c7 4 8 2 4 -5 -9 -13 -26 -5 -25 12 0 9 2 8 6 -1 2 -6 10
-9 15 -6z m-55 -33 c-3 -10 -5 -4 -5 12 0 17 2 24 5 18 2 -7 2 -21 0 -30z
m340 31 c-3 -3 -12 -4 -19 -1 -8 3 -5 6 6 6 11 1 17 -2 13 -5z m-257 -34 c0
-5 -4 -10 -10 -10 -5 0 -10 5 -10 10 0 6 5 10 10 10 6 0 10 -4 10 -10z m-353
-32 c-3 -8 -6 -5 -6 6 -1 11 2 17 5 13 3 -3 4 -12 1 -19z m171 -13 c-3 -3 -9
2 -12 12 -6 14 -5 15 5 6 7 -7 10 -15 7 -18z m-357 -8 c-10 -9 -11 -8 -5 6 3
10 9 15 12 12 3 -3 0 -11 -7 -18z m470 0 c-10 -9 -11 -8 -5 6 3 10 9 15 12 12
3 -3 0 -11 -7 -18z m-1831 -12 c0 -8 -2 -15 -4 -15 -2 0 -6 7 -10 15 -3 8 -1
15 4 15 6 0 10 -7 10 -15z m1481 -58 c-10 -9 -11 -8 -5 6 3 10 9 15 12 12 3
-3 0 -11 -7 -18z m286 1 c-3 -8 -6 -5 -6 6 -1 11 2 17 5 13 3 -3 4 -12 1 -19z
m66 2 c3 -11 1 -20 -4 -20 -5 0 -9 9 -9 20 0 11 2 20 4 20 2 0 6 -9 9 -20z
m117 1 c0 -6 -4 -13 -10 -16 -5 -3 -10 1 -10 9 0 9 5 16 10 16 6 0 10 -4 10
-9z m-273 -23 c-3 -8 -6 -5 -6 6 -1 11 2 17 5 13 3 -3 4 -12 1 -19z m270 -30
c-3 -8 -6 -5 -6 6 -1 11 2 17 5 13 3 -3 4 -12 1 -19z m-355 -40 c-8 -8 -9 -4
-5 13 4 13 8 18 11 10 2 -7 -1 -18 -6 -23z m128 -2 c0 -3 -4 -8 -10 -11 -5 -3
-10 -1 -10 4 0 6 5 11 10 11 6 0 10 -2 10 -4z m7 -58 c-3 -8 -6 -5 -6 6 -1 11
2 17 5 13 3 -3 4 -12 1 -19z m429 -46 c-12 -11 -16 6 -9 39 l8 34 3 -33 c2
-19 1 -36 -2 -40z m-349 28 c-13 -21 -27 -26 -27 -10 0 6 5 10 10 10 6 0 10 7
10 16 0 8 4 12 10 9 6 -4 5 -13 -3 -25z m271 -26 c-3 -14 -5 -12 -10 9 -3 19
-2 25 4 19 6 -6 8 -18 6 -28z m-201 4 c-3 -8 -6 -5 -6 6 -1 11 2 17 5 13 3 -3
4 -12 1 -19z m30 -15 c-3 -10 -5 -4 -5 12 0 17 2 24 5 18 2 -7 2 -21 0 -30z
m-206 4 c-10 -9 -11 -8 -5 6 3 10 9 15 12 12 3 -3 0 -11 -7 -18z m-1924 -22
c42 -40 33 -48 -12 -9 -16 14 -37 23 -47 21 -20 -6 -25 9 -5 16 22 10 28 7 64
-28z m2280 -12 c-3 -10 -5 -2 -5 17 0 19 2 27 5 18 2 -10 2 -26 0 -35z m-232
17 c3 -5 1 -10 -4 -10 -6 0 -11 5 -11 10 0 6 2 10 4 10 3 0 8 -4 11 -10z m185
-16 c0 -14 -4 -23 -9 -20 -5 3 -7 15 -4 26 7 28 13 25 13 -6z m208 8 c6 -18
-15 -14 -22 4 -4 10 -1 14 6 12 6 -2 14 -10 16 -16z m-309 -8 c6 4 11 2 11 -3
0 -6 -6 -11 -14 -11 -8 0 -17 -6 -19 -12 -3 -7 -6 1 -6 17 0 21 2 26 8 16 5
-7 14 -10 20 -7z m186 -4 c3 -5 1 -10 -4 -10 -6 0 -11 5 -11 10 0 6 2 10 4 10
3 0 8 -4 11 -10z m65 -20 c0 -5 -2 -10 -4 -10 -3 0 -8 5 -11 10 -3 6 -1 10 4
10 6 0 11 -4 11 -10z m-550 -70 c-8 -5 -22 -9 -30 -9 -10 0 -8 3 5 9 27 12 43
12 25 0z m-50 -30 c-8 -5 -19 -10 -25 -10 -5 0 -3 5 5 10 8 5 20 10 25 10 6 0
3 -5 -5 -10z m507 -12 c-3 -8 -6 -5 -6 6 -1 11 2 17 5 13 3 -3 4 -12 1 -19z
m-2419 5 c-3 -14 22 -64 48 -99 15 -19 24 -37 21 -40 -3 -3 -16 11 -30 31 -14
20 -27 33 -29 28 -3 -4 -3 -2 -1 6 2 8 -6 23 -17 33 -18 17 -25 16 -21 -5 1
-5 -3 -6 -9 -2 -10 6 -7 17 13 43 10 13 28 17 25 5z m316 -19 c6 -15 4 -15
-11 -3 -10 7 -20 15 -22 16 -2 2 3 3 11 3 9 0 19 -7 22 -16z m-336 -54 c-7
-10 -14 -17 -17 -15 -4 4 18 35 25 35 2 0 -1 -9 -8 -20z m2279 -77 c-3 -10 -5
-4 -5 12 0 17 2 24 5 18 2 -7 2 -21 0 -30z m-2312 -52 c-6 -29 -9 -32 -14 -17
-4 11 -3 37 3 60 9 32 12 36 14 17 2 -13 1 -40 -3 -60z m175 -21 c8 -19 15
-39 15 -45 1 -18 26 -56 33 -51 4 2 8 -3 9 -12 1 -9 4 -28 8 -42 6 -22 5 -21
-10 5 -40 71 -49 90 -47 99 2 4 -11 29 -28 55 -16 26 -30 51 -30 54 0 15 37
-31 50 -63z m2196 28 c-18 -26 -22 -17 -5 14 6 11 13 17 16 15 3 -3 -2 -16
-11 -29z m-49 -15 c-3 -10 -5 -4 -5 12 0 17 2 24 5 18 2 -7 2 -21 0 -30z
m-2077 7 c0 -5 -2 -10 -4 -10 -3 0 -8 5 -11 10 -3 6 -1 10 4 10 6 0 11 -4 11
-10z m-243 -72 c-3 -8 -6 -5 -6 6 -1 11 2 17 5 13 3 -3 4 -12 1 -19z m2325
-10 c-8 -8 -9 -4 -5 13 4 13 8 18 11 10 2 -7 -1 -18 -6 -23z m318 -53 c0 -8
-7 -15 -15 -15 -13 0 -14 3 -3 15 16 18 18 18 18 0z m-2130 -20 c0 -12 14 -15
65 -15 59 0 65 -2 65 -21 0 -19 -5 -20 -62 -18 -41 2 -63 -1 -66 -9 -2 -8 14
-12 52 -12 43 0 56 -3 56 -15 0 -12 -13 -15 -55 -15 -30 0 -55 -4 -55 -10 0
-6 30 -10 70 -10 56 0 70 -3 70 -15 0 -12 -13 -15 -60 -15 -61 0 -72 -7 -44
-31 14 -11 21 -10 46 4 45 26 58 9 18 -24 l-34 -29 48 -21 c45 -19 47 -22 32
-37 -15 -15 -19 -15 -52 3 -39 21 -104 91 -104 112 0 7 -4 13 -10 13 -5 0 -10
-4 -10 -9 0 -5 -9 -13 -20 -16 -27 -9 -30 -79 -2 -71 55 16 70 17 75 3 4 -10
-7 -19 -36 -30 -72 -27 -94 -30 -100 -13 -3 8 -2 18 3 21 6 4 10 17 10 30 0
22 -2 23 -30 12 -23 -9 -33 -8 -42 1 -15 15 -4 26 44 41 20 7 42 19 48 27 11
12 5 14 -39 14 -39 0 -51 4 -51 15 0 12 14 15 70 15 40 0 70 4 70 10 0 6 -25
10 -55 10 -42 0 -55 3 -55 15 0 12 13 15 55 15 30 0 55 5 55 10 0 6 -26 10
-59 10 -50 0 -59 3 -64 20 -5 18 0 20 59 20 50 0 64 3 64 15 0 8 7 15 15 15 8
0 15 -7 15 -15z m1380 -15 l0 -30 63 0 c50 0 64 -3 64 -15 0 -12 -14 -15 -64
-15 -64 0 -64 0 -61 -27 3 -28 4 -28 73 -28 58 -1 70 -4 73 -18 4 -20 2 -20
-98 -21 l-74 -1 -27 -40 -28 -40 35 -3 c19 -2 50 -2 70 0 l36 3 -21 27 c-26
32 -26 38 -2 38 11 0 28 -13 38 -30 9 -16 20 -30 24 -30 3 0 11 -12 18 -27 10
-21 9 -28 -1 -34 -19 -12 -25 -11 -32 7 -5 13 -15 15 -49 10 -23 -3 -72 -9
-109 -12 -59 -6 -69 -4 -75 12 -4 12 0 22 15 32 12 8 22 20 22 27 0 6 9 20 20
30 30 27 25 34 -22 31 -24 -2 -48 -1 -55 1 -17 7 -17 33 0 34 6 0 39 1 72 2
57 2 60 3 63 30 3 27 3 27 -57 27 -48 0 -61 3 -61 15 0 12 13 15 59 15 l59 0
-2 30 c-2 23 2 30 16 30 13 0 18 -8 18 -30z m690 -10 l0 -40 70 0 c56 0 70 -3
70 -15 0 -11 -12 -15 -50 -15 -27 0 -50 -3 -50 -6 0 -11 44 -84 50 -84 17 0
18 15 3 32 -15 17 -14 18 20 18 35 0 37 -2 37 -32 0 -17 3 -28 7 -24 4 3 6 28
4 55 -2 34 2 50 12 54 25 9 39 -8 30 -39 l-7 -29 -7 35 -6 35 -2 -43 c-1 -29
3 -41 10 -37 6 4 5 -2 -3 -14 -11 -17 -11 -25 0 -42 10 -15 10 -25 3 -32 -7
-7 -13 -2 -20 16 -5 14 -20 28 -32 32 -16 6 -18 9 -8 16 7 4 11 11 8 14 -4 3
-12 -1 -18 -9 -11 -13 -8 -20 14 -40 25 -23 25 -25 6 -31 -11 -3 -29 -1 -41 5
-13 7 -20 7 -20 0 0 -5 -18 -10 -40 -10 -38 0 -40 -2 -40 -30 0 -22 -5 -30
-18 -30 -15 0 -18 6 -14 30 4 30 4 30 -42 30 -29 0 -46 4 -46 12 0 8 -6 6 -16
-4 -12 -12 -21 -14 -33 -6 -14 8 -9 17 35 62 28 29 53 62 56 74 6 21 3 22 -46
22 -40 0 -53 4 -53 15 0 12 15 15 75 15 l75 0 -6 40 c-4 35 -2 40 14 40 16 0
19 -7 19 -40z m-1277 15 c1 -5 -26 -14 -60 -18 -35 -5 -63 -13 -63 -18 0 -5
32 -9 70 -9 53 0 70 -3 70 -14 0 -11 -16 -14 -76 -12 -41 1 -77 -1 -80 -6 -3
-4 37 -8 89 -8 86 0 95 -2 91 -17 -4 -16 -16 -18 -99 -15 -63 2 -95 0 -95 -7
0 -7 30 -11 80 -11 l80 0 0 -82 0 -83 -105 0 -105 0 0 59 0 60 -28 -28 c-26
-24 -30 -25 -42 -10 -12 14 -12 17 3 26 21 11 67 60 67 70 0 4 -16 5 -35 3
-30 -4 -35 -2 -35 15 0 17 7 20 50 20 28 0 50 4 50 10 0 6 -17 8 -40 5 -31 -4
-40 -2 -40 10 0 11 12 15 50 15 28 0 50 5 50 10 0 6 -22 10 -49 10 -34 0 -51
5 -54 15 -5 12 12 15 101 18 142 4 152 4 155 -8z m237 -35 l0 -50 65 0 c59 0
65 -2 65 -21 0 -19 -5 -20 -65 -17 l-65 3 0 -67 0 -67 78 -3 c60 -2 77 -6 77
-18 0 -13 -26 -15 -162 -18 -158 -2 -163 -2 -163 18 0 18 6 20 65 20 l65 0 0
135 c0 128 1 135 20 135 17 0 20 -7 20 -50z m-540 20 c0 -18 -7 -20 -69 -20
-52 0 -70 -4 -75 -15 -4 -12 6 -15 63 -15 61 0 69 -2 66 -17 -2 -10 -4 -63 -4
-118 l-1 -100 -140 0 -140 0 0 118 0 117 55 0 c42 0 55 3 55 15 0 12 -14 15
-65 15 -58 0 -65 2 -65 19 0 19 8 20 160 20 152 0 160 -1 160 -19z m1635 10
c-3 -5 -14 -10 -23 -10 -15 0 -15 2 -2 10 20 13 33 13 25 0z m-2372 -80 c3
-11 1 -18 -4 -14 -5 3 -9 12 -9 20 0 20 7 17 13 -6z m2615 -28 c2 -18 -1 -32
-7 -32 -6 0 -11 6 -11 13 0 6 -3 23 -7 36 -4 18 -2 23 8 19 8 -2 15 -19 17
-36z m-2589 -57 l0 -20 -9 20 c-5 11 -9 29 -9 40 l0 20 9 -20 c5 -11 9 -29 9
-40z m2096 31 c0 -17 -10 -19 -160 -19 -158 -1 -160 -1 -163 21 l-3 23 163 -3
c152 -3 163 -4 163 -22z m-2548 -8 c-3 -8 -6 -5 -6 6 -1 11 2 17 5 13 3 -3 4
-12 1 -19z m3490 6 c-3 -3 -12 -4 -19 -1 -8 3 -5 6 6 6 11 1 17 -2 13 -5z
m-3430 -36 c-3 -8 -6 -5 -6 6 -1 11 2 17 5 13 3 -3 4 -12 1 -19z m2983 -18 c0
-22 -4 -40 -10 -40 -5 0 -10 18 -10 40 0 22 5 40 10 40 6 0 10 -18 10 -40z
m195 -12 c-3 -38 -17 -45 -48 -25 -13 8 -35 13 -50 12 -15 -2 -25 1 -21 6 3 5
23 9 45 9 23 0 39 5 39 12 0 6 3 8 6 5 4 -4 3 -13 -2 -20 -5 -7 0 -3 10 10 11
13 21 23 22 23 1 0 1 -14 -1 -32z m-1311 3 c4 -5 -3 -7 -14 -4 -23 6 -26 13
-6 13 8 0 17 -4 20 -9z m-1807 -38 c-3 -10 -5 -4 -5 12 0 17 2 24 5 18 2 -7 2
-21 0 -30z m340 15 c-3 -8 -6 -5 -6 6 -1 11 2 17 5 13 3 -3 4 -12 1 -19z
m2926 -12 c4 -10 -11 -19 -54 -30 -60 -17 -79 -15 -79 8 0 8 21 17 53 23 74
15 74 15 80 -1z m37 -6 c0 -5 -4 -10 -10 -10 -5 0 -10 5 -10 10 0 6 5 10 10
10 6 0 10 -4 10 -10z m-3343 -32 c-3 -8 -6 -5 -6 6 -1 11 2 17 5 13 3 -3 4
-12 1 -19z m50 -30 c-3 -8 -6 -5 -6 6 -1 11 2 17 5 13 3 -3 4 -12 1 -19z
m2490 0 c-3 -8 -6 -5 -6 6 -1 11 2 17 5 13 3 -3 4 -12 1 -19z m60 -4 c-3 -3
-12 -4 -19 -1 -8 3 -5 6 6 6 11 1 17 -2 13 -5z m-84 -111 c-7 -2 -19 -2 -25 0
-7 3 -2 5 12 5 14 0 19 -2 13 -5z m-1923 -43 c9 -17 21 -20 70 -20 l60 0 0
-40 c0 -29 -4 -40 -15 -40 -9 0 -15 9 -15 24 0 24 0 24 -112 22 -110 -1 -113
-2 -112 -23 0 -16 -5 -23 -18 -23 -14 0 -18 8 -18 40 l0 40 64 0 c59 0 64 2
59 20 -4 14 0 20 10 20 9 0 21 -9 27 -20z m680 -35 l0 -55 65 0 c58 0 65 -2
65 -20 0 -18 -7 -20 -65 -20 l-65 0 0 -66 0 -65 78 2 c70 2 77 0 77 -17 0 -18
-9 -19 -157 -19 -120 0 -158 3 -158 13 0 6 -1 15 -2 19 -2 3 27 5 65 4 l67 -2
0 140 c0 119 2 141 15 141 12 0 15 -13 15 -55z m360 5 l0 -50 70 0 c63 0 70
-2 70 -20 0 -18 -7 -20 -65 -20 l-65 0 20 -40 c28 -55 56 -86 91 -100 33 -14
36 -22 15 -39 -10 -9 -20 -9 -33 -3 -26 15 -77 71 -102 112 -14 24 -21 29 -21
17 0 -19 -110 -137 -127 -137 -5 0 -18 6 -28 14 -18 13 -17 14 16 31 19 10 42
25 53 34 19 17 56 83 56 101 0 6 -25 10 -59 10 -50 0 -59 3 -64 20 -5 19 0 20
63 20 68 0 68 0 75 30 4 16 4 39 0 50 -5 16 -2 20 14 20 18 0 21 -6 21 -50z
m395 28 c7 -17 20 -24 48 -26 29 -3 37 -7 37 -23 0 -13 -7 -19 -24 -19 -20 0
-26 -7 -35 -47 -9 -36 -9 -53 0 -75 8 -20 9 -32 1 -40 -7 -7 -12 -4 -17 11 -8
28 -19 26 -44 -5 -11 -14 -25 -23 -31 -19 -5 3 -10 1 -10 -4 0 -7 24 -11 60
-11 l60 0 0 90 c0 81 2 90 18 90 17 0 19 -10 19 -114 1 -104 -1 -115 -18 -119
-12 -3 -19 0 -19 9 0 11 -17 14 -75 14 l-75 0 0 105 0 104 30 -2 c19 -1 34
-10 41 -24 14 -26 29 -30 29 -9 0 8 3 21 6 30 5 14 -3 16 -55 16 l-60 0 -3
-117 -3 -118 -27 -3 c-23 -3 -28 1 -28 17 0 12 6 21 13 21 8 0 14 15 15 40 2
34 0 40 -18 40 -14 0 -20 -7 -20 -21 0 -11 -5 -40 -11 -65 -10 -38 -14 -43
-25 -32 -10 10 -11 29 -4 83 5 39 9 107 10 153 l0 82 50 0 c43 0 50 -3 50 -20
0 -17 7 -20 48 -20 26 0 42 4 36 8 -6 4 -13 15 -17 25 -10 27 36 22 48 -5z
m543 -25 l-3 -43 42 0 43 0 0 45 c0 40 2 45 23 45 20 0 22 -4 19 -45 l-4 -45
68 -1 c38 -1 61 -3 52 -6 -10 -2 -18 -11 -18 -19 0 -11 -22 -14 -113 -14 -107
0 -113 -1 -113 -21 0 -19 6 -20 84 -18 l84 2 1 -82 c2 -71 0 -81 -15 -81 -15
0 -18 10 -18 60 l0 60 -69 0 c-64 0 -70 -2 -76 -22 -14 -47 -40 -97 -51 -98
-19 0 -25 32 -10 49 22 25 38 107 36 191 -2 92 -4 86 21 86 18 0 20 -5 17 -43z
m778 22 l-16 -24 65 -3 c36 -2 65 -6 65 -10 0 -5 0 -66 0 -138 0 -105 -3 -130
-14 -130 -8 0 -16 4 -18 9 -5 14 -184 16 -180 2 1 -6 -8 -11 -20 -11 -23 0
-23 2 -23 140 l0 140 47 0 c42 0 48 3 54 25 4 18 13 25 31 25 25 0 25 -1 9
-25z m-2469 0 c9 -3 8 -15 -3 -49 -12 -33 -13 -50 -5 -65 12 -22 14 -70 5 -95
-8 -21 -54 -21 -54 -1 0 8 7 15 15 15 21 0 19 48 -2 72 -14 16 -15 24 -5 52
16 43 15 56 -3 56 -13 0 -15 -23 -15 -144 0 -135 -1 -144 -20 -149 -19 -5 -20
0 -20 158 l0 163 48 -5 c26 -3 52 -6 59 -8z m1625 6 c8 11 9 11 6 1 -4 -16
-22 -18 -24 -2 -2 7 -1 6 3 -1 4 -8 8 -7 15 2z m-1432 -26 c0 -12 -16 -15 -85
-15 -69 0 -85 3 -85 15 0 12 16 15 85 15 69 0 85 -3 85 -15z m2087 -17 c-3 -8
-6 -5 -6 6 -1 11 2 17 5 13 3 -3 4 -12 1 -19z m-657 -14 c0 -8 -4 -12 -10 -9
-5 3 -10 10 -10 16 0 5 5 9 10 9 6 0 10 -7 10 -16z m123 -1 c-7 -2 -21 -2 -30
0 -10 3 -4 5 12 5 17 0 24 -2 18 -5z m-2017 -69 l-7 -66 66 4 c54 2 65 0 63
-12 -3 -11 -17 -14 -63 -13 -56 2 -59 1 -40 -13 11 -8 31 -18 45 -21 38 -9 62
-33 49 -49 -8 -10 -17 -8 -45 11 -19 13 -48 26 -63 30 -23 5 -28 10 -24 28 4
21 4 21 -10 -2 -17 -28 -93 -81 -117 -81 -14 0 -30 18 -30 34 0 2 19 9 43 15
85 26 90 51 10 48 -46 -2 -58 1 -58 13 0 11 9 14 38 12 43 -4 46 3 12 29 -13
11 -22 26 -19 34 5 11 12 10 40 -7 29 -17 32 -23 23 -40 -9 -17 -8 -19 18 -16
26 3 28 6 31 58 3 50 13 69 36 70 5 0 6 -29 2 -66z m-71 44 c27 -12 33 -35 11
-44 -14 -6 -68 41 -58 50 8 9 18 7 47 -6z m1964 -60 c-1 -68 -6 -61 -11 15 -2
26 0 47 4 47 5 0 7 -28 7 -62z m-1419 32 c0 -17 -7 -20 -40 -20 l-39 0 -3 -87
-3 -88 -37 -3 c-33 -3 -38 0 -38 17 0 14 6 21 20 21 18 0 20 7 20 70 l0 70
-40 0 c-33 0 -40 3 -40 20 0 19 7 20 100 20 93 0 100 -1 100 -20z m1390 10
c13 -9 13 -10 0 -9 -8 1 -26 5 -40 9 l-25 8 25 1 c14 0 32 -4 40 -9z m530 -10
c0 -5 -5 -10 -11 -10 -5 0 -7 5 -4 10 3 6 8 10 11 10 2 0 4 -4 4 -10z m175 0
c-3 -5 -1 -10 5 -10 8 0 8 -6 0 -20 -6 -11 -7 -20 -3 -20 4 0 8 -25 8 -55 0
-37 -4 -55 -12 -55 -7 0 -13 5 -13 10 0 6 -26 10 -59 10 -33 0 -63 5 -66 10
-4 7 3 8 21 4 21 -5 25 -4 19 6 -6 10 -1 12 23 7 22 -5 32 -3 32 6 0 7 10 21
21 31 18 15 19 20 8 27 -10 6 -10 9 -1 9 6 0 12 7 12 16 0 8 -4 12 -10 9 -6
-3 -7 1 -4 9 3 9 10 16 16 16 5 0 6 -4 3 -10z m-699 -30 c0 -19 -7 -20 -168
-20 -153 0 -168 2 -168 18 0 15 16 17 168 20 162 2 168 2 168 -18z m522 3
c-10 -2 -26 -2 -35 0 -10 3 -2 5 17 5 19 0 27 -2 18 -5z m-2056 -43 c-4 -29
-42 -100 -53 -100 -19 0 -18 23 3 75 15 37 28 54 38 52 10 -1 14 -11 12 -27z
m113 8 c20 -69 23 -93 12 -100 -7 -4 -19 13 -34 49 -18 44 -20 59 -11 65 20
12 25 10 33 -14z m1859 -60 c60 -2 52 -18 -8 -18 -31 0 -56 4 -56 10 0 6 -18
7 -45 3 -31 -4 -45 -2 -45 6 0 6 8 11 18 11 9 0 23 10 30 21 l14 21 27 -26
c19 -18 40 -27 65 -28z m-1804 7 c0 -5 -5 -3 -10 5 -5 8 -10 20 -10 25 0 6 5
3 10 -5 5 -8 10 -19 10 -25z m1305 -26 c-10 -15 -25 -10 -19 6 4 8 10 12 15 9
5 -3 7 -10 4 -15z m765 -44 c0 -8 0 -17 0 -20 0 -3 -3 -6 -7 -7 -3 -2 -7 7 -8
20 -1 12 2 22 7 22 4 0 8 -7 8 -15z"/>
<path d="M2753 755 l-32 -55 35 0 34 0 0 55 c0 30 -1 55 -3 55 -1 0 -17 -25
-34 -55z"/>
<path d="M2820 752 c0 -51 1 -52 30 -52 17 0 30 2 30 5 0 2 -13 26 -30 52
l-30 47 0 -52z"/>
<path d="M1370 732 c0 -7 141 -4 149 4 2 2 -30 4 -72 4 -42 0 -77 -3 -77 -8z"/>
<path d="M1370 690 c0 -6 30 -10 69 -10 39 0 73 5 76 10 4 6 -22 10 -69 10
-44 0 -76 -4 -76 -10z"/>
<path d="M1370 650 c0 -6 32 -10 75 -10 43 0 75 4 75 10 0 6 -32 10 -75 10
-43 0 -75 -4 -75 -10z"/>
<path d="M971 725 c2 -64 4 -75 20 -75 15 0 18 11 21 75 3 73 2 75 -20 75 -22
0 -23 -3 -21 -75z"/>
<path d="M1040 790 c0 -5 16 -10 35 -10 19 0 35 5 35 10 0 6 -16 10 -35 10
-19 0 -35 -4 -35 -10z"/>
<path d="M1150 724 c0 -63 3 -75 16 -72 12 2 16 18 17 76 2 63 0 72 -15 72
-16 0 -18 -10 -18 -76z"/>
<path d="M1040 730 c0 -5 16 -10 35 -10 19 0 35 5 35 10 0 6 -16 10 -35 10
-19 0 -35 -4 -35 -10z"/>
<path d="M1040 665 c0 -10 11 -15 35 -15 24 0 35 5 35 15 0 10 -11 15 -35 15
-24 0 -35 -5 -35 -15z"/>
<path d="M2008 395 c9 -32 26 -32 29 0 1 18 -3 25 -17 25 -15 0 -17 -5 -12
-25z"/>
<path d="M2009 338 c-8 -32 -3 -48 13 -48 14 0 19 6 16 22 -2 17 -26 39 -29
26z"/>
<path d="M2112 274 l0 -59 19 24 c24 29 24 43 1 72 -19 22 -19 22 -20 -37z"/>
<path d="M3410 335 l0 -35 90 0 90 0 0 35 0 35 -90 0 -90 0 0 -35z m34 -6 c-7
-12 65 -8 101 5 15 6 16 5 6 -2 -11 -8 -10 -11 5 -15 10 -2 -13 -5 -53 -6 -77
-1 -108 15 -55 28 2 1 0 -4 -4 -10z"/>
<path d="M3404 244 c3 -9 6 -24 6 -35 0 -17 8 -19 90 -19 l90 0 0 35 0 35 -96
0 c-84 0 -95 -2 -90 -16z m94 -25 c41 -3 51 -1 47 10 -5 11 -3 12 10 1 23 -19
13 -23 -60 -24 -59 -1 -65 1 -65 19 0 12 3 16 8 9 4 -7 31 -13 60 -15z"/>
<path d="M120 2520 c0 -5 4 -10 9 -10 6 0 13 5 16 10 3 6 -1 10 -9 10 -9 0
-16 -4 -16 -10z"/>
<path d="M558 2464 c-4 -3 -26 -7 -50 -9 -61 -4 -62 -4 -54 -12 4 -4 26 -8 49
-8 23 -1 51 -5 61 -10 13 -6 17 -5 13 2 -4 6 -2 13 5 15 6 2 8 10 4 16 -8 13
-19 15 -28 6z"/>
<path d="M1024 2450 c0 -11 4 -20 8 -20 4 0 8 5 8 10 0 6 27 10 60 10 33 0 60
4 60 10 0 6 -29 10 -68 10 -61 0 -68 -2 -68 -20z"/>
<path d="M1200 2422 c0 -7 -11 -12 -25 -12 -14 0 -25 -4 -25 -10 0 -14 57 -13
66 1 3 6 1 16 -5 22 -8 8 -11 8 -11 -1z"/>
<path d="M1090 2400 c0 -5 7 -10 15 -10 8 0 15 5 15 10 0 6 -7 10 -15 10 -8 0
-15 -4 -15 -10z"/>
<path d="M510 2370 c0 -5 9 -10 21 -10 11 0 17 5 14 10 -3 6 -13 10 -21 10 -8
0 -14 -4 -14 -10z"/>
<path d="M1025 2370 c3 -5 8 -10 11 -10 2 0 4 5 4 10 0 6 -5 10 -11 10 -5 0
-7 -4 -4 -10z"/>
<path d="M1088 2353 c6 -2 18 -2 25 0 6 3 1 5 -13 5 -14 0 -19 -2 -12 -5z"/>
<path d="M2136 2230 c-2 -5 -1 -22 3 -37 2 -5 6 0 9 9 6 15 13 12 50 -22 23
-22 42 -47 42 -55 0 -8 9 -15 19 -15 11 0 23 -5 26 -10 5 -8 12 -7 22 1 12 11
13 9 8 -13 -4 -16 -2 -29 6 -34 9 -5 10 -2 6 9 -9 23 5 21 26 -3 18 -21 37
-27 37 -11 0 5 -11 18 -25 29 -14 11 -25 25 -25 30 0 6 -8 13 -18 16 -10 4
-28 20 -40 36 -13 17 -31 30 -41 30 -9 0 -28 11 -40 24 -20 22 -58 31 -65 16z"/>
<path d="M2100 2200 c0 -5 5 -10 10 -10 6 0 10 5 10 10 0 6 -4 10 -10 10 -5 0
-10 -4 -10 -10z"/>
<path d="M2645 2190 c11 -5 31 -8 45 -8 l25 0 -25 8 c-14 4 -34 8 -45 8 l-20
1 20 -9z"/>
<path d="M2570 2180 c0 -5 7 -10 15 -10 8 0 15 -4 15 -10 0 -5 6 -7 14 -4 10
4 15 -1 15 -13 0 -10 3 -30 7 -45 4 -19 1 -36 -10 -53 -16 -25 -16 -26 29 -71
26 -25 51 -42 57 -38 6 4 8 3 5 -3 -4 -6 9 -25 28 -42 35 -31 63 -42 49 -19
-4 7 -3 8 5 4 6 -4 9 -11 6 -16 -3 -5 9 -22 26 -39 31 -31 50 -42 32 -18 -6 8
-5 21 3 37 14 25 14 25 14 -12 0 -46 14 -49 29 -7 17 50 14 72 -9 66 -16 -4
-20 0 -20 18 0 13 7 26 16 29 10 4 14 12 10 22 -4 9 -1 23 5 30 8 10 6 19 -10
35 -12 13 -21 26 -21 31 0 4 -7 8 -16 8 -9 0 -29 9 -44 20 -16 11 -48 27 -71
35 -24 9 -50 22 -59 29 -12 10 -102 46 -117 46 -2 0 -3 -4 -3 -10z m230 -280
c0 -5 -2 -10 -4 -10 -3 0 -8 5 -11 10 -3 6 -1 10 4 10 6 0 11 -4 11 -10z"/>
<path d="M2733 2175 c-18 -19 -16 -22 10 -27 18 -3 22 0 22 19 0 26 -14 29
-32 8z"/>
<path d="M120 2176 c0 -2 7 -7 16 -10 8 -3 12 -2 9 4 -6 10 -25 14 -25 6z"/>
<path d="M2151 2154 c0 -11 3 -14 6 -6 3 7 2 16 -1 19 -3 4 -6 -2 -5 -13z"/>
<path d="M2524 2138 c4 -35 17 -60 44 -85 14 -13 26 -23 28 -23 9 0 34 34 34
45 0 21 -53 71 -83 78 -23 6 -25 4 -23 -15z"/>
<path d="M2797 2147 c-3 -8 -2 -18 1 -23 11 -16 70 -37 81 -29 6 3 11 -2 11
-13 0 -15 9 -22 35 -26 19 -4 35 -12 35 -19 0 -7 4 -6 10 3 14 22 13 73 -2 68
-7 -3 -19 1 -26 9 -7 7 -28 13 -46 13 -18 0 -41 7 -52 15 -24 18 -40 19 -47 2z
m143 -63 c0 -17 -22 -14 -28 4 -2 7 3 12 12 12 9 0 16 -7 16 -16z"/>
<path d="M360 2130 c0 -5 5 -10 11 -10 5 0 7 5 4 10 -3 6 -8 10 -11 10 -2 0
-4 -4 -4 -10z"/>
<path d="M250 2111 c0 -27 121 -34 137 -8 4 7 -6 8 -29 4 -20 -3 -52 -2 -72 3
-20 4 -36 5 -36 1z"/>
<path d="M2260 2065 c0 -8 4 -15 10 -15 5 0 7 7 4 15 -4 8 -8 15 -10 15 -2 0
-4 -7 -4 -15z"/>
<path d="M358 2053 c12 -2 30 -2 40 0 9 3 -1 5 -23 4 -22 0 -30 -2 -17 -4z"/>
<path d="M2395 2030 c-3 -5 -1 -10 4 -10 6 0 11 5 11 10 0 6 -2 10 -4 10 -3 0
-8 -4 -11 -10z"/>
<path d="M380 2020 c0 -5 5 -10 11 -10 5 0 7 5 4 10 -3 6 -8 10 -11 10 -2 0
-4 -4 -4 -10z"/>
<path d="M2223 2004 c-7 -7 -13 -32 -12 -56 l1 -43 14 45 c17 53 15 75 -3 54z"/>
<path d="M4 1974 c0 -22 3 -24 26 -19 25 6 25 6 -5 -19 -30 -24 -30 -25 -10
-40 11 -8 25 -16 32 -16 6 0 18 -7 26 -15 13 -13 16 -13 27 0 10 13 8 15 -14
15 -14 0 -26 5 -26 10 0 6 -8 10 -17 10 -14 0 -14 3 5 20 26 25 35 25 27 1 -4
-14 0 -18 20 -17 14 1 25 4 25 9 0 4 0 12 0 17 0 6 -6 10 -13 10 -7 0 -30 9
-52 20 -22 11 -34 20 -27 20 7 0 12 5 12 10 0 6 -8 10 -18 10 -13 0 -18 -8
-18 -26z"/>
<path d="M320 1981 c0 -15 6 -21 21 -21 14 0 19 5 17 17 -5 26 -38 29 -38 4z"/>
<path d="M3200 1989 c0 -5 5 -7 10 -4 6 3 10 8 10 11 0 2 -4 4 -10 4 -5 0 -10
-5 -10 -11z"/>
<path d="M2960 1924 c0 -9 5 -14 12 -12 18 6 21 28 4 28 -9 0 -16 -7 -16 -16z"/>
<path d="M160 1914 c0 -8 5 -12 10 -9 6 3 10 10 10 16 0 5 -4 9 -10 9 -5 0
-10 -7 -10 -16z"/>
<path d="M4 1838 c-4 -7 -4 -10 1 -6 4 4 16 3 26 -3 11 -5 19 -7 19 -5 0 3 -9
10 -19 16 -15 7 -22 7 -27 -2z"/>
<path d="M160 1830 c0 -5 7 -10 16 -10 8 0 12 5 9 10 -3 6 -10 10 -16 10 -5 0
-9 -4 -9 -10z"/>
<path d="M9 1803 c-13 -16 -12 -17 4 -4 9 7 17 15 17 17 0 8 -8 3 -21 -13z"/>
<path d="M50 1810 c-9 -6 -10 -10 -3 -10 6 0 15 5 18 10 8 12 4 12 -15 0z"/>
<path d="M2876 1765 c4 -8 10 -12 15 -9 14 8 10 24 -6 24 -9 0 -12 -6 -9 -15z"/>
<path d="M2910 1720 c0 -5 5 -10 10 -10 6 0 10 5 10 10 0 6 -4 10 -10 10 -5 0
-10 -4 -10 -10z"/>
<path d="M2935 1699 c-4 -6 -5 -12 -2 -15 2 -3 7 2 10 11 7 17 1 20 -8 4z"/>
<path d="M3 1655 c0 -7 6 -11 14 -8 7 3 13 6 13 8 0 2 -6 5 -13 8 -8 3 -14 -1
-14 -8z"/>
<path d="M30 1629 c0 -5 5 -7 10 -4 6 3 10 8 10 11 0 2 -4 4 -10 4 -5 0 -10
-5 -10 -11z"/>
<path d="M2780 1630 c0 -5 5 -10 10 -10 6 0 10 5 10 10 0 6 -4 10 -10 10 -5 0
-10 -4 -10 -10z"/>
<path d="M2821 1619 c11 -22 29 -25 29 -5 0 7 -9 16 -20 19 -17 4 -18 2 -9
-14z"/>
<path d="M90 1616 c0 -2 7 -7 16 -10 8 -3 12 -2 9 4 -6 10 -25 14 -25 6z"/>
<path d="M352 1594 c10 -10 20 -15 24 -12 3 4 -5 12 -18 18 -22 12 -22 12 -6
-6z"/>
<path d="M2800 1594 c0 -8 5 -12 10 -9 6 4 8 11 5 16 -9 14 -15 11 -15 -7z"/>
<path d="M2850 1568 c0 -21 0 -21 -15 -2 -14 19 -14 18 -15 -3 0 -13 4 -23 9
-23 5 0 11 -9 14 -21 6 -23 28 -22 35 2 3 11 2 12 -6 0 -8 -11 -11 -11 -18 0
-4 7 -3 14 4 17 15 5 16 52 2 52 -5 0 -10 -10 -10 -22z"/>
<path d="M6 1562 c-3 -5 1 -18 9 -28 14 -18 15 -18 12 3 -4 27 -13 38 -21 25z"/>
<path d="M2976 1533 c3 -10 10 -27 14 -38 5 -11 11 -27 13 -35 4 -9 6 -7 6 7
1 12 -3 25 -9 28 -5 3 -10 17 -10 31 0 13 -4 24 -10 24 -5 0 -7 -8 -4 -17z"/>
<path d="M3010 1543 c1 -5 8 -19 16 -33 8 -14 13 -17 10 -7 -3 10 -6 25 -6 33
0 8 -4 14 -10 14 -5 0 -10 -3 -10 -7z"/>
<path d="M43 1525 c0 -8 4 -12 9 -9 5 3 6 10 3 15 -9 13 -12 11 -12 -6z"/>
<path d="M36 1488 c4 -5 12 -7 19 -4 7 2 18 0 24 -5 8 -6 8 -5 1 3 -11 14 -52
19 -44 6z"/>
<path d="M2912 1454 c-17 -18 -9 -44 13 -44 12 0 13 4 6 18 -7 13 -6 23 1 30
7 7 8 12 3 12 -6 -1 -16 -8 -23 -16z"/>
<path d="M96 1425 c4 -8 11 -15 16 -15 6 0 5 6 -2 15 -7 8 -14 15 -16 15 -2 0
-1 -7 2 -15z"/>
<path d="M196 1383 c-4 -10 1 -25 14 -37 20 -20 21 -20 14 -2 -5 13 -4 17 4
12 8 -5 10 -1 5 10 -4 11 -8 13 -11 6 -2 -7 -8 -12 -14 -12 -5 0 -6 9 -3 20 8
24 0 27 -9 3z"/>
<path d="M2973 1393 c-16 -6 -17 -23 -2 -23 6 0 17 7 25 15 16 16 4 20 -23 8z"/>
<path d="M3085 1390 c-3 -6 1 -7 9 -4 18 7 21 14 7 14 -6 0 -13 -4 -16 -10z"/>
<path d="M264 1373 c2 -10 6 -17 9 -15 4 1 12 2 18 2 6 0 4 7 -5 15 -19 20
-25 19 -22 -2z"/>
<path d="M3041 1374 c0 -11 3 -14 6 -6 3 7 2 16 -1 19 -3 4 -6 -2 -5 -13z"/>
<path d="M163 1356 c0 -18 3 -24 9 -18 7 7 7 16 0 28 -8 14 -9 13 -9 -10z"/>
<path d="M3050 1326 c0 -8 7 -16 15 -20 13 -4 14 -2 5 14 -13 23 -20 26 -20 6z"/>
<path d="M177 1323 c-3 -5 6 -9 20 -10 19 -1 22 1 12 8 -17 11 -26 11 -32 2z"/>
<path d="M27 1304 c6 -15 23 -19 23 -5 0 5 -7 11 -14 14 -10 4 -13 1 -9 -9z"/>
<path d="M170 1282 c0 -14 6 -22 16 -22 14 0 15 3 3 18 -7 9 -15 19 -16 21 -2
2 -3 -5 -3 -17z"/>
<path d="M53 1219 c-2 -23 3 -25 10 -4 4 8 3 16 -1 19 -4 3 -9 -4 -9 -15z"/>
<path d="M20 1190 c11 -21 24 -42 30 -45 6 -4 2 8 -10 27 -23 38 -26 52 -7 42
6 -4 8 -3 4 1 -4 5 -14 10 -22 11 -12 2 -10 -6 5 -36z"/>
<path d="M11 1150 c6 -16 15 -27 20 -24 5 3 2 16 -7 30 -22 32 -25 30 -13 -6z"/>
<path d="M110 1167 c0 -8 7 -20 15 -27 11 -9 15 -10 15 -1 0 7 -7 19 -15 27
-13 13 -15 13 -15 1z"/>
<path d="M3 1093 c-1 -33 0 -35 8 -15 5 13 5 30 1 38 -5 9 -8 1 -9 -23z"/>
<path d="M60 1125 c0 -5 5 -17 10 -25 5 -8 10 -10 10 -5 0 6 -5 17 -10 25 -5
8 -10 11 -10 5z"/>
<path d="M36 1112 c-2 -4 -1 -14 4 -22 7 -11 9 -9 7 8 -1 24 -3 26 -11 14z"/>
<path d="M23 1068 c0 -7 -3 -26 -7 -43 -6 -30 -6 -30 10 4 9 20 12 37 6 43 -5
5 -9 3 -9 -4z"/>
<path d="M74 1020 c6 -50 31 -116 39 -103 4 6 4 25 1 43 -5 22 -9 28 -15 18
-6 -9 -9 -3 -9 17 0 17 -5 37 -10 45 -7 11 -9 6 -6 -20z"/>
<path d="M37 1011 c-3 -14 0 -21 9 -21 16 0 18 9 5 28 -6 10 -10 9 -14 -7z"/>
<path d="M3410 981 c0 -5 5 -13 10 -16 6 -3 10 -2 10 4 0 5 -4 13 -10 16 -5 3
-10 2 -10 -4z"/>
<path d="M3200 920 c0 -5 5 -10 11 -10 5 0 7 5 4 10 -3 6 -8 10 -11 10 -2 0
-4 -4 -4 -10z"/>
<path d="M3118 903 c7 -3 16 -2 19 1 4 3 -2 6 -13 5 -11 0 -14 -3 -6 -6z"/>
<path d="M3301 886 l-1 -28 -60 4 -60 4 0 -42 0 -42 48 6 c57 6 68 12 21 12
-19 0 -41 5 -49 10 -17 11 -16 12 63 15 26 1 49 4 51 6 2 2 6 22 10 44 4 25 3
35 -2 26 -8 -11 -10 -11 -15 0 -3 8 -6 1 -6 -15z"/>
<path d="M3665 830 c3 -5 2 -10 -3 -10 -5 0 -9 -15 -10 -32 -2 -66 -3 -68 -44
-68 -38 0 -38 0 -38 -40 0 -29 4 -40 15 -40 8 0 15 7 15 15 0 9 9 15 21 15 11
0 27 7 35 15 12 12 12 15 2 15 -10 0 -10 2 1 9 15 10 23 131 8 131 -4 0 -5 -4
-2 -10z"/>
<path d="M3640 660 c-8 -6 -13 -10 -10 -11 44 -7 53 -8 45 -1 -5 4 -12 10 -15
14 -3 4 -12 3 -20 -2z"/>
<path d="M3375 560 c-3 -5 1 -10 9 -10 9 0 16 5 16 10 0 6 -4 10 -9 10 -6 0
-13 -4 -16 -10z"/>
<path d="M3520 509 c0 -5 5 -7 10 -4 6 3 10 8 10 11 0 2 -4 4 -10 4 -5 0 -10
-5 -10 -11z"/>
<path d="M2772 501 c-11 -7 -11 -9 2 -14 10 -4 16 -1 16 8 0 17 -1 17 -18 6z"/>
<path d="M3078 503 c7 -3 16 -2 19 1 4 3 -2 6 -13 5 -11 0 -14 -3 -6 -6z"/>
<path d="M3133 503 c-15 -5 -17 -23 -4 -23 5 0 11 7 15 15 3 8 4 15 3 14 -1 0
-8 -3 -14 -6z"/>
<path d="M3165 500 c3 -5 8 -10 11 -10 2 0 4 5 4 10 0 6 -5 10 -11 10 -5 0 -7
-4 -4 -10z"/>
<path d="M3460 500 c0 -5 5 -10 11 -10 5 0 7 5 4 10 -3 6 -8 10 -11 10 -2 0
-4 -4 -4 -10z"/>
<path d="M3048 463 c7 -3 16 -2 19 1 4 3 -2 6 -13 5 -11 0 -14 -3 -6 -6z"/>
<path d="M3100 451 c0 -16 -8 -21 -47 -24 -44 -3 -43 -4 14 -5 56 -2 61 0 56
17 -3 13 1 21 14 24 12 3 9 5 -9 6 -21 1 -28 -4 -28 -18z"/>
<path d="M2771 424 c0 -11 3 -14 6 -6 3 7 2 16 -1 19 -3 4 -6 -2 -5 -13z"/>
<path d="M3920 136 c0 -13 -6 -26 -14 -28 -11 -2 -11 -8 -3 -28 l11 -25 4 28
c2 15 9 27 17 27 8 0 11 7 8 20 -8 31 -23 35 -23 6z"/>
<path d="M2572 115 c-10 -12 -10 -19 3 -39 17 -25 45 -42 45 -27 0 5 -7 14
-16 22 -10 8 -13 21 -9 36 6 26 -4 29 -23 8z"/>
<path d="M3840 84 c0 -28 15 -25 23 6 3 13 0 20 -9 20 -8 0 -14 -10 -14 -26z"/>
<path d="M3058 73 c12 -2 32 -2 45 0 12 2 2 4 -23 4 -25 0 -35 -2 -22 -4z"/>
<path d="M3188 72 c-10 -4 25 -7 77 -7 52 0 95 -3 95 -7 0 -4 8 -4 17 -1 15 6
15 7 -3 14 -24 9 -163 10 -186 1z"/>
<path d="M3410 70 c0 -5 7 -10 15 -10 8 0 15 5 15 10 0 6 -7 10 -15 10 -8 0
-15 -4 -15 -10z"/>
<path d="M3520 57 c0 -13 10 -16 50 -14 52 2 71 17 23 17 -16 0 -38 3 -50 6
-17 5 -23 2 -23 -9z"/>
<path d="M3239 43 c32 -3 44 -9 48 -24 6 -21 43 -27 43 -6 0 17 -58 37 -101
35 -29 -1 -28 -2 10 -5z"/>
<path d="M3404 43 c-16 -5 -5 -43 12 -43 8 0 14 9 14 19 0 22 -9 30 -26 24z"/>
<path d="M2957 19 c3 -11 12 -19 19 -19 21 0 17 27 -5 33 -14 3 -17 0 -14 -14z"/>
<path d="M3347 21 c3 -12 10 -21 15 -21 13 0 6 32 -9 37 -7 3 -9 -3 -6 -16z"/>
<path d="M2740 15 c0 -8 9 -15 20 -15 11 0 20 7 20 15 0 8 -9 15 -20 15 -11 0
-20 -7 -20 -15z"/>
<path d="M2830 15 c0 -8 7 -15 15 -15 8 0 15 7 15 15 0 8 -7 15 -15 15 -8 0
-15 -7 -15 -15z"/>
<path d="M3030 15 c0 -8 5 -15 10 -15 6 0 10 7 10 15 0 8 -4 15 -10 15 -5 0
-10 -7 -10 -15z"/>
<path d="M3451 14 c0 -11 3 -14 6 -6 3 7 2 16 -1 19 -3 4 -6 -2 -5 -13z"/>
<path d="M3470 15 c0 -8 5 -15 10 -15 6 0 10 7 10 15 0 8 -4 15 -10 15 -5 0
-10 -7 -10 -15z"/>
<path d="M3501 14 c0 -11 3 -14 6 -6 3 7 2 16 -1 19 -3 4 -6 -2 -5 -13z"/>
<path d="M3530 15 c0 -8 9 -15 20 -15 11 0 20 7 20 15 0 8 -9 15 -20 15 -11 0
-20 -7 -20 -15z"/>
<path d="M3660 15 c0 -11 12 -15 45 -15 33 0 45 4 45 15 0 11 -12 15 -45 15
-33 0 -45 -4 -45 -15z"/>
<path d="M4011 14 c0 -11 3 -14 6 -6 3 7 2 16 -1 19 -3 4 -6 -2 -5 -13z"/>
</g>
</svg>
